<?xml version="1.0" encoding="utf-8"?>
<!-- Generator: Adobe Illustrator 16.0.0, SVG Export Plug-In . SVG Version: 6.00 Build 0)  -->
<!DOCTYPE svg PUBLIC "-//W3C//DTD SVG 1.1//EN" "http://www.w3.org/Graphics/SVG/1.1/DTD/svg11.dtd">
<svg version="1.1" id="圖層_1" xmlns="http://www.w3.org/2000/svg" xmlns:xlink="http://www.w3.org/1999/xlink" x="0px" y="0px"
	 width="162.514px" height="162.514px" viewBox="0 0 162.514 162.514" enable-background="new 0 0 162.514 162.514"
	 xml:space="preserve">
<g id="Background">
</g>
<g>
	<g>
		<g>
			<g>
				<g id="Graphic_Elements">
					<defs>
						<circle id="SVGID_1_" cx="81.037" cy="81.256" r="119.5"/>
					</defs>
					<clipPath id="SVGID_2_">
						<use xlink:href="#SVGID_1_"  overflow="visible"/>
					</clipPath>
					<g clip-path="url(#SVGID_2_)">
						<g display="none">
							<g display="inline">
								<defs>
									<rect id="SVGID_3_" x="-47.315" y="-47.096" width="256.705" height="256.705"/>
								</defs>
								<clipPath id="SVGID_4_">
									<use xlink:href="#SVGID_3_"  overflow="visible"/>
								</clipPath>
								<g transform="matrix(1 0 0 1 0 0)" clip-path="url(#SVGID_4_)">
								</g>
							</g>
						</g>
						<g>
							<defs>
								<circle id="SVGID_5_" cx="81.037" cy="81.256" r="119.5"/>
							</defs>
							<clipPath id="SVGID_6_">
								<use xlink:href="#SVGID_5_"  overflow="visible"/>
							</clipPath>
							<g clip-path="url(#SVGID_6_)">
								<g>
									<path fill="#0F5C9E" d="M81.037,19.573c20.089,0,22.47,0.077,30.403,0.439c7.337,0.335,11.32,1.559,13.973,2.59
										c3.511,1.366,6.018,2.996,8.651,5.631c2.635,2.63,4.263,5.137,5.627,8.651c1.031,2.652,2.259,6.635,2.593,13.97
										c0.359,7.937,0.438,10.314,0.438,30.403c0,20.094-0.077,22.473-0.438,30.406c-0.333,7.338-1.562,11.319-2.593,13.974
										c-1.364,3.511-2.991,6.016-5.627,8.65c-2.634,2.632-5.141,4.264-8.651,5.629c-2.651,1.03-6.636,2.255-13.973,2.592
										c-7.932,0.362-10.312,0.438-30.403,0.438s-22.47-0.074-30.404-0.438c-7.335-0.336-11.319-1.562-13.971-2.592
										c-3.512-1.365-6.02-2.996-8.652-5.629c-2.63-2.634-4.264-5.139-5.63-8.65c-1.03-2.653-2.254-6.636-2.589-13.974
										c-0.362-7.934-0.439-10.313-0.439-30.406c0-20.089,0.077-22.466,0.439-30.402c0.333-7.336,1.56-11.318,2.589-13.971
										c1.365-3.513,2.997-6.021,5.63-8.651c2.632-2.634,5.139-4.264,8.652-5.631c2.651-1.031,6.636-2.252,13.971-2.59
										C58.568,19.651,60.946,19.573,81.037,19.573 M81.037,6.015c-20.435,0-22.996,0.088-31.021,0.455
										c-8.008,0.366-13.479,1.639-18.264,3.499c-4.948,1.923-9.145,4.496-13.326,8.678c-4.182,4.181-6.755,8.378-8.678,13.324
										c-1.86,4.787-3.134,10.256-3.499,18.266C5.884,58.26,5.798,60.82,5.798,81.254c0,20.436,0.086,22.996,0.454,31.022
										c0.364,8.009,1.639,13.479,3.499,18.265c1.923,4.946,4.496,9.141,8.678,13.324s8.378,6.757,13.326,8.679
										c4.785,1.86,10.255,3.133,18.264,3.499c8.023,0.363,10.586,0.45,31.021,0.45s22.994-0.087,31.021-0.45
										c8.008-0.366,13.478-1.639,18.262-3.499c4.948-1.922,9.146-4.495,13.328-8.679c4.184-4.185,6.755-8.378,8.678-13.324
										c1.86-4.785,3.133-10.256,3.499-18.265c0.365-8.026,0.45-10.587,0.45-31.022c0-20.433-0.085-22.995-0.45-31.019
										c-0.366-8.01-1.639-13.479-3.499-18.266c-1.923-4.946-4.494-9.144-8.678-13.324c-4.184-4.182-8.38-6.755-13.328-8.678
										c-4.784-1.86-10.254-3.132-18.262-3.499C104.031,6.103,101.471,6.015,81.037,6.015L81.037,6.015z"/>
									<path fill="#0F5C9E" d="M81.037,42.62C59.697,42.62,42.4,59.918,42.4,81.255c0,21.342,17.301,38.638,38.638,38.638
										c21.339,0,38.638-17.298,38.638-38.638C119.675,59.92,102.376,42.62,81.037,42.62z M81.037,106.337
										c-13.853,0-25.081-11.229-25.081-25.081c0-13.848,11.229-25.08,25.081-25.08c13.852,0,25.08,11.23,25.08,25.08
										C106.117,95.109,94.888,106.337,81.037,106.337z"/>
									<circle fill="#0F5C9E" cx="121.202" cy="41.095" r="9.028"/>
								</g>
							</g>
						</g>
					</g>
				</g>
			</g>
		</g>
	</g>
</g>
</svg>
