<?xml version="1.0" encoding="utf-8"?>
<!-- Generator: Adobe Illustrator 16.0.0, SVG Export Plug-In . SVG Version: 6.00 Build 0)  -->
<!DOCTYPE svg PUBLIC "-//W3C//DTD SVG 1.1//EN" "http://www.w3.org/Graphics/SVG/1.1/DTD/svg11.dtd">
<svg version="1.1" id="圖層_1" xmlns="http://www.w3.org/2000/svg" xmlns:xlink="http://www.w3.org/1999/xlink" x="0px" y="0px"
	 width="162.514px" height="162.514px" viewBox="0 0 162.514 162.514" enable-background="new 0 0 162.514 162.514"
	 xml:space="preserve">
<g id="Background">
</g>
<g id="Graphic_Elements">
	<g>
		<circle fill="#0F5C9E" cx="81.256" cy="81.256" r="76.5"/>
		<g>
			<g id="FULL_COLOR_ICON_1_">
				<g id="TYPE_A_1_">
					<g>
						<path fill="#FFFFFF" d="M133.141,77.3c0-23.328-23.388-42.306-52.135-42.306c-28.744,0-52.133,18.979-52.133,42.306
							c0,20.914,18.547,38.427,43.6,41.74c1.698,0.364,4.009,1.119,4.594,2.57c0.526,1.317,0.345,3.383,0.167,4.713
							c0,0-0.61,3.681-0.742,4.464c-0.228,1.316-1.049,5.153,4.515,2.811c5.563-2.346,30.022-17.68,40.963-30.269h-0.002
							C129.521,95.044,133.141,86.635,133.141,77.3"/>
						<g>
							<path fill="#0F5C9E" d="M70.415,66.027h-3.659c-0.561,0-1.015,0.454-1.015,1.015v22.715c0,0.56,0.453,1.014,1.015,1.014
								h3.659c0.56,0,1.015-0.452,1.015-1.014V67.04C71.429,66.481,70.976,66.027,70.415,66.027"/>
							<path fill="#0F5C9E" d="M95.584,66.027h-3.656c-0.561,0-1.016,0.454-1.016,1.015v13.495l-10.411-14.06
								c-0.023-0.035-0.051-0.07-0.078-0.103c-0.002-0.002-0.004-0.004-0.006-0.006c-0.021-0.022-0.04-0.042-0.063-0.063
								c-0.007-0.006-0.012-0.012-0.019-0.019c-0.019-0.016-0.035-0.03-0.054-0.045c-0.01-0.009-0.02-0.014-0.026-0.021
								c-0.018-0.012-0.034-0.024-0.053-0.037c-0.011-0.007-0.02-0.012-0.03-0.018c-0.019-0.012-0.036-0.023-0.054-0.031
								c-0.012-0.004-0.021-0.011-0.031-0.016c-0.021-0.009-0.038-0.019-0.061-0.024c-0.012-0.004-0.021-0.009-0.031-0.012
								c-0.021-0.007-0.039-0.014-0.062-0.021c-0.011-0.003-0.022-0.006-0.035-0.009c-0.021-0.006-0.039-0.01-0.06-0.015
								c-0.013-0.002-0.028-0.003-0.041-0.005c-0.02-0.003-0.036-0.005-0.055-0.008c-0.018-0.001-0.033-0.002-0.053-0.003
								c-0.013,0-0.022-0.001-0.033-0.001H76c-0.561,0-1.016,0.453-1.016,1.015v22.716c0,0.56,0.455,1.014,1.016,1.014h3.658
								c0.56,0,1.015-0.453,1.015-1.014V76.265l10.422,14.077c0.071,0.101,0.161,0.184,0.258,0.25
								c0.004,0.002,0.007,0.004,0.013,0.008c0.021,0.014,0.04,0.026,0.063,0.038c0.011,0.006,0.02,0.011,0.028,0.016
								c0.017,0.01,0.031,0.019,0.049,0.024c0.018,0.007,0.031,0.015,0.05,0.021c0.011,0.004,0.021,0.01,0.029,0.013
								c0.023,0.009,0.047,0.016,0.069,0.021c0.006,0.001,0.011,0.003,0.016,0.003c0.082,0.023,0.169,0.034,0.26,0.034h3.656
								c0.563,0,1.015-0.452,1.015-1.014V67.04C96.6,66.481,96.147,66.027,95.584,66.027"/>
							<path fill="#0F5C9E" d="M61.599,85.081h-9.936V67.04c0-0.56-0.455-1.016-1.017-1.016H46.99c-0.561,0-1.017,0.455-1.017,1.016
								v22.713v0.002c0,0.271,0.11,0.52,0.283,0.7c0.004,0.006,0.009,0.012,0.016,0.019c0.004,0.004,0.011,0.009,0.016,0.013
								c0.183,0.176,0.429,0.283,0.702,0.283h0.001h14.607c0.562,0,1.015-0.455,1.015-1.016v-3.657
								C62.614,85.537,62.16,85.081,61.599,85.081"/>
							<path fill="#0F5C9E" d="M115.779,71.714c0.562,0,1.016-0.453,1.016-1.016v-3.656c0-0.561-0.453-1.016-1.016-1.016h-14.607
								h-0.002c-0.273,0-0.521,0.108-0.704,0.286c-0.003,0.004-0.009,0.008-0.012,0.011c-0.007,0.008-0.013,0.013-0.018,0.02
								c-0.173,0.182-0.281,0.428-0.281,0.698v0.002v22.712v0.001c0,0.271,0.108,0.52,0.284,0.702
								c0.003,0.004,0.009,0.011,0.015,0.017c0.004,0.003,0.01,0.009,0.016,0.013c0.181,0.176,0.428,0.283,0.7,0.283h0.002h14.607
								c0.562,0,1.016-0.454,1.016-1.016v-3.658c0-0.56-0.453-1.016-1.016-1.016h-9.936V81.24h9.936
								c0.562,0,1.016-0.452,1.016-1.015v-3.658c0-0.562-0.453-1.015-1.016-1.015h-9.936v-3.84L115.779,71.714L115.779,71.714z"/>
						</g>
					</g>
				</g>
			</g>
		</g>
	</g>
</g>
</svg>
