<?xml version="1.0" encoding="utf-8"?>
<!-- Generator: Adobe Illustrator 16.0.0, SVG Export Plug-In . SVG Version: 6.00 Build 0)  -->
<!DOCTYPE svg PUBLIC "-//W3C//DTD SVG 1.1//EN" "http://www.w3.org/Graphics/SVG/1.1/DTD/svg11.dtd">
<svg version="1.1" id="圖層_1" xmlns="http://www.w3.org/2000/svg" xmlns:xlink="http://www.w3.org/1999/xlink" x="0px" y="0px"
	 width="500px" height="500px" viewBox="0 0 500 500" enable-background="new 0 0 500 500" xml:space="preserve">
<g id="BACKGROUND" display="none">
	<rect x="0" y="0" display="inline" fill="#F2F5F4" width="500" height="500"/>
</g>
<g id="OBJECTS">
	<g>
		<path fill="#EEF8FF" d="M150.607,169.16v233.847c0,7.634,6.187,13.821,13.82,13.821h302.637c7.634,0,13.821-6.187,13.821-13.821
			V169.16c0-7.633-6.188-13.821-13.821-13.821H164.427C156.793,155.339,150.606,161.527,150.607,169.16z"/>
		<g>
			<path fill="#FFFFFF" stroke="#F2F5F4" stroke-miterlimit="10" d="M135.323,152.521v233.848c0,7.633,6.188,13.821,13.821,13.821
				h302.638c7.633,0,13.82-6.188,13.82-13.821V152.522c0-7.633-6.188-13.821-13.82-13.821H149.145
				C141.512,138.701,135.323,144.889,135.323,152.521z"/>
			<path fill="#EEF8FF" d="M135.323,158.356v10.731h330.279v-10.731c0-7.633-6.188-13.821-13.82-13.821H149.145
				C141.512,144.535,135.323,150.723,135.323,158.356z"/>
			<path fill="#FFFFFF" d="M135.323,152.522v10.731h330.279v-10.731c0-7.633-6.188-13.821-13.82-13.821H149.145
				C141.512,138.701,135.323,144.889,135.323,152.522z"/>
			<circle fill="#D57548" cx="448.623" cy="150.977" r="4.175"/>
			<circle fill="#FFB72F" cx="431.984" cy="150.977" r="4.175"/>
			<circle fill="#5B8BBA" cx="415.345" cy="150.977" r="4.176"/>
		</g>
		<g>
			
				<line fill="none" stroke="#EEF8FF" stroke-width="5" stroke-linecap="round" stroke-linejoin="round" stroke-miterlimit="10" x1="172.256" y1="184.376" x2="235.933" y2="184.376"/>
			
				<line fill="none" stroke="#EEF8FF" stroke-width="5" stroke-linecap="round" stroke-linejoin="round" stroke-miterlimit="10" x1="172.256" y1="196.728" x2="235.933" y2="196.728"/>
			
				<line fill="none" stroke="#EEF8FF" stroke-width="5" stroke-linecap="round" stroke-linejoin="round" stroke-miterlimit="10" x1="172.256" y1="209.08" x2="235.933" y2="209.08"/>
			
				<line fill="none" stroke="#EEF8FF" stroke-width="5" stroke-linecap="round" stroke-linejoin="round" stroke-miterlimit="10" x1="172.256" y1="221.432" x2="235.933" y2="221.432"/>
			
				<line fill="none" stroke="#EEF8FF" stroke-width="5" stroke-linecap="round" stroke-linejoin="round" stroke-miterlimit="10" x1="172.256" y1="233.784" x2="235.933" y2="233.784"/>
			
				<line fill="none" stroke="#EEF8FF" stroke-width="5" stroke-linecap="round" stroke-linejoin="round" stroke-miterlimit="10" x1="172.256" y1="258.488" x2="440.924" y2="258.488"/>
			
				<line fill="none" stroke="#EEF8FF" stroke-width="5" stroke-linecap="round" stroke-linejoin="round" stroke-miterlimit="10" x1="172.256" y1="270.839" x2="440.924" y2="270.839"/>
			
				<line fill="none" stroke="#EEF8FF" stroke-width="5" stroke-linecap="round" stroke-linejoin="round" stroke-miterlimit="10" x1="172.256" y1="283.192" x2="440.924" y2="283.192"/>
			
				<line fill="none" stroke="#EEF8FF" stroke-width="5" stroke-linecap="round" stroke-linejoin="round" stroke-miterlimit="10" x1="172.256" y1="295.543" x2="440.924" y2="295.543"/>
			
				<line fill="none" stroke="#EEF8FF" stroke-width="5" stroke-linecap="round" stroke-linejoin="round" stroke-miterlimit="10" x1="172.256" y1="307.896" x2="440.924" y2="307.896"/>
			
				<line fill="none" stroke="#EEF8FF" stroke-width="5" stroke-linecap="round" stroke-linejoin="round" stroke-miterlimit="10" x1="231.058" y1="327.829" x2="327.114" y2="327.829"/>
			
				<line fill="none" stroke="#EEF8FF" stroke-width="5" stroke-linecap="round" stroke-linejoin="round" stroke-miterlimit="10" x1="231.058" y1="340.18" x2="327.114" y2="340.18"/>
			
				<line fill="none" stroke="#EEF8FF" stroke-width="5" stroke-linecap="round" stroke-linejoin="round" stroke-miterlimit="10" x1="231.058" y1="352.533" x2="327.114" y2="352.533"/>
			
				<line fill="none" stroke="#EEF8FF" stroke-width="5" stroke-linecap="round" stroke-linejoin="round" stroke-miterlimit="10" x1="259.966" y1="364.884" x2="327.114" y2="364.884"/>
			
				<line fill="none" stroke="#EEF8FF" stroke-width="5" stroke-linecap="round" stroke-linejoin="round" stroke-miterlimit="10" x1="259.966" y1="377.236" x2="327.114" y2="377.236"/>
			<g>
				
					<circle fill="none" stroke="#EEF8FF" stroke-width="5" stroke-linecap="round" stroke-linejoin="round" stroke-miterlimit="10" cx="279.759" cy="210.79" r="33.883"/>
				
					<polyline fill="none" stroke="#EEF8FF" stroke-width="5" stroke-linecap="round" stroke-linejoin="round" stroke-miterlimit="10" points="
					254.881,233.784 279.759,210.79 279.759,176.907 				"/>
			</g>
			<g>
				
					<circle fill="none" stroke="#EEF8FF" stroke-width="5" stroke-linecap="round" stroke-linejoin="round" stroke-miterlimit="10" cx="408.261" cy="353.7" r="33.883"/>
				
					<polyline fill="none" stroke="#EEF8FF" stroke-width="5" stroke-linecap="round" stroke-linejoin="round" stroke-miterlimit="10" points="
					383.383,376.694 408.261,353.7 408.261,319.817 				"/>
			</g>
			
				<rect x="160.249" y="324.237" fill="none" stroke="#EEF8FF" stroke-width="5" stroke-linecap="round" stroke-linejoin="round" stroke-miterlimit="10" width="61.072" height="54.196"/>
			
				<polygon fill="none" stroke="#EEF8FF" stroke-width="5" stroke-linecap="round" stroke-linejoin="round" stroke-miterlimit="10" points="
				442.127,237.888 386.467,237.888 442.127,183.691 			"/>
		</g>
	</g>
	<g>
		<g>
			<g>
				<path fill="#EEF8FF" d="M30.921,146.147v77.352c0,7.633,6.188,13.821,13.82,13.821h130.521c7.633,0,13.82-6.188,13.82-13.821
					v-77.352c0-7.633-6.187-13.821-13.82-13.821H44.741C37.108,132.326,30.92,138.514,30.921,146.147z"/>
				<g>
					<path fill="#FFFFFF" stroke="#F1F1F3" stroke-miterlimit="10" d="M18.63,135.494v77.353c0,7.633,6.188,13.82,13.821,13.82
						h130.521c7.633,0,13.82-6.188,13.82-13.82v-77.353c0-7.633-6.187-13.821-13.82-13.821H32.45
						C24.817,121.673,18.629,127.86,18.63,135.494z"/>
					<path fill="#EEF8FF" d="M18.629,141.328v10.732h158.163v-10.732c0-7.633-6.187-13.821-13.82-13.821H32.45
						C24.817,127.507,18.629,133.695,18.629,141.328z"/>
					<path fill="#FFFFFF" stroke="#F1F1F3" stroke-miterlimit="10" d="M18.629,135.494v10.732h158.163v-10.732
						c0-7.633-6.187-13.821-13.82-13.821H32.45C24.817,121.673,18.629,127.86,18.629,135.494z"/>
					<g>
						
							<line fill="none" stroke="#EEF8FF" stroke-width="5" stroke-linecap="round" stroke-linejoin="round" stroke-miterlimit="10" x1="86.698" y1="133.949" x2="107.915" y2="133.949"/>
						
							<line fill="none" stroke="#EEF8FF" stroke-width="5" stroke-linecap="round" stroke-linejoin="round" stroke-miterlimit="10" x1="33.632" y1="133.949" x2="76.735" y2="133.949"/>
					</g>
					<circle fill="#D57548" cx="159.812" cy="133.949" r="4.175"/>
					<circle fill="#FFB72F" cx="143.173" cy="133.949" r="4.176"/>
					<circle fill="#5B8BBA" cx="126.534" cy="133.949" r="4.175"/>
				</g>
			</g>
		</g>
		<g>
			<path fill="none" stroke="#EAA105" stroke-miterlimit="10" d="M33.632,201.072c0,0,28.854-34.403,60.168,0
				c0,0,29.865-33.16,60.168,0"/>
			<g>
				<line fill="none" stroke="#450000" stroke-miterlimit="10" x1="33.632" y1="201.072" x2="153.968" y2="201.072"/>
				<line fill="none" stroke="#450000" stroke-miterlimit="10" x1="33.632" y1="204.753" x2="33.632" y2="194.684"/>
				<line fill="none" stroke="#450000" stroke-miterlimit="10" x1="153.968" y1="204.753" x2="153.968" y2="194.684"/>
			</g>
			<path fill="none" stroke="#450000" stroke-miterlimit="10" d="M30.695,186.382v2.592c0,0.907,0.735,1.643,1.643,1.643h2.591
				c0.908,0,1.644-0.735,1.644-1.643v-2.592c0-0.907-0.736-1.643-1.644-1.643h-2.591C31.43,184.739,30.695,185.474,30.695,186.382z"
				/>
			<path fill="none" stroke="#450000" stroke-miterlimit="10" d="M151.031,186.382v2.592c0,0.907,0.735,1.643,1.643,1.643h2.591
				c0.908,0,1.644-0.735,1.644-1.643v-2.592c0-0.907-0.736-1.643-1.644-1.643h-2.591
				C151.767,184.739,151.031,185.474,151.031,186.382z"/>
			<path fill="none" stroke="#450000" stroke-miterlimit="10" d="M90.863,207.027v2.591c0,0.908,0.735,1.644,1.643,1.644h2.591
				c0.908,0,1.644-0.736,1.644-1.644v-2.591c0-0.908-0.736-1.643-1.644-1.643h-2.591C91.598,205.385,90.863,206.119,90.863,207.027z
				"/>
			<circle fill="none" stroke="#C43F00" stroke-miterlimit="10" cx="93.801" cy="208.322" r="8.803"/>
			<g>
				<g>
					<path fill="#5B8BBA" d="M113.737,175.451l-1.217-1.882l-1.184,1.872c-0.217,0.344-0.596,0.553-1.003,0.553h-0.522
						c-0.966,0-1.527-1.092-0.965-1.877l1.935-2.699l-1.85-2.63c-0.552-0.785,0.011-1.868,0.971-1.868h0.521
						c0.394,0,0.762,0.196,0.982,0.522l1.188,1.759l1.152-1.748c0.219-0.333,0.591-0.533,0.99-0.533h0.341
						c0.967,0,1.527,1.094,0.963,1.878l-1.8,2.504l2.009,2.817c0.559,0.786-0.002,1.875-0.966,1.875h-0.553
						C114.328,175.994,113.953,175.79,113.737,175.451z"/>
				</g>
				<g>
					<path fill="#5B8BBA" d="M135.701,172.701v2.106c0,0.654-0.531,1.186-1.187,1.186h-0.688c-0.655,0-1.186-0.531-1.186-1.186
						v-2.146l-2.354-3.949c-0.471-0.791,0.099-1.793,1.019-1.793h0.464c0.419,0,0.808,0.223,1.021,0.583l1.511,2.556l1.521-2.559
						c0.214-0.359,0.602-0.58,1.02-0.58h0.2c0.918,0,1.489,1,1.021,1.791L135.701,172.701z"/>
				</g>
				<g>
					<path fill="#5B8BBA" d="M156.817,174.809L156.817,174.809c0,0.654-0.532,1.186-1.188,1.186h-5.709
						c-0.794,0-1.438-0.645-1.438-1.439l0,0c0-0.283,0.102-0.559,0.287-0.773l3.86-4.489h-2.832c-0.655,0-1.187-0.53-1.187-1.186
						l0,0c0-0.655,0.532-1.187,1.187-1.187h5.371c0.795,0,1.439,0.645,1.439,1.439l0,0c0,0.284-0.102,0.559-0.286,0.773
						l-3.861,4.488h3.169C156.284,173.622,156.816,174.153,156.817,174.809z"/>
				</g>
				<g>
					<g>
						<path fill="#5B8BBA" d="M127.865,169.917v-0.729c0-0.507-0.41-0.917-0.916-0.917h-5.143c-0.506,0-0.916,0.411-0.916,0.917
							v0.729c0,0.506,0.41,0.917,0.916,0.917h5.143C127.454,170.834,127.865,170.423,127.865,169.917z"/>
					</g>
					<g>
						<path fill="#5B8BBA" d="M127.865,174.045v-0.728c0-0.507-0.41-0.917-0.916-0.917h-5.143c-0.506,0-0.916,0.411-0.916,0.917
							v0.728c0,0.507,0.41,0.917,0.916,0.917h5.143C127.454,174.962,127.865,174.552,127.865,174.045z"/>
					</g>
				</g>
				<g>
					<g>
						<path fill="#5B8BBA" d="M145.858,174.367l0.516-0.515c0.357-0.358,0.357-0.938,0-1.296l-3.636-3.637
							c-0.358-0.357-0.939-0.357-1.296,0l-0.517,0.516c-0.356,0.357-0.356,0.938,0,1.296l3.637,3.636
							C144.92,174.725,145.5,174.725,145.858,174.367z"/>
					</g>
					<g>
						<path fill="#5B8BBA" d="M140.926,173.852l0.517,0.515c0.357,0.358,0.938,0.358,1.296,0l3.636-3.636
							c0.357-0.358,0.357-0.938,0-1.296l-0.516-0.516c-0.358-0.357-0.938-0.357-1.296,0l-3.637,3.637
							C140.569,172.914,140.569,173.494,140.926,173.852z"/>
					</g>
				</g>
			</g>
			<g>
				
					<line fill="none" stroke="#EEF8FF" stroke-width="5" stroke-linecap="round" stroke-linejoin="round" stroke-miterlimit="10" x1="33.632" y1="167.213" x2="97.711" y2="167.213"/>
				
					<line fill="none" stroke="#EEF8FF" stroke-width="5" stroke-linecap="round" stroke-linejoin="round" stroke-miterlimit="10" x1="65.672" y1="177.042" x2="97.711" y2="177.042"/>
			</g>
		</g>
	</g>
	<g>
		<path fill="#5B8BBA" d="M282.324,322.515c0.093-0.059,0.174-0.116,0.266-0.175c1.686-1.108,3.361-2.102,4.954-2.979l92.367,3.557
			c0.717,0.301,1.421,0.611,2.102,0.946c28.418,13.21,33.372,40.994,8.142,43.557H276.632
			C245.779,356.071,265.074,333.889,282.324,322.515z"/>
		<path fill="#494949" d="M370.611,327.142l-80.535,4.796c0,0-16.659,23.715-25.15,68.252h131.864
			C395.247,379.38,389.722,345.978,370.611,327.142z"/>
		<path fill="#42739B" d="M273.905,293.133c9.091,40.466-44.161,37.676-47.781,8.874L273.905,293.133z"/>
		<path fill="#42739B" d="M280.448,202.552c3.164-4.523,7.69-7.636,12.74-9.11c4.638-1.353,9.705-1.299,14.523,0.416
			c11.609,4.143,18.035,16.555,14.798,28.439c-7.568,27.764-47.938,87.149-58.824,98.406l-33.354-30.79L280.448,202.552z"/>
		<g>
			<path fill="#450000" d="M184.437,222.122l4.892-6.887c1.235-1.738,3.645-2.146,5.383-0.912l8.176,5.807
				c1.738,1.234,2.146,3.645,0.912,5.383l-4.892,6.887c-1.235,1.738-3.646,2.146-5.383,0.912l-8.177-5.807
				C183.61,226.27,183.201,223.86,184.437,222.122z"/>
			<path fill="#EFBFA9" d="M192.108,218.497l50.427,46.063l22.39,20.449c0,18.244-18.66,29.758-34.284,23.223
				c-1.812-0.773-3.591-1.778-5.289-3.037c-30.219-22.506-43.048-75.242-57.644-84.457L192.108,218.497z"/>
			<path fill="#ECB298" d="M230.664,308.219c18.51,3.798,26.415-16.365,11.87-43.659l22.39,20.449
				c0,18.244-18.66,29.758-34.284,23.223C230.651,308.219,230.651,308.219,230.664,308.219z"/>
			<g>
				<path fill="#EFBFA9" d="M159.655,202.545l-14.148,28.672c10.695,1.602,27.964,12.844,52.152,0.881l-5.553-13.605
					L159.655,202.545z"/>
				<path fill="#EFBFA9" d="M145.185,215.644c-0.09,0.06-0.178,0.121-0.255,0.188l-8.272,6.835
					c-0.104,0.085-0.207,0.169-0.299,0.262l-0.008,0.012c-1.717,1.679-1.999,4.383-0.583,6.382c0.386,0.546,0.864,1,1.399,1.339
					c0.998,0.633,2.175,0.881,3.331,0.714c0.821-0.111,1.626-0.435,2.341-0.981l4.967-3.833l3.513-2.723
					c0.557-0.43,1.01-0.96,1.336-1.553c0.872-1.531,0.899-3.464-0.026-5.052c-0.086-0.155-0.179-0.297-0.284-0.447
					c-0.386-0.545-0.873-0.988-1.406-1.327C149.214,214.366,146.93,214.366,145.185,215.644z"/>
				<path fill="#EFBFA9" d="M121.806,206.149l15.56,0.49l23.194,13.658l3.56-18.085l-21.048-6.072l-21.438,1.559
					c-2.487,0.181-4.279,2.463-3.866,4.923C118.101,204.61,119.792,206.086,121.806,206.149z"/>
				<polygon fill="#E89076" points="161.569,220.348 140.746,208.631 143.502,203.834 159.808,200.97 164.119,202.213 				"/>
				<path fill="#EFBFA9" d="M139.033,235.617c-0.08-0.815,0.06-1.611,0.377-2.304c0.09-0.193,0.179-0.387,0.281-0.564
					c0.703-1.257,1.961-2.173,3.46-2.442l10.573-1.771c1.864-0.331,3.664,0.412,4.787,1.777c0.078,0.07,0.151,0.172,0.212,0.256
					c0.073,0.101,0.147,0.201,0.217,0.331c0.39,0.64,0.662,1.366,0.746,2.151c0.28,2.749-1.685,5.233-4.416,5.606l-10.642,1.434
					c-1.88,0.24-3.637-0.586-4.676-2.012C139.452,237.391,139.123,236.552,139.033,235.617z"/>
				<path fill="#E89076" d="M143.151,230.306l10.573-1.771c1.864-0.331,4.093-0.403,5.216,0.962
					c0.027,3.606-3.202,5.326-5.873,5.115l-10.688-0.817c-1.027-0.071-1.949-0.455-2.688-1.046
					C140.394,231.492,141.652,230.576,143.151,230.306z"/>
				<path fill="#E89076" d="M142.573,224.079c0.259-1.281,0.982-2.36,1.994-3.056c0.964-0.691,2.19-1.032,3.453-0.883l7.367,0.685
					c1.612,0.202,2.933,1.119,3.727,2.41c0.054,0.088,0.12,0.194,0.157,0.293c0.534,0.987,0.729,2.135,0.519,3.337
					c-0.506,2.701-3.085,4.532-5.816,4.093l-7.32-1.005c-1.485-0.231-2.709-1.111-3.438-2.296
					C142.573,226.614,142.314,225.36,142.573,224.079z"/>
				<path fill="#EFBFA9" d="M153.304,222.315l-0.648-0.028l-10.084-0.45c-1.267-0.054-2.464,0.388-3.364,1.149
					c-0.414,0.337-0.772,0.743-1.059,1.195c-0.365,0.601-0.604,1.267-0.705,2.003c-0.158,1.3,0.196,2.525,0.918,3.518
					c0.533,0.737,1.275,1.326,2.139,1.674c0.461,0.193,0.956,0.308,1.478,0.354l10.692,0.803c2.761,0.219,5.196-1.803,5.482-4.539
					c0.109-1.064-0.104-2.067-0.573-2.932l0.008-0.013c-0.063-0.107-0.122-0.227-0.199-0.343c-0.053-0.1-0.125-0.196-0.186-0.285
					C156.308,223.204,154.923,222.392,153.304,222.315z"/>
				<path fill="#E89076" d="M152.535,217.178l-7.443-1.592c-0.088,0.062-0.177,0.121-0.253,0.189l-8.272,6.835
					c-0.105,0.084-0.207,0.169-0.299,0.26l-0.009,0.012c0.496,0.532,1.093,0.959,1.797,1.24c0.218,0.105,0.47,0.182,0.717,0.238
					l8.942,2.143l4.126,0.985c2.273,0.543,4.573-0.532,5.646-2.485l0.008-0.012c-0.065-0.107-0.122-0.227-0.199-0.343
					c-0.053-0.101-0.125-0.197-0.187-0.285c-0.894-1.217-2.278-2.03-3.897-2.107l-0.647-0.027
					C153.437,220.698,153.463,218.764,152.535,217.178z"/>
				<path fill="#EFBFA9" d="M146.153,207.904l-3.071,1.818l-3.168,1.891l-2.99,1.769c-2.204,1.318-3.035,4.125-1.897,6.432
					c0.413,0.846,1.032,1.522,1.781,1.999c0.618,0.392,1.307,0.646,2.027,0.72c0.999,0.134,2.062-0.042,3.014-0.571l6.368-3.492
					l3.032-1.678c2.414-1.335,3.351-4.358,2.085-6.83c-0.434-0.841-1.062-1.506-1.81-1.981
					C149.943,206.976,147.879,206.866,146.153,207.904z"/>
				<path fill="#E89076" d="M142.639,215.752c0.452-1.226,1.334-2.182,2.438-2.714c1.059-0.535,2.324-0.685,3.548-0.344l7.176,1.805
					c1.562,0.447,2.727,1.557,3.313,2.953c0.04,0.095,0.089,0.21,0.109,0.314c0.378,1.057,0.395,2.221,0.002,3.376
					c-0.915,2.591-3.742,4.006-6.375,3.153l-7.081-2.114c-1.432-0.457-2.506-1.514-3.044-2.795
					C142.25,218.257,142.185,216.978,142.639,215.752z"/>
				<path fill="#EFBFA9" d="M137.17,216.977c0.356-1.258,1.16-2.28,2.221-2.896c1.015-0.616,2.265-0.862,3.512-0.618l10.524,2.118
					c1.593,0.324,2.839,1.339,3.532,2.687c0.048,0.093,0.106,0.203,0.134,0.305c0.458,1.025,0.566,2.184,0.265,3.367
					c-0.71,2.654-3.419,4.284-6.11,3.639l-10.455-2.435c-1.461-0.345-2.615-1.314-3.252-2.55
					C136.979,219.505,136.815,218.235,137.17,216.977z"/>
				<g>
					<g>
						<path fill="#E89076" d="M158.466,219.507l-6.771-0.669l-5.781-8.216l16.417-3.267l23.757,13.708
							C168.622,239.517,158.467,219.508,158.466,219.507z"/>
						<path fill="#E89076" d="M151.696,218.84l-3.218,4.475c-1.096,1.521-3.125,2.038-4.813,1.224l0,0
							c-1.901-0.916-2.715-3.188-1.829-5.103l4.078-8.813L151.696,218.84z"/>
					</g>
					<g>
						<path fill="#EFBFA9" d="M159.509,216.543l-7.991-0.816l-6.79-9.724l19.392-3.789l27.986,16.278
							C171.414,240.203,159.51,216.542,159.509,216.543z"/>
						<path fill="#E89076" d="M139.913,211.614l-1.816,7.116c-0.349,1.361-0.04,2.741,0.737,3.802
							c0.58,0.819,1.436,1.444,2.476,1.721c1.957,0.542,3.989-0.268,5.053-1.943c0.098-0.155,0.191-0.328,0.272-0.511l1.581-3.33
							l1.197-2.542l-6.332-6.204L139.913,211.614z"/>
						<path fill="#EFBFA9" d="M151.518,215.726l-3.816,5.267c-1.299,1.792-3.697,2.394-5.688,1.425l0,0
							c-2.24-1.089-3.191-3.773-2.138-6.03l4.852-10.386L151.518,215.726z"/>
					</g>
				</g>
			</g>
			<polygon fill="#450000" points="200.145,223.911 183.223,245.661 178.747,238.677 192.621,217.899 			"/>
		</g>
		<path fill="#5B8BBA" d="M282.441,322.919l0.15-0.578l5.601-21.813l5.577-21.686l0.023-0.128l0.127-0.577
			c-8.418-7.528-12.438-16.108-13.834-24.745c-0.242-1.455-0.404-2.957-0.462-4.4c-0.127-1.004-0.15-2.009-0.139-2.956
			c-0.034-3.418,0.288-6.755,0.785-10.022c0.161-0.958,0.334-1.939,0.542-2.875c2.506-12.494,18.061-34.054,19.665-39.562
			l28.719-16.328c-2.206-2.079,34.453-0.529,47.204,9.192c5.533,4.219-0.012,50.058,0,56.686c0.013,10.439-1.258,20.624-1.65,30.313
			c-0.67,16.212,3.037,34.896,7.263,50.427c5.035,18.487,10.81,32.482,10.81,32.482l-31.687-0.059l-87.228-0.149L282.441,322.919z"
			/>
		<path fill="#42739B" d="M282.591,322.342l5.601-21.813l10.602-8.464l49.557-8.504l-0.719-70.191l28.771,29.757
			c0.012,10.439-1.259,20.624-1.651,30.313c-0.67,16.212,3.037,34.896,7.263,50.427c28.418,13.21,33.372,40.994,8.142,43.557
			h-21.005l-5.831-3.753l-2.184-7.379l-3.164-10.728l-75.531-22.645l-0.115-0.403C282.417,322.458,282.498,322.399,282.591,322.342z
			"/>
		<g>
			<g>
				<defs>
					<path id="SVGID_1_" d="M293.765,278.846l0.022-0.126l0.137-0.58c-8.426-7.524-12.438-16.106-13.844-24.749
						c-0.235-1.448-0.396-2.949-0.455-4.402c-0.123-1-0.147-2.003-0.145-2.956c-0.029-3.409,0.293-6.751,0.793-10.021
						c0.154-0.956,0.331-1.938,0.535-2.871c2.516-12.495,18.063-34.056,19.664-39.559l28.728-16.336
						c-2.205-2.079,34.098-0.072,45.051,45.756c4.144,17.43,1.136,34.6,0.505,50.437c-1.475,35.513-0.907,70.46-0.907,70.46
						l-92.631,1.663L293.765,278.846z"/>
				</defs>
				<clipPath id="SVGID_2_">
					<use xlink:href="#SVGID_1_"  overflow="visible"/>
				</clipPath>
				<g clip-path="url(#SVGID_2_)">
					<polygon fill="none" stroke="#EAA105" stroke-miterlimit="10" points="344.28,228.995 360.635,254.541 344.28,280.085 
						327.923,254.541 					"/>
					<polygon fill="none" stroke="#EAA105" stroke-miterlimit="10" points="311.745,228.995 328.1,254.541 311.745,280.085 
						295.389,254.541 					"/>
					<polygon fill="none" stroke="#EAA105" stroke-miterlimit="10" points="279.21,228.995 295.566,254.541 279.21,280.085 
						262.854,254.541 					"/>
				</g>
			</g>
		</g>
		<g>
			<circle fill="#450000" cx="278.778" cy="106.033" r="19.12"/>
			<circle fill="#450000" cx="298.25" cy="84.405" r="19.12"/>
			<circle fill="#450000" cx="323.249" cy="91.363" r="19.12"/>
			<path fill="#450000" d="M335.005,99.723l-7.065,31.013l11.815,12.892c12.472-8.221,15.204-20.812,7.483-40.59L335.005,99.723z"/>
			<polygon fill="#EFBFA9" points="299.683,143.765 300.193,203.142 336.063,178.899 340.554,130.735 			"/>
			<polygon fill="#450000" points="332.595,147.729 337.914,159.046 346.415,144.198 			"/>
			<path fill="#E89076" d="M299.682,161.417l23.104-7.522c-0.643,24.974-22.768,28.965-22.768,28.965L299.682,161.417z"/>
			<path fill="#450000" d="M293.54,100.116l-8.815,27.788l-11.601-1.833c0,0,1.406-17.279,12.104-30.396L293.54,100.116z"/>
			<path fill="#EFBFA9" d="M323.543,93.332l-8.931-0.26c-2.814-0.082-5.603,0.123-8.298,0.601c-1.135,0.187-2.271,0.424-3.376,0.712
				l-0.237,0.06l-2.211,0.661l-0.053,0.015c-12.599,4.118-23.187,14.436-27.248,27.64c-3.49,11.366-3.495,22.066-2.679,31.236
				c1.113,12.498,13.418,20.806,25.384,17.03l13.805-4.354c8.878-2.801,15.674-10,17.959-19.024l4.231-16.718l1.582-6.228
				l3.451-13.664C339.151,102.215,332.638,93.597,323.543,93.332z"/>
			<ellipse fill="none" stroke="#FFFFFF" stroke-miterlimit="10" cx="274.068" cy="130.844" rx="11.629" ry="12.892"/>
			<g>
				<ellipse transform="matrix(0.9954 0.0958 -0.0958 0.9954 14.1166 -26.3237)" cx="281.151" cy="133.825" rx="2.716" ry="5.955"/>
				<path fill="#EFBFA9" d="M301.014,129.126l-4.098,17.67c-1.209,5.214-6.644,8.254-11.718,6.557l-9.051-4.923
					c-2.558-1.392-4.056-4.158-3.822-7.062l0,0c0.177-2.2,1.99-3.907,4.197-3.938c3.438-0.051,8.387-1.534,11.383-8.741
					L301.014,129.126z"/>
				<g>
					<path fill="#E89076" d="M275.874,148.938c-2.755-1.498-4.374-4.487-4.123-7.615c0.203-2.512,2.251-4.434,4.765-4.471
						c3.383-0.05,8.014-1.544,10.857-8.385l1.065,0.442c-3.085,7.421-8.178,9.043-11.906,9.097c-1.915,0.028-3.477,1.493-3.63,3.408
						c-0.216,2.674,1.168,5.229,3.522,6.508l5.982,3.255l-0.552,1.015L275.874,148.938z"/>
				</g>
				<ellipse transform="matrix(0.9954 0.0958 -0.0958 0.9954 14.4915 -28.2138)" cx="301.018" cy="136.784" rx="2.716" ry="5.956"/>
				<path fill="#450000" d="M310.885,119.561c5.338,3.234,3.293,7.055-4.148,3.951C297.476,119.65,305.143,116.082,310.885,119.561z
					"/>
				<path fill="#450000" d="M284.627,115.372c4.855,0.058,6.468,3.711,0.662,4.653C278.066,121.198,279.405,115.312,284.627,115.372
					z"/>
				<path fill="#FFFFFF" d="M293.17,162.156c3.888-0.838,5.395-8.575,5.395-8.575l-13.395,1.034
					C285.17,154.615,288.946,163.066,293.17,162.156z"/>
			</g>
			<ellipse fill="none" stroke="#FFFFFF" stroke-miterlimit="10" cx="303.497" cy="136.777" rx="11.629" ry="12.892"/>
			<line fill="none" stroke="#FFFFFF" stroke-miterlimit="10" x1="328.12" y1="130.685" x2="315.108" y2="134.368"/>
			<path fill="#450000" d="M351.552,130.844c-27.744,1.654-40.975-21.056-33.947-37.657
				C362.736,86.139,363.234,107.245,351.552,130.844z"/>
			<path fill="#EFBFA9" d="M328.522,151.848c40.949,3.179,26.478-57.437-1.383-19.157L328.522,151.848z"/>
			<polygon fill="#450000" points="339.755,111.215 329.611,142.128 326.916,140.329 327.435,108.177 			"/>
			<path fill="#450000" d="M283.333,98.173c0,0,20.293,7.212,42.566-1.513C290.729,80.364,283.333,98.173,283.333,98.173z"/>
			<path fill="#450000" d="M354.698,111.85c6.931,6.528,18.325-12.14,3.272-10.105c8.582-7.329-3.918-12.754-3.918-1.436"/>
		</g>
		<path fill="#FFFFFF" d="M347.63,177.479l-10.268-13.208c-18.67,7.672-43.382,13.238-38.549,39.503l0,0L347.63,177.479z"/>
		<g>
			<path fill="#5B8BBA" d="M388.577,302.007l-30.009-1.767c-9.702-19.484,8.443-25.01,28.163-21.197L388.577,302.007z"/>
			<path fill="#5B8BBA" d="M404.08,283.561c31.701,8.558,40.31,65.672-12.943,51.902L404.08,283.561z"/>
		</g>
		<path fill="#5B8BBA" d="M344.207,212.182c-2.977-9.515,0.782-19.845,9.177-25.221l0,0c9.736-6.235,22.632-3.923,29.596,5.307
			c29.824,39.522,43.144,88.516,37.473,133.439l-31.705-4.666L344.207,212.182z"/>
		<g>
			<g>
				<path fill="#E5EBEA" d="M231.237,256.236h3.108l65.283,63.587c0.987,0.961,2.396,1.354,3.738,1.041l32.742-7.635
					c1.378-0.32,1.941-1.974,1.047-3.069l-51.059-62.52c-0.887-1.085-2.271-1.635-3.66-1.45l-47.529,6.275
					c-0.506,0.067-0.902,0.321-1.188,0.658l-0.009-0.017L231.237,256.236L231.237,256.236z"/>
				<path fill="#FFFFFF" d="M333.687,316.289l-32.742,7.635c-1.343,0.313-2.752-0.079-3.738-1.041l-65.803-64.093
					c-1.145-1.115-0.499-3.055,1.083-3.264l47.529-6.277c1.39-0.183,2.774,0.366,3.66,1.451l51.058,62.521
					C335.628,314.315,335.064,315.969,333.687,316.289z"/>
				<path fill="#E5EBEA" d="M273.426,274.182c3.971-0.085,9.424,3.563,12.179,8.15c2.756,4.588,1.77,8.376-2.201,8.462
					c-3.972,0.085-9.425-3.563-12.18-8.15C268.469,278.056,269.455,274.268,273.426,274.182z"/>
				<path fill="#E5EBEA" d="M278.833,253.929c0.927-0.021,2.2,0.832,2.844,1.902c0.645,1.073,0.413,1.957-0.514,1.978
					c-0.928,0.02-2.201-0.832-2.846-1.903C277.675,254.833,277.906,253.949,278.833,253.929z"/>
			</g>
			<g>
				<polygon fill="#EFBFA9" points="315.978,308.864 311.27,290.267 255.729,286.083 298.969,315.594 				"/>
				<path fill="#EFBFA9" d="M302.834,288.903L302.834,288.903c-0.201-2.954,1.356-5.75,3.975-7.134l0,0
					c3.904-2.063,8.736-0.321,10.427,3.758l0.275,0.665c0.894,2.155-0.488,4.574-2.798,4.9l-7.819,1.104
					C304.842,292.485,302.975,290.971,302.834,288.903z"/>
				<path fill="#EFBFA9" d="M288.843,291.454l-26.981-12.358c-0.98-3.546-3.636-6.376-7.114-7.583l-0.204-0.073l-2.021-0.695
					c-0.459-0.113-0.901-0.19-1.346-0.201c-2.667-0.06-5.085,1.767-5.694,4.473c-0.019,0.102-0.038,0.204-0.041,0.307
					c-0.015,0.65,0.399,1.258,1.045,1.478c4.023,1.322,7.256,4.354,8.843,8.289l0.404,1.001l33.989,5.764L288.843,291.454z"/>
				<path fill="#E89076" d="M264.794,286.287l-2.935-7.19c-0.979-3.545-3.635-6.376-7.113-7.583l-0.204-0.073
					c-1.877,0.573-3.418,2.129-3.875,4.205c-0.021,0.103-0.039,0.204-0.041,0.307c-0.015,0.65,0.398,1.258,1.044,1.479
					c4.024,1.321,7.743,3.873,9.931,10.502l15.498,5.349L264.794,286.287z"/>
				<path fill="#EFBFA9" d="M298.792,292.061l-27.859-12.752l0,0c-0.987-3.544-3.648-6.379-7.124-7.59l-2.224-0.774
					c-3.135-0.827-6.331,1.115-7.039,4.279l0,0c-0.171,0.764,0.265,1.533,1.009,1.778l0,0c4.022,1.328,7.255,4.36,8.838,8.289
					l0.401,0.997L298.792,292.061z"/>
			</g>
			<path fill="#EFBFA9" d="M397.088,298.047l2.479,1.672c15.782,10.633,9.132,35.196-9.855,36.46
				c-43.905,2.92-90.743-20.583-90.743-20.583l10.625-15.378l68.507-6.938C384.793,292.602,391.51,294.289,397.088,298.047z"/>
		</g>
		<polygon fill="#FFFFFF" points="388.127,356.345 311.234,356.354 315.531,384 394.122,373.102 		"/>
		<polygon fill="#FFFFFF" points="277.678,356.354 271.685,373.102 300.16,384 305.142,356.354 		"/>
	</g>
	<g display="none">
		<g display="inline">
			<g>
				<path fill="#D38700" d="M34.619,429.331c-4.987,0-9.25,3.345-10.928,8.042c-0.499,1.392-0.775,2.897-0.775,4.476v15.924
					c0,1.491,0.243,2.918,0.694,4.236c1.617,4.828,5.936,8.278,11.009,8.278h208.236v-40.956H34.619z"/>
				<path fill="#FFB72F" d="M23.692,437.373c-0.499,1.392-0.775,2.897-0.775,4.476v15.924c0,1.491,0.243,2.918,0.694,4.236h117.832
					v-24.636H23.692z"/>
				<circle fill="#C43F00" cx="104.545" cy="449.69" r="9.085"/>
				<path fill="#FFB72F" d="M128.39,446.36v6.903c0,9.404,7.624,17.026,17.028,17.026h94.049v-40.959h-94.049
					C136.014,429.331,128.39,436.955,128.39,446.36z"/>
				<path fill="#D38700" d="M248.025,432.4L248.025,432.4c0,1.694-1.284,3.068-2.868,3.068h-17.951v-6.138h17.951
					C246.74,429.331,248.024,430.705,248.025,432.4z"/>
				<path fill="#D38700" d="M248.025,466.701v1.034c0,1.408-1.142,2.551-2.551,2.551h-18.269v-6.136h18.269
					C246.882,464.15,248.024,465.293,248.025,466.701z"/>
				<g>
					<path fill="#E9EEEC" d="M135.755,447.394v4.833c0,6.585,5.338,11.923,11.922,11.923h95.18v-28.679h-95.18
						C141.093,435.471,135.755,440.809,135.755,447.394z"/>
					<path fill="#FFFFFF" d="M140.464,448.883v8.796c0,3.575,2.898,6.472,6.472,6.472h95.92v-24.911h-92.747
						C144.782,439.239,140.465,443.556,140.464,448.883z"/>
					<g>
						<g>
							<defs>
								<path id="SVGID_3_" d="M140.465,445.488v14.27c0,2.426,1.968,4.393,4.394,4.393h97.998v-24.911h-96.142
									C143.263,439.239,140.465,442.038,140.465,445.488z"/>
							</defs>
							<clipPath id="SVGID_4_">
								<use xlink:href="#SVGID_3_"  overflow="visible"/>
							</clipPath>
							<g clip-path="url(#SVGID_4_)">
								<line fill="none" stroke="#F1F4F6" stroke-miterlimit="10" x1="242.856" y1="444.395" x2="139.624" y2="444.395"/>
								<line fill="none" stroke="#F1F4F6" stroke-miterlimit="10" x1="242.856" y1="449.467" x2="136.108" y2="449.467"/>
								<line fill="none" stroke="#F1F4F6" stroke-miterlimit="10" x1="242.856" y1="454.538" x2="136.108" y2="454.538"/>
								<line fill="none" stroke="#F1F4F6" stroke-miterlimit="10" x1="242.856" y1="459.609" x2="136.108" y2="459.609"/>
							</g>
						</g>
					</g>
				</g>
			</g>
			<path fill="#EAA105" d="M31.317,462.008c1.629,4.832,5.939,8.274,11.012,8.274h10.503h1.094h10.502
				c-5.072,0-9.383-3.442-11.012-8.274H42.913H41.82H31.317z"/>
			<path fill="#EAA105" d="M31.401,437.37h10.502h1.094h10.503c1.691-4.699,5.939-8.04,10.928-8.04H53.925h-1.094H42.328
				C37.339,429.33,33.091,432.67,31.401,437.37z"/>
			<path fill="#FFC364" d="M30.628,441.846v15.922c0,1.491,0.24,2.918,0.688,4.24H41.82h1.094h10.502
				c-0.448-1.322-0.688-2.749-0.688-4.24v-15.922c0-1.577,0.271-3.087,0.771-4.477H42.996h-1.094H31.401
				C30.9,438.759,30.628,440.269,30.628,441.846z"/>
			<g>
				<polyline fill="#DEE5E3" points="153.769,444.334 153.769,462.008 159.62,458.431 165.473,462.008 165.473,444.334 				"/>
				<polygon fill="#248EC9" points="165.473,444.334 153.769,444.334 158.157,458.431 163.226,454.854 169.862,458.431 				"/>
			</g>
		</g>
		<g display="inline">
			<g>
				<path fill="#932A00" d="M44.377,399.749h177.559c4.251,0,7.888,2.423,9.318,5.828c0.425,1.008,0.66,2.098,0.66,3.243v11.54
					c0,1.081-0.207,2.114-0.592,3.07c-1.378,3.499-5.062,6-9.388,6H44.377V399.749L44.377,399.749z"/>
				<path fill="#C43F00" d="M130.851,405.577h100.403c0.425,1.008,0.66,2.098,0.66,3.243v11.54c0,1.081-0.207,2.114-0.592,3.07
					H130.851V405.577L130.851,405.577z"/>
				<path fill="#FFB72F" d="M154.63,414.999v-0.992c0-1.352,1.097-2.448,2.449-2.448h62.482c1.353,0,2.449,1.096,2.449,2.448v0.992
					c0,1.353-1.096,2.449-2.449,2.449h-62.482C155.727,417.448,154.63,416.351,154.63,414.999z"/>
				<path fill="#C43F00" d="M141.981,412.089v5.002c0,6.817-5.526,12.342-12.342,12.342H47.267v-29.685h82.372
					C136.454,399.748,141.98,405.273,141.981,412.089z"/>
				<path fill="#FFB72F" d="M39.97,401.971L39.97,401.971c0,1.229,1.096,2.224,2.446,2.224h15.307v-4.447H42.416
					C41.066,399.748,39.97,400.743,39.97,401.971z"/>
				<path fill="#FFB72F" d="M39.969,426.83v0.749c0,1.021,0.828,1.85,1.85,1.85h15.903v-4.447H41.819
					C40.798,424.981,39.97,425.809,39.969,426.83z"/>
				<g>
					<path fill="#E9EEEC" d="M44.378,404.201h80.926c2.87,0,5.474,1.159,7.351,3.046c1.877,1.877,3.046,4.472,3.046,7.34
						c0,3.96-2.22,7.409-5.483,9.158c-1.464,0.786-3.134,1.238-4.912,1.238H44.378V404.201L44.378,404.201z"/>
					<path fill="#FFFFFF" d="M44.378,406.933h75.356c6.602,0,11.947,5.345,11.947,11.947v1.505c0,1.326-0.561,2.524-1.465,3.359
						c-1.464,0.786-3.134,1.238-4.912,1.238H44.378V406.933L44.378,406.933z"/>
					<g>
						<g>
							<defs>
								<path id="SVGID_5_" d="M131.683,417.956V421c0,2.198-1.782,3.981-3.982,3.981H44.377v-18.053h76.279
									C126.746,406.928,131.683,411.866,131.683,417.956z"/>
							</defs>
							<clipPath id="SVGID_6_">
								<use xlink:href="#SVGID_5_"  overflow="visible"/>
							</clipPath>
							<g clip-path="url(#SVGID_6_)">
								<line fill="none" stroke="#F1F4F6" stroke-miterlimit="10" x1="44.377" y1="410.666" x2="132.401" y2="410.666"/>
								<line fill="none" stroke="#F1F4F6" stroke-miterlimit="10" x1="44.377" y1="414.34" x2="135.4" y2="414.34"/>
								<line fill="none" stroke="#F1F4F6" stroke-miterlimit="10" x1="44.377" y1="418.015" x2="135.4" y2="418.015"/>
								<line fill="none" stroke="#F1F4F6" stroke-miterlimit="10" x1="44.377" y1="421.69" x2="135.4" y2="421.69"/>
							</g>
						</g>
					</g>
				</g>
			</g>
		</g>
		<g display="inline">
			<g>
				<path fill="#11568E" d="M33.894,359.021h195.359c5.62,0,10.719,2.278,14.404,5.965c0.708,0.707,1.356,1.464,1.956,2.26
					c2.515,3.391,4.009,7.585,4.009,12.135c0,4.54-1.493,8.745-4.009,12.136c-3.705,4.991-9.659,8.233-16.36,8.233H33.894V359.021
					L33.894,359.021z"/>
				<path fill="#166BA5" d="M123.861,367.246h121.753c2.515,3.391,4.009,7.585,4.009,12.135c0,4.54-1.493,8.745-4.009,12.136
					H123.861V367.246L123.861,367.246z"/>
				<path fill="#166BA5" d="M155.642,375.949v6.865c0,9.352-7.58,16.933-16.934,16.933H37.505v-40.729h101.203
					C148.061,359.017,155.642,366.598,155.642,375.949z"/>
				<path fill="#11568E" d="M28.404,362.068L28.404,362.068c0,1.685,1.366,3.051,3.051,3.051h19.092v-6.102H31.454
					C29.77,359.017,28.404,360.382,28.404,362.068z"/>
				<path fill="#11568E" d="M28.404,396.179v1.027c0,1.401,1.136,2.537,2.537,2.537h19.604v-6.102H30.941
					C29.539,393.642,28.404,394.778,28.404,396.179z"/>
				<g>
					<path fill="#F2F5F4" d="M33.904,365.123h99.645c3.94,0,7.508,1.604,10.082,4.177c2.584,2.584,4.176,6.15,4.176,10.081
						c0,0.413-0.02,0.815-0.049,1.209c-0.619,7.312-6.741,13.05-14.209,13.05H33.904V365.123L33.904,365.123z"/>
					<path fill="#FFFFFF" d="M33.904,369.74h101.955c3.302,0,6.288,1.337,8.449,3.498c1.916,1.926,3.184,4.492,3.449,7.351
						c-0.619,7.312-6.741,13.05-14.209,13.05H33.904V369.74L33.904,369.74z"/>
					<g>
						<g>
							<defs>
								<path id="SVGID_7_" d="M147.81,376.98v1.725c0,8.25-6.688,14.938-14.938,14.938H33.901v-28.521h102.053
									C142.501,365.123,147.808,370.431,147.81,376.98z"/>
							</defs>
							<clipPath id="SVGID_8_">
								<use xlink:href="#SVGID_7_"  overflow="visible"/>
							</clipPath>
							<g clip-path="url(#SVGID_8_)">
								<line fill="none" stroke="#F1F4F6" stroke-miterlimit="10" x1="33.901" y1="372.09" x2="143.694" y2="372.09"/>
								<line fill="none" stroke="#F1F4F6" stroke-miterlimit="10" x1="33.901" y1="377.769" x2="147.433" y2="377.769"/>
								<line fill="none" stroke="#F1F4F6" stroke-miterlimit="10" x1="33.901" y1="383.448" x2="147.433" y2="383.448"/>
								<line fill="none" stroke="#F1F4F6" stroke-miterlimit="10" x1="33.901" y1="389.125" x2="147.433" y2="389.125"/>
							</g>
						</g>
					</g>
					<polyline fill="#DEE5E3" points="128.187,372.09 128.187,391.512 121.756,387.583 115.325,391.512 115.325,372.09 					"/>
					<polygon fill="#C43F00" points="115.325,372.09 128.187,372.09 123.364,387.583 117.795,383.653 110.503,387.583 					"/>
				</g>
				<line fill="none" x1="114.304" y1="370.879" x2="126.325" y2="370.879"/>
			</g>
			<path fill="#EAA105" d="M213.934,391.516c2.516-3.391,4.01-7.596,4.01-12.136c0-4.55-1.494-8.744-4.01-12.135
				c-0.6-0.796-1.248-1.553-1.956-2.26c-3.684-3.687-8.783-5.965-14.403-5.965h22.413c5.619,0,10.719,2.278,14.403,5.965
				c0.708,0.707,1.356,1.464,1.955,2.26c2.517,3.391,4.01,7.585,4.01,12.135c0,4.54-1.493,8.745-4.01,12.136
				c-3.704,4.991-9.658,8.233-16.358,8.233h-22.413C204.275,399.75,210.229,396.507,213.934,391.516z"/>
			<path fill="#FFB72F" d="M198.919,391.516c2.516-3.391,4.009-7.596,4.009-12.136c0-4.55-1.493-8.744-4.009-12.135
				c-0.6-0.796-1.247-1.553-1.955-2.26c-3.684-3.687-8.784-5.965-14.404-5.965h9.669c5.621,0,10.72,2.278,14.404,5.965
				c0.707,0.707,1.355,1.464,1.955,2.26c2.516,3.391,4.009,7.585,4.009,12.135c0,4.54-1.493,8.745-4.009,12.136
				c-3.704,4.991-9.659,8.233-16.359,8.233h-9.669C189.262,399.75,195.216,396.507,198.919,391.516z"/>
			<path fill="#FFB72F" d="M213.934,367.245h22.412c2.517,3.391,4.01,7.585,4.01,12.135c0,4.54-1.493,8.745-4.01,12.136h-22.412
				c2.516-3.391,4.01-7.596,4.01-12.136C217.944,374.831,216.449,370.635,213.934,367.245z"/>
			<path fill="#FFB72F" d="M198.92,367.245h9.669c2.516,3.391,4.009,7.585,4.009,12.135c0,4.54-1.493,8.745-4.009,12.136h-9.669
				c2.516-3.391,4.009-7.596,4.009-12.136C202.929,374.831,201.435,370.635,198.92,367.245z"/>
			<path fill="#EAA105" d="M158.594,391.516c2.517-3.391,4.01-7.596,4.01-12.136c0-4.55-1.493-8.744-4.01-12.135
				c-0.6-0.796-1.248-1.553-1.956-2.26c-3.684-3.687-8.783-5.965-14.403-5.965h9.669c5.62,0,10.719,2.278,14.404,5.965
				c0.707,0.707,1.355,1.464,1.954,2.26c2.517,3.391,4.011,7.585,4.011,12.135c0,4.54-1.494,8.745-4.011,12.136
				c-3.704,4.991-9.657,8.233-16.358,8.233h-9.669C148.936,399.75,154.89,396.507,158.594,391.516z"/>
			<path fill="#FFB72F" d="M158.594,367.245h9.668c2.517,3.391,4.011,7.585,4.011,12.135c0,4.54-1.494,8.745-4.011,12.136h-9.668
				c2.517-3.391,4.01-7.596,4.01-12.136C162.604,374.831,161.111,370.635,158.594,367.245z"/>
		</g>
	</g>
	<path fill="#EEF8FF" d="M182.932,257.658L182.932,257.658c0-5.151-4.176-9.326-9.325-9.326H91.364c-5.15,0-9.326,4.177-9.326,9.326
		l0,0c0,5.15,4.176,9.326,9.326,9.326h82.243C178.757,266.984,182.933,262.808,182.932,257.658z"/>
	<g>
		<path fill="#EEF8FF" d="M182.934,345.346v-60.354c0-5.708-4.629-10.336-10.338-10.336H90.978c-5.709,0-10.338,4.628-10.338,10.336
			v60.354c0,5.708,4.629,10.336,10.338,10.336h81.618C178.305,355.682,182.933,351.054,182.934,345.346z"/>
		<g>
			<path fill="#FFFFFF" stroke="#F1F1F3" stroke-miterlimit="10" d="M167.964,339.672v-60.354c0-5.708-4.628-10.336-10.337-10.336
				H76.008c-5.709,0-10.336,4.628-10.336,10.336v60.354c0,5.709,4.627,10.336,10.336,10.336h81.619
				C163.336,350.008,167.964,345.381,167.964,339.672z"/>
			<g>
				<path fill="#FFFFFF" stroke="#F1F1F3" stroke-miterlimit="10" d="M167.964,251.984L167.964,251.984
					c0-5.15-4.176-9.326-9.326-9.326H76.396c-5.15,0-9.326,4.176-9.326,9.326l0,0c0,5.151,4.176,9.326,9.326,9.326h82.242
					C163.788,261.31,167.964,257.135,167.964,251.984z"/>
				<circle fill="#D57548" cx="156.365" cy="251.984" r="4.176"/>
				<circle fill="#FFB72F" cx="139.726" cy="251.984" r="4.175"/>
				<circle fill="#5B8BBA" cx="123.087" cy="251.984" r="4.175"/>
			</g>
			<g>
				
					<line fill="none" stroke="#EEF8FF" stroke-width="5" stroke-linecap="round" stroke-linejoin="round" stroke-miterlimit="10" x1="79.371" y1="285.332" x2="155.661" y2="285.332"/>
				
					<line fill="none" stroke="#EEF8FF" stroke-width="5" stroke-linecap="round" stroke-linejoin="round" stroke-miterlimit="10" x1="112.879" y1="294.588" x2="155.661" y2="294.588"/>
			</g>
		</g>
		<g>
			
				<rect x="141.337" y="327.246" fill="none" stroke="#FFB72F" stroke-width="3" stroke-miterlimit="10" width="11.993" height="11.992"/>
			<polygon fill="none" stroke="#5B8BBA" stroke-width="3" stroke-linejoin="round" stroke-miterlimit="10" points="80.893,339.238 
				153.33,304.068 153.33,339.238 			"/>
		</g>
	</g>
	<g display="none">
		<g display="inline">
			<g>
				<g>
					<path fill="none" stroke="#EAA105" stroke-miterlimit="10" d="M195.25,155.691c-0.659-0.026-1.327-0.034-2.005-0.022"/>
					<path fill="none" stroke="#EAA105" stroke-miterlimit="10" stroke-dasharray="4.1538,2.0769" d="M221.192,207.831
						c11.73-17.492,1.506-49.323-23.866-51.989"/>
					<path fill="none" stroke="#EAA105" stroke-miterlimit="10" d="M219.362,210.233c0.436-0.506,0.851-1.028,1.243-1.565"/>
				</g>
			</g>
			<circle fill="#EAA105" cx="219.479" cy="210.21" r="5.68"/>
		</g>
		<g display="inline">
			<path fill="none" stroke="#CAE7FF" stroke-miterlimit="10" d="M21.305,242.536c-11.464,20.27,7.39,54.713,36.323,48.373"/>
			<circle fill="#CAE7FF" cx="21.194" cy="242.582" r="5.68"/>
		</g>
		<g display="inline">
			<g>
				<g>
					<path fill="none" stroke="#CAE7FF" stroke-miterlimit="10" d="M113.125,107.583c0.167,0.639,0.356,1.279,0.566,1.923"/>
					<path fill="none" stroke="#CAE7FF" stroke-miterlimit="10" stroke-dasharray="4.1538,2.0769" d="M155.365,67.492
						c-20.162-6.084-47.598,13.024-42.704,38.063"/>
					<path fill="none" stroke="#CAE7FF" stroke-miterlimit="10" d="M158.198,68.537c-0.611-0.269-1.232-0.512-1.861-0.729"/>
				</g>
			</g>
			<circle fill="#CAE7FF" cx="158.141" cy="68.432" r="5.68"/>
		</g>
	</g>
	<g>
		<g>
			
				<line fill="none" stroke="#EEF8FF" stroke-width="5" stroke-linecap="round" stroke-linejoin="round" stroke-miterlimit="10" x1="394.483" y1="112.556" x2="416.297" y2="112.556"/>
			
				<line fill="none" stroke="#EEF8FF" stroke-width="5" stroke-linecap="round" stroke-linejoin="round" stroke-miterlimit="10" x1="404.125" y1="123.738" x2="416.297" y2="123.738"/>
		</g>
		<g>
			
				<line fill="none" stroke="#EEF8FF" stroke-width="5" stroke-linecap="round" stroke-linejoin="round" stroke-miterlimit="10" x1="146.621" y1="105.978" x2="221.663" y2="105.978"/>
			
				<line fill="none" stroke="#EEF8FF" stroke-width="5" stroke-linecap="round" stroke-linejoin="round" stroke-miterlimit="10" x1="194.521" y1="116.76" x2="221.663" y2="116.76"/>
		</g>
		<g>
			
				<line fill="none" stroke="#EEF8FF" stroke-width="5" stroke-linecap="round" stroke-linejoin="round" stroke-miterlimit="10" x1="18.911" y1="317.156" x2="41.661" y2="317.156"/>
			
				<line fill="none" stroke="#EEF8FF" stroke-width="5" stroke-linecap="round" stroke-linejoin="round" stroke-miterlimit="10" x1="49.276" y1="317.156" x2="52.289" y2="317.156"/>
			
				<line fill="none" stroke="#EEF8FF" stroke-width="5" stroke-linecap="round" stroke-linejoin="round" stroke-miterlimit="10" x1="18.911" y1="326.151" x2="30.695" y2="326.151"/>
		</g>
	</g>
	<g display="none">
		<path display="inline" fill="#CAE7FF" d="M217.502,28.887h-11.46c-16.154,0-29.251,13.096-29.251,29.251l0,0
			c0,16.154,13.097,29.251,29.251,29.251h53.429l-12.717-15.157V58.138C246.754,41.983,233.658,28.887,217.502,28.887z"/>
		<g display="inline">
			<circle fill="#EEF8FF" cx="229.411" cy="64.704" r="5.199"/>
			<circle fill="#EEF8FF" cx="211.74" cy="64.704" r="5.198"/>
			<circle fill="#EEF8FF" cx="194.07" cy="64.704" r="5.199"/>
		</g>
	</g>
	<g display="none">
		<g display="inline">
			<circle fill="#CAE7FF" cx="265.505" cy="435.769" r="8.564"/>
			<circle fill="#CAE7FF" cx="66.14" cy="95.381" r="5.591"/>
			<circle fill="#CAE7FF" cx="457.778" cy="107.547" r="7.825"/>
			<circle fill="#CAE7FF" cx="411.398" cy="430.573" r="4.899"/>
		</g>
		<g display="inline">
			<circle fill="#92D8FF" cx="329.247" cy="417.85" r="3.348"/>
			<circle fill="#92D8FF" cx="276.933" cy="47.611" r="3.354"/>
			<circle fill="#92D8FF" cx="94.346" cy="77.478" r="3.365"/>
			<circle fill="#92D8FF" cx="481.136" cy="247.742" r="5.206"/>
			<circle fill="#92D8FF" cx="12.614" cy="340.494" r="2.898"/>
		</g>
		<g display="inline">
			<circle fill="#CAE7FF" cx="389.225" cy="44.257" r="11.275"/>
			<circle fill="#CAE7FF" cx="398.936" cy="76.114" r="11.275"/>
			<circle fill="#CAE7FF" cx="357.229" cy="62.24" r="11.275"/>
			
				<line fill="none" stroke="#CAE7FF" stroke-width="5" stroke-linecap="round" stroke-linejoin="round" stroke-miterlimit="10" x1="389.225" y1="44.257" x2="398.936" y2="76.114"/>
			
				<line fill="none" stroke="#CAE7FF" stroke-width="5" stroke-linecap="round" stroke-linejoin="round" stroke-miterlimit="10" x1="387.662" y1="44.257" x2="357.229" y2="62.24"/>
			
				<line fill="none" stroke="#CAE7FF" stroke-width="5" stroke-linecap="round" stroke-linejoin="round" stroke-miterlimit="10" x1="357.229" y1="62.24" x2="398.936" y2="76.114"/>
		</g>
	</g>
</g>
</svg>
