<?xml version="1.0" encoding="utf-8"?>
<!-- Generator: Adobe Illustrator 16.0.0, SVG Export Plug-In . SVG Version: 6.00 Build 0)  -->
<!DOCTYPE svg PUBLIC "-//W3C//DTD SVG 1.1//EN" "http://www.w3.org/Graphics/SVG/1.1/DTD/svg11.dtd">
<svg version="1.1" xmlns="http://www.w3.org/2000/svg" xmlns:xlink="http://www.w3.org/1999/xlink" x="0px" y="0px" width="145px"
	 height="148px" viewBox="0 0 145 148" enable-background="new 0 0 145 148" xml:space="preserve">
<g id="BACKGROUND">
</g>
<g id="OBJECTS">
	<g id="XMLID_5_">
		<g id="XMLID_519_">
			<path id="XMLID_599_" fill="#D9F0FF" d="M133.041,40.529c-2.852-4.648-6.875-8.484-11.733-11.367
				c-14.768-8.76-34.582-9.449-49.272-0.148c-13.651,8.643-22.505,24.191-37.418,30.41c-7.148,2.98-15.473,3.701-21.374,8.719
				c-8.727,7.42-8.47,21.242-4.171,31.859c8.489,20.973,30.066,35.568,52.642,37.078c22.576,1.51,45.274-9.469,59.312-27.215
				c12.644-15.984,21.042-40.807,15.566-61.078C135.788,45.811,134.586,43.051,133.041,40.529z"/>
			<ellipse id="XMLID_598_" fill="#549EC6" cx="63.668" cy="135.822" rx="57.562" ry="5.193"/>
			<g id="XMLID_520_">
				<g id="XMLID_524_">
					<g id="XMLID_593_">
						<g id="XMLID_595_">
							<path id="XMLID_597_" fill="#59442C" d="M104.447,134.533c0,1.947-10.931,3.527-24.415,3.527s-24.415-1.58-24.415-3.527
								c0-0.197,0.119-0.428,0.341-0.658c1.837-1.955,10.812-4.936,21.862-5.32c0.358-0.008,0.717-0.016,1.076-0.025
								c0.418-0.008,0.837-0.008,1.255-0.008c0.419,0,0.837,0,1.256,0.008c11.537,0.215,20.871,3.33,22.698,5.346
								C104.336,134.115,104.447,134.336,104.447,134.533z"/>
							<path id="XMLID_596_" fill="#2F1A10" d="M104.105,133.875c-1.947,1.35-11.981,2.383-24.073,2.383
								c-12.093,0-22.127-1.033-24.074-2.383c1.837-1.955,10.812-4.936,21.862-5.32c0.358-0.008,0.717-0.016,1.076-0.025
								c0.418-0.008,0.837-0.008,1.255-0.008c0.419,0,0.837,0,1.256,0.008C92.944,128.744,102.278,131.859,104.105,133.875z"/>
						</g>
						<rect id="XMLID_594_" x="74.708" y="111.855" fill="#2F1A10" width="10.648" height="18.611"/>
					</g>
					<g id="XMLID_590_">
						<path id="XMLID_592_" fill="#30578E" d="M109.71,43.885c1.881,0.352,21.54,3.461,17.428,31.348
							c-3.733,25.316-27.34,41.621-54.323,42.23c-32.209,0.727-46.146-18.717-38.769-34.82c7.379-16.104,30.999-12.025,35.827-18.98
							S80.183,38.373,109.71,43.885z"/>
						<path id="XMLID_591_" fill="#23416D" d="M94.425,46.852c0,0,23.702-3.582,25.65,9.5c1.947,13.082-5.813,32.66-17.214,35.045
							c-11.4,2.387-12.68,7.814-15.775,12.906c-3.095,5.09-21.251,17.789-40.773,4.865c-19.521-12.924-8.921-35.334,4.535-36.092
							C67.918,72.115,74.625,62.867,94.425,46.852z"/>
					</g>
					<g id="XMLID_525_">
						<g id="XMLID_584_">
							<path id="XMLID_589_" fill="#896867" d="M71.103,63.709c0,0-6.083-5.848-1.434-12.303l7.542,2.846L71.103,63.709z"/>
							<g id="XMLID_586_">
								<path id="XMLID_588_" fill="#FF917B" d="M93.623,41.996l-1.127,12.135c0,0-7.95,2.596-15.61,4.877
									c-2.118,0.641-4.219,1.246-6.115,1.768c-0.521,0.145-1.033,0.281-1.52,0.418c-2.477,0.658-4.475,1.119-5.517,1.213
									c-4.688,0.428-4.919-20.965-4.919-20.965l5.175,1.639c0,0,0.905,8.455,2.775,9.053c0.393,0.129,1.452-0.17,2.903-0.727
									c1.324-0.494,2.964-1.211,4.74-2.014c5.645-2.545,12.604-6.004,14.56-6.508C92.214,42.057,93.623,41.996,93.623,41.996z"/>
								<path id="XMLID_587_" fill="#F47567" d="M76.886,59.008c-2.118,0.641-4.219,1.246-6.115,1.768
									c-0.521,0.145-1.033,0.281-1.52,0.418c1.102-4.115,0.418-9.787,0.418-9.787c1.324-0.494,2.964-1.211,4.74-2.014
									c1.674,1.211,3.433,2.449,3.646,2.535C78.277,52.014,77.568,55.703,76.886,59.008z"/>
							</g>
							<path id="XMLID_585_" fill="#AF9590" d="M93.623,41.996l-1.127,12.135c0,0-12.632,7.16-21.394,9.578
								c1.926-3.672,0.604-10.029-1.434-12.303c5.509-2.092,16.729-7.863,19.3-8.521C92.214,42.057,93.623,41.996,93.623,41.996z"/>
						</g>
						<g id="XMLID_563_">
							<path id="XMLID_583_" fill="#E07127" d="M72.709,70.725c0,0-14.762-11.697-20.177-11.285
								c-5.758,0.436-7.964,4.727-6.81,8.768c1.154,4.039,5.628,11.543,5.628,11.543l25.86,6.35V73.973L72.709,70.725z"/>
							<g id="XMLID_574_">
								<g id="XMLID_576_">
									<g id="XMLID_580_">
										<path id="XMLID_582_" fill="#2F1A10" d="M43.614,137.359c-0.025,1.094-0.188,1.947-0.615,2.162
											c-1.4,0.717-22.801-4.254-23.663-6.252c-0.214-0.504,0.35-1.033,1.383-1.545c3.083-1.537,10.334-2.938,13.322-2.99
											c3.988-0.068,8.958,2.246,8.958,2.246S43.691,134.814,43.614,137.359z"/>
										<path id="XMLID_581_" fill="#5B432C" d="M43.614,137.359c-0.025,1.094-0.188,1.947-0.615,2.162
											c-1.4,0.717-22.801-4.254-23.663-6.252c-0.214-0.504,0.35-1.033,1.383-1.545
											C24.264,133.943,31.573,137.266,43.614,137.359z"/>
									</g>
									<g id="XMLID_577_">
										<path id="XMLID_579_" fill="#FF917B" d="M46.313,120.912c0,0.266-0.717,2.459-1.485,4.74
											c-0.88,2.613-1.828,5.328-1.828,5.328c-3.697-0.195-6.771-0.871-8.958-2.246l1.102-3.826l2.255-7.881L46.313,120.912z"/>
										<path id="XMLID_578_" fill="#F47567" d="M46.313,120.912c0,0.266-0.717,2.459-1.485,4.74
											c-2.75,0.367-6.985,0.615-9.685-0.744l2.255-7.881L46.313,120.912z"/>
									</g>
								</g>
								<path id="XMLID_575_" fill="#F8932A" d="M96.433,87.846c0,0-8.734,12.84-15.567,10.992
									c-6.834-1.85-22.526-5.521-23.386-5.404c-0.86,0.115-10.667,31.518-10.667,31.518c-5.249,0.068-10.019-0.371-13.389-2.289
									c0,0,9.867-44.59,14.597-46.955S71.3,78.191,71.3,78.191s-1.475-3.623,1.409-7.467
									C75.594,66.881,96.433,87.846,96.433,87.846z"/>
							</g>
							<g id="XMLID_564_">
								<path id="XMLID_573_" fill="#E07127" d="M61.966,100.91c0,0,10.183,4.58,14.449-3.727l-7.835-6.643l-7.933,5.428
									L61.966,100.91z"/>
								<g id="XMLID_566_">
									<path id="XMLID_572_" fill="#FF917B" d="M76.416,99.342c-2.426,2.801-4.851,4.807-7.285,5.688l-3.279-4.51l-3.885-5.338
										l8.539-4.637c0.273,0.205,2.306,3.271,3.911,5.723C75.52,97.949,76.416,99.342,76.416,99.342z"/>
									<path id="XMLID_571_" fill="#F47567" d="M74.417,96.268c-1.537-0.24-6.601-0.625-8.565,4.252l-3.885-5.338l8.539-4.637
										C70.779,90.75,72.812,93.816,74.417,96.268z"/>
									<g id="XMLID_567_">
										<path id="XMLID_570_" fill="#2F1A10" d="M79.823,106.967c-6.166,4.996-19.795,4.877-21.375,3.383
											c-0.291-0.283-0.299-0.734-0.086-1.299c0.009,0,0.009,0,0.009,0c0.931-2.477,5.986-7.096,8.949-8.438
											c3.63-1.639,9.121-1.494,9.121-1.494s1.35,1.998,2.383,3.996c0.238,0.445,0.452,0.889,0.64,1.316
											C79.985,105.617,80.241,106.625,79.823,106.967z"/>
										<path id="XMLID_569_" fill="#5B432C" d="M79.823,106.967c-6.166,4.996-19.795,4.877-21.375,3.383
											c-0.291-0.283-0.299-0.734-0.086-1.299c0.009,0,0.009,0,0.009,0c4.561-2.332,14.5-6.908,20.453-5.936
											c0.238,0.445,0.452,0.889,0.64,1.316C79.985,105.617,80.241,106.625,79.823,106.967z"/>
										<path id="XMLID_568_" fill="#7C6A52" d="M79.464,104.432c0.521,1.186,0.777,2.193,0.359,2.535
											c-6.166,4.996-19.795,4.877-21.375,3.383C58.448,110.35,72.932,103.27,79.464,104.432z"/>
									</g>
								</g>
								<path id="XMLID_565_" fill="#F9AB4E" d="M45.551,63.891c-0.67,1.986-0.952,5.564-0.307,7.559
									c0.717,2.211,2.427,4.721,4.92,9.439c5.172,9.785,11.802,20.021,11.802,20.021c4.153-6.162,9.312-7.451,14.449-3.727
									c0,0-13.45-26.818-16.183-31.525c-2.732-4.709-6.689-6.311-8.197-6.215c-1.508,0.094-3.302,0.426-4.889,2.137
									C46.135,62.672,45.807,63.131,45.551,63.891z"/>
							</g>
						</g>
						<g id="XMLID_560_">
							<path id="XMLID_562_" fill="#FF917B" d="M116.236,58.605c-1.238,2.861-19.804,29.24-19.804,29.24L72.709,70.725
								c0,0,13.279-17.465,16.26-23.34s4.159-5.559,5.457-5.244c0.932,0.223,3.365,1.145,4.953,1.385
								c0.624,0.094,1.11,0.086,1.324-0.111c0.008,0,0.017-0.008,0.025-0.018c0.734-0.725,2.596-4.943,2.596-4.943l6.729-5.74
								l3.604,3.074c0,0-0.794,1.59-1.588,3.375c-0.896,2.014-1.793,4.285-1.546,4.789c0.068,0.137,0.248,0.342,0.495,0.59
								c1.443,1.418,5.397,4.355,6.149,5.979C118.047,52.424,117.475,55.754,116.236,58.605z"/>
							<path id="XMLID_561_" fill="#F47567" d="M113.657,35.787c0,0-0.794,1.59-1.588,3.375c-2.63,2.254-7.617,5.814-11.366,4.252
								c0.008,0,0.017-0.008,0.025-0.018c0.734-0.725,2.596-4.943,2.596-4.943l6.729-5.74L113.657,35.787z"/>
						</g>
						<path id="XMLID_559_" fill="#CCB3AB" d="M116.236,58.605c-1.238,2.861-19.804,29.24-19.804,29.24L72.709,70.725
							c0,0,13.279-17.465,16.26-23.34s4.159-5.559,5.457-5.244c0.932,0.223,3.365,1.145,4.953,1.385
							c-1.443,1.719-2.204,5.145-0.771,5.625c3.064,1.027,8.572-1.443,12.411-4.609c1.443,1.418,5.397,4.355,6.149,5.979
							C118.047,52.424,117.475,55.754,116.236,58.605z"/>
						<g id="XMLID_543_">
							<g id="XMLID_556_">
								<polygon id="XMLID_558_" fill="#F79427" points="84.844,43.164 83.956,43.525 63.668,41.352 64.768,31.088 65.763,30.084 
									86.013,32.254 								"/>
								
									<rect id="XMLID_557_" x="64.16" y="32.145" transform="matrix(0.9943 0.1065 -0.1065 0.9943 4.3978 -7.71)" fill="#E07127" width="20.404" height="10.322"/>
							</g>
							<g id="XMLID_547_">
								<path id="XMLID_555_" fill="#AF9590" d="M97.64,72.982c-1.985,0.951-8.663-5.441-2.607-14.744l7.136,4.174L97.64,72.982z"/>
								<g id="XMLID_552_">
									<path id="XMLID_554_" fill="#FF917B" d="M108.371,66.172c-1.503,0.744-3.578,1.709-5.892,2.666
										c-1.666,0.699-3.459,1.391-5.253,2.006c-0.614,0.213-1.229,0.418-1.836,0.605c-3.245,1.018-6.37,1.684-8.625,1.504
										c-5.619-0.436,0.111-26.721,0.111-26.721l5.576-1.785l0.061,14.902c0,0,1.007-0.436,2.519-1.111
										c1.153-0.52,2.596-1.178,4.099-1.887c2.818-1.324,5.859-2.844,7.618-3.979c3.937-2.529,6.908-2.178,6.908-2.178
										C121.976,52.398,114.094,63.354,108.371,66.172z"/>
									<path id="XMLID_553_" fill="#F47567" d="M103.606,56.727l-1.127,12.111c-1.666,0.699-3.459,1.391-5.253,2.006
										c-0.614,0.213-1.229,0.418-1.836,0.605c2.656-5.156-0.358-13.211-0.358-13.211c1.153-0.52,2.596-1.178,4.099-1.887
										L103.606,56.727z"/>
								</g>
								<path id="XMLID_551_" fill="#DBC6BD" d="M108.928,67.555c-3.155,2.258-7.001,3.959-11.288,5.428
									c2.073-6.846-0.805-12.82-2.607-14.744c3.313-1.484,9.019-4.123,11.717-5.865c3.937-2.529,6.908-2.178,6.908-2.178
									C121.976,52.398,114.114,63.844,108.928,67.555z"/>
								<g id="XMLID_548_">
									<path id="XMLID_550_" fill="#FF917B" d="M92.453,44.447c0,0-2.126,3.732-2.058,4.021c0,0-2.187-1.092-3.519-2.236
										c-1.341-1.145-1.409-4.766-1.409-4.766s-1.042-0.496-1.485-0.496c-0.444,0-2.613,0.939-3.023,0.531
										c-0.282-0.283,0.051-0.684,0.281-0.898c0.061-0.051,0.111-0.094,0.146-0.127c-0.077,0.043-0.29,0.137-0.521,0.102
										c-0.171-0.008-0.351-0.094-0.487-0.299c-0.409-0.588,1.631-2.459,2.331-2.629c0.701-0.18,3.45,0,3.45,0
										s-1.811-1.17-2.459-1.342c-0.641-0.18-3.834,0.273-3.792-0.521c0.043-0.742,3.074-1.195,4.091-1.51
										c0.896-0.283,3.074,0.844,3.604,1.127c-0.812-0.496-5.474-3.34-4.62-4.006c0.948-0.727,6.61,1.742,7.814,2.879
										C92.001,35.404,92.453,44.447,92.453,44.447z"/>
									<path id="XMLID_549_" fill="#F47567" d="M85.988,39.596c-1.818-0.785-3.321,0.027-4.748,1.008
										c0.061-0.051,0.111-0.094,0.146-0.127c-0.077,0.043-0.29,0.137-0.521,0.102c1.34-1.383,3.416-1.92,5.252-1.279
										C86.339,39.383,86.202,39.691,85.988,39.596z"/>
								</g>
							</g>
							<g id="XMLID_544_">
								<path id="XMLID_546_" fill="#FF917B" d="M69.609,33.311c-0.358,0.906-3.117-0.051-3.689,0.078
									c-0.572,0.127-2.579,0.896-2.579,0.896s5.73,0.393,5.475,1.555c-0.068,0.332-0.214,0.547-0.376,0.682
									c-0.248,0.197-0.547,0.215-0.743,0.197c0.103,0.035,0.223,0.094,0.291,0.205c0.067,0.094,0.102,0.238,0.067,0.436
									c-0.128,0.666-3.057,1.016-3.057,1.016s0.666,1.453-0.393,3.826c-1.085,2.426-4.006,1.367-4.006,1.367l-1.784-2.127
									c0,0-0.103-8.25,0.862-9.402c0.956-1.152,6.328-3.193,7.473-2.793c1.109,0.385-3.817,2.631-4.15,2.785
									c0.222-0.053,2.246-0.547,3.33-0.42C67.483,31.748,69.797,32.842,69.609,33.311z"/>
								<path id="XMLID_545_" fill="#F47567" d="M67.696,36.719c0.103,0.035,0.223,0.094,0.291,0.205
									c-0.572-0.17-1.145-0.324-1.751-0.418c-1.017-0.154-2.032-0.137-3.049-0.223c-0.068-0.008-0.094-0.102-0.017-0.129
									c1.613-0.418,3.62-0.23,5.269,0.367C68.191,36.719,67.893,36.736,67.696,36.719z"/>
							</g>
						</g>
						<g id="XMLID_526_">
							<g id="XMLID_540_">
								<path id="XMLID_542_" fill="#2F1A10" d="M121.924,30.195c0,0,1.733,5.738-4.611,4.576l-22.485-4.799
									c0,0-8.386-1.537-3.766-6.072c0,0-0.684-0.59-1.323-1.443c-1.256-1.674-2.366-4.355,2.058-5.637c0,0-2.075-5.84,5.072-5.184
									c0,0,0.982-6.763,7.114-2.348c0,0,3.578-5.277,6.695-0.129c0,0,3.859-2.186,5.781,0.59c0.478,0.684,0.837,1.666,0.99,3.057
									c0,0,6.379-0.811,3.852,5.457c0,0,5.354,1.691,1.35,6.08C122.65,24.344,126.681,27.367,121.924,30.195z"/>
								<path id="XMLID_541_" fill="#44331C" d="M116.459,9.75c-2.989-1.375-6.098,0.367-6.098,0.367
									c-3.629-3.672-6.285,0.453-6.285,0.453c-4.663-3.613-6.567,2.322-6.567,2.322c-6.114,0.061-4.228,5.029-4.228,5.029
									c-3.057,0.881-3.569,3.006-3.543,4.535c-1.256-1.674-2.366-4.355,2.058-5.637c0,0-2.075-5.84,5.072-5.184
									c0,0,0.982-6.763,7.114-2.348c0,0,3.578-5.277,6.695-0.129C110.678,9.16,114.537,6.975,116.459,9.75z"/>
							</g>
							
								<ellipse id="XMLID_539_" transform="matrix(0.9379 0.3468 -0.3468 0.9379 16.7568 -30.9756)" fill="#F47567" cx="94.921" cy="31.329" rx="3.815" ry="2.529"/>
							<g id="XMLID_536_">
								<path id="XMLID_538_" fill="#FF917B" d="M117.236,27.24c-0.043,0.818-0.154,1.648-0.316,2.492
									c-1.452,7.592-9.061,12.281-16.388,11.623c-5.432-0.486-7.054-7.387-5.603-14.979c0.094-0.512,0.214-1.008,0.351-1.486
									c0.88-3.176,2.519-5.764,4.552-7.549c2.271-2.006,5.029-3.014,7.797-2.775c5.585,0.486,8.607,4.014,9.428,8.686
									C117.278,24.508,117.338,25.848,117.236,27.24z"/>
								<path id="XMLID_537_" fill="#F47567" d="M118.039,25.232l-0.803,2.008l-1.845,4.629c0,0-2.289-2.939-3.502-6.346
									c0,0-3.688,0.889-4.705-1.256c0,0-3.587,1.256-4.851-0.82c0,0-3.801,2.537-5.064,0c0,0-0.427,1.699-1.989,1.443
									c0.88-3.176,2.519-5.764,4.552-7.549c3.971,0.248,14.773,0.939,14.773,0.939l2.451,4.971L118.039,25.232z"/>
							</g>
							<path id="XMLID_535_" fill="#2F1A10" d="M115.128,32.67c0,0-2.051-5.199-2.247-8.996c0,0-2.865,1.648-4.981-1.365
								c0,0-4.043,2.191-5.5-0.467c0,0-4.056,2.824-5.313-0.25c0,0-0.414,1.908-1.38,1.844c-0.967-0.064-1.815-5.471,4.832-8.25
								c6.648-2.78,11.495-0.193,14.105,1.689c2.61,1.885,3.868,6.57,3.583,9.008c-0.157,1.346-0.141,4.941-0.941,6.398
								C116.638,33.463,115.128,32.67,115.128,32.67z"/>
							
								<ellipse id="XMLID_534_" transform="matrix(0.9974 -0.0717 0.0717 0.9974 -2.1094 8.4186)" fill="#FF917B" cx="116.265" cy="33.605" rx="3.815" ry="2.53"/>
							<g id="XMLID_527_">
								
									<ellipse id="XMLID_533_" transform="matrix(0.9728 0.2316 -0.2316 0.9728 10.0324 -23.3175)" fill="#333333" cx="104.318" cy="31.066" rx="0.548" ry="1.012"/>
								
									<ellipse id="XMLID_532_" transform="matrix(0.9987 0.0517 -0.0517 0.9987 1.6973 -4.9854)" fill="#333333" cx="97.269" cy="30.335" rx="0.548" ry="1.012"/>
								
									<path id="XMLID_531_" fill="none" stroke="#DB4242" stroke-width="0.75" stroke-linecap="round" stroke-linejoin="round" stroke-miterlimit="10" d="
									M99.694,30.334c-0.371,0.971-0.397,2.018-0.04,2.889"/>
								
									<path id="XMLID_530_" fill="none" stroke="#2F1A10" stroke-width="0.75" stroke-linecap="round" stroke-linejoin="round" stroke-miterlimit="10" d="
									M104.713,26.924c0.858-0.131,2.475,0.314,2.934,1.053"/>
								
									<path id="XMLID_529_" fill="none" stroke="#2F1A10" stroke-width="0.75" stroke-linecap="round" stroke-linejoin="round" stroke-miterlimit="10" d="
									M95.955,27.262c0.515-0.596,1.594-0.949,2.629-0.553"/>
								
									<path id="XMLID_528_" fill="none" stroke="#DB4242" stroke-width="0.75" stroke-linecap="round" stroke-linejoin="round" stroke-miterlimit="10" d="
									M99.951,36.145c0,0,3.633,1.162,5.821-1.865"/>
							</g>
						</g>
					</g>
				</g>
				<g id="XMLID_521_">
					<path id="XMLID_523_" fill="#30578E" d="M111.472,97.787c-9.283,16.617-43.553,17.898-43.553,17.898
						c2.117-0.383,4.192-1.854,6.131-3.877c5.372-5.609,9.693-15.49,11-18.625c2.938-7.08,8.983-6.123,17.813-7.08
						c6.746-0.734,12.041-7.438,14.168-10.563c0.657-0.965,1.008-1.588,1.008-1.588S120.754,81.168,111.472,97.787z"/>
					<path id="XMLID_522_" fill="#4E70A0" d="M117.031,75.541c-0.923,3.459-5.227,10.314-12.067,11.904
						c-9.692,2.244-15.116,1.506-16.978,4.316c-1.631,2.467-6.473,15.965-13.937,20.047c5.372-5.609,9.693-15.49,11-18.625
						c2.938-7.08,8.983-6.123,17.813-7.08C109.609,85.369,114.904,78.666,117.031,75.541z"/>
				</g>
			</g>
		</g>
	</g>
	<g id="XMLID_516_">
		<path id="XMLID_518_" fill="#F9AB4E" d="M51.86,43.167c0.061,11.917-9.548,21.64-21.466,21.702
			c-11.926,0.069-21.64-9.54-21.71-21.466c-0.062-11.917,9.548-21.632,21.465-21.702c2.589-0.018,5.063,0.429,7.362,1.251
			l-7.239,20.337l21.447-2.447C51.808,41.602,51.852,42.38,51.86,43.167z"/>
		<path id="XMLID_517_" fill="#EF8425" d="M55.544,37.018l-21.448,2.448l7.24-20.337C48.951,21.83,54.608,28.711,55.544,37.018z"/>
	</g>
</g>
</svg>
