<?xml version="1.0" encoding="utf-8"?>
<!-- Generator: Adobe Illustrator 16.0.0, SVG Export Plug-In . SVG Version: 6.00 Build 0)  -->
<!DOCTYPE svg PUBLIC "-//W3C//DTD SVG 1.1//EN" "http://www.w3.org/Graphics/SVG/1.1/DTD/svg11.dtd">
<svg version="1.1" xmlns="http://www.w3.org/2000/svg" xmlns:xlink="http://www.w3.org/1999/xlink" x="0px" y="0px"
	 width="191.585px" height="168px" viewBox="0 0 191.585 168" enable-background="new 0 0 191.585 168" xml:space="preserve">
<g id="BACKGROUND">
</g>
<g id="OBJECTS">
	<g id="XMLID_5_">
		<g id="XMLID_451_">
			<path id="XMLID_515_" fill="#D9F0FF" d="M78.138,73.182c6.989-4.623,13.462-10.188,21.655-12.504
				c24.33-6.877,43.616,16.713,56.751,33.385c7.907,10.037,17.663,23.451,14.018,37.031c-9.104,33.91-63.362,30.238-89.189,24.264
				c-18.805-4.35-45.229-13.736-52.969-33.391c-4.571-11.607,1.584-23.971,10.604-31.459c9.5-7.887,21.426-8.24,32.066-13.258
				C73.535,76.09,75.864,74.686,78.138,73.182z"/>
			<g id="XMLID_467_">
				<path id="XMLID_514_" fill="#EF8425" d="M113.657,100.408c-0.456-0.586-9.263-21.742-9.263-21.742s-4.114,0.219-6.817,7.506
					c-2.704,7.289-12.914,39.152-12.914,39.152l9.883,6.158l6.137-2.539L113.657,100.408z"/>
				<path id="XMLID_513_" fill="#F79429" d="M160.974,132.459h-50.513c0,0-7.21-14.602-8.287-27.498
					c-0.746-8.883,0-25.078,2.221-26.295c0.961-0.531,3.944-1.477,7.02-2.453c0.091,5.213,5.146,13.492,11.992,15.572
					c6.199,1.881,17.577-8.23,22.559-12.986c4.591,2.99,9.116,6.041,10.003,7.557C157.376,88.785,160.974,132.459,160.974,132.459z"
					/>
				<g id="XMLID_510_">
					<path id="XMLID_512_" fill="#FF917B" d="M145.965,78.799c-4.981,4.756-16.359,14.867-22.559,12.986
						c-6.846-2.08-11.901-10.359-11.992-15.572c3.216-1.045,6.53-2.123,7.749-2.801h0.008c0.29-0.158,0.456-0.299,0.473-0.416
						c0.149-1.02-1.674-9.836-1.674-9.836l14.893-3.465c0,0,0.05,2.959,0.92,6.291c0.754,2.891,2.121,6.066,4.616,7.807
						C140.412,75.201,143.196,76.992,145.965,78.799z"/>
					<path id="XMLID_511_" fill="#F47567" d="M119.644,72.996c0.149-1.02-1.674-9.836-1.674-9.836l14.893-3.465
						c0,0,0.05,2.959,0.92,6.291C122.512,77.648,119.627,73.113,119.644,72.996z"/>
				</g>
				<g id="XMLID_491_">
					
						<ellipse id="XMLID_509_" transform="matrix(0.9377 0.3473 -0.3473 0.9377 24.3118 -31.4697)" fill="#F47567" cx="99.939" cy="52.082" rx="6.95" ry="4.467"/>
					<path id="XMLID_508_" fill="#29150F" d="M108.543,28.877l-8.308,1.709c0,0-4.847,11.893-1.451,19.855
						C101.294,56.328,108.543,28.877,108.543,28.877z"/>
					<path id="XMLID_507_" fill="#FF917B" d="M142.708,47.754c-0.406,2.096-1.036,4.109-1.856,6.008
						c-4.898,11.42-18.582,18.791-28.751,16.818c-11.867-2.303-15.215-16.445-12.355-31.172c0.473-2.404,1.177-4.691,2.097-6.813
						c4.666-10.873,14.645-17.611,24.564-15.68C138.266,19.219,145.566,33.025,142.708,47.754z"/>
					<g id="XMLID_504_">
						<path id="XMLID_506_" fill="#190B09" d="M136.336,24.986c0,0,3.354-4.529,6.991-3.963c3.639,0.566,6.909,4.906,6.909,4.906
							s-5.661-2.879-8.743-2.479c0,0,5.221,1.787,6.164,6.756C147.657,30.207,142.688,25.301,136.336,24.986z"/>
						<path id="XMLID_505_" fill="#190B09" d="M142.271,21.033c-3.352,5.496-9.18,8.055-13.018,5.713
							c-3.837-2.34-4.231-8.691-0.879-14.188c3.352-5.496,7.509-9.037,13.018-5.713C147.275,10.395,145.624,15.539,142.271,21.033z"
							/>
					</g>
					<g id="XMLID_501_">
						<path id="XMLID_503_" fill="#29150F" d="M144.224,47.795c-0.563,2.063-1.384,4.426-2.204,6.322
							c-2.271,1.666-6.613,2.057-6.613,2.057c0-0.414-3.48-19.295-3.572-19.791c0,0.621-16.533-4.873-29.992-3.787
							c-0.141-0.1-0.273-0.199-0.406-0.291c-0.82-0.637-1.441-1.334-1.864-2.072c0,0,0,0,0-0.008
							c-4.061-6.986,9.314-17.238,24.149-15.174c0.266,0.033,0.522,0.074,0.787,0.125c0.531,0.09,1.062,0.189,1.592,0.314
							c5.983,1.367,10.492,3.936,13.641,7.326C145.625,29.123,146.826,38.264,144.224,47.795z"/>
						<path id="XMLID_502_" fill="#44331C" d="M139.74,22.816c-10.118-4.367-31.923-10.684-40.169,7.408
							c-4.061-6.986,9.314-17.238,24.149-15.174c0.266,0.033,0.522,0.074,0.787,0.125c0.531,0.09,1.062,0.189,1.592,0.314
							C132.083,16.857,136.592,19.426,139.74,22.816z"/>
					</g>
					<g id="XMLID_493_">
						<ellipse id="XMLID_500_" fill="#333333" cx="120.171" cy="51.635" rx="0.884" ry="1.957"/>
						<ellipse id="XMLID_499_" fill="#333333" cx="103.944" cy="50.125" rx="0.884" ry="1.957"/>
						<g id="XMLID_494_">
							
								<path id="XMLID_498_" fill="none" stroke="#DB4242" stroke-width="0.75" stroke-linecap="round" stroke-linejoin="round" stroke-miterlimit="10" d="
								M109.667,50.391c-0.711,1.869-0.865,3.947-0.438,5.902"/>
							
								<path id="XMLID_497_" fill="none" stroke="#29150F" stroke-linecap="round" stroke-linejoin="round" stroke-miterlimit="10" d="
								M119.987,41.189c1.84-0.291,3.796,0.236,5.238,1.416"/>
							
								<path id="XMLID_496_" fill="none" stroke="#29150F" stroke-linecap="round" stroke-linejoin="round" stroke-miterlimit="10" d="
								M102.401,37.416c1.771-0.373,3.703,0.1,5.101,1.252"/>
							
								<path id="XMLID_495_" fill="none" stroke="#DB4242" stroke-width="0.75" stroke-linecap="round" stroke-linejoin="round" stroke-miterlimit="10" d="
								M112.48,61.643c2.89,0.496,5.973-0.264,8.302-2.043"/>
						</g>
					</g>
					
						<ellipse id="XMLID_492_" transform="matrix(0.982 -0.1888 0.1888 0.982 -8.0761 27.5884)" fill="#FF917B" cx="140.74" cy="56.176" rx="6.95" ry="4.467"/>
				</g>
				<g id="XMLID_483_">
					<path id="XMLID_490_" fill="#FCA338" d="M148.646,83.436c3.031-0.082,5.933,1.252,8.001,3.469
						c2.252,2.414,6.011,6.922,11.71,15.117c10.551,15.164,14.342,22.912,11.045,27.199c-3.297,4.285-41.9,3.238-41.9,3.238
						l-3.482-10.346l19.405-3.918c0,0-10.354-15.664-11.649-22.117C140.693,90.689,141.654,83.621,148.646,83.436z"/>
					<g id="XMLID_484_">
						<path id="XMLID_489_" fill="#FF917B" d="M137.769,132.359c0,0-2.893,1.311-8.743,0.646c-5.859-0.67-7.244-4.6-7.244-4.6
							s-4.135,1.027-5.304-0.463c-0.547-0.697-0.397-1.4-0.24-1.791c0.083-0.199,0.174-0.322,0.174-0.322s-0.281,0.182-0.729,0.24
							c-0.488,0.066-1.168-0.018-1.889-0.631c-1.318-1.127-0.133-2.982-0.033-3.141h-0.009c-0.066,0.025-0.381,0.148-0.787,0.148
							c-0.572,0-1.317-0.24-1.832-1.283c-0.937-1.906,4.012-4.51,4.409-4.717c-0.489,0.141-8.346,2.463-9.149,2.57
							c-0.82,0.1-2.453,0.066-1.417-1.848c1.027-1.906,9.432-6.35,16.235-4.873c6.796,1.482,12.813,9.811,12.813,9.811
							L137.769,132.359z"/>
						<g id="XMLID_485_">
							<g id="XMLID_486_">
								<path id="XMLID_488_" fill="#F47567" d="M113.751,122.299h0.009c2.42-2.701,5.237-4.4,8.801-5.645
									c0.332-0.115,0.199-0.588-0.141-0.521c-3.713,0.738-7.252,3.217-9.456,6.314L113.751,122.299z"/>
								<path id="XMLID_487_" fill="#F47567" d="M124.218,120.326c-3.265,1.4-5.941,3.066-7.98,5.826
									c0.083-0.199,0.174-0.322,0.174-0.322s-0.281,0.182-0.729,0.24c1.856-2.984,4.89-5.545,8.346-6.199
									C124.284,119.82,124.492,120.203,124.218,120.326z"/>
							</g>
						</g>
					</g>
				</g>
				<g id="XMLID_468_">
					<rect id="XMLID_482_" x="13.318" y="131.482" fill="#D68149" width="167.873" height="6.449"/>
					<g id="XMLID_470_">
						<g id="XMLID_475_">
							<rect id="XMLID_481_" x="23.534" y="126.404" fill="#3D313B" width="101.574" height="5.078"/>
							<rect id="XMLID_480_" x="92.824" y="126.404" fill="#4F414D" width="32.284" height="5.078"/>
							<g id="XMLID_476_">
								<rect id="XMLID_479_" x="99.642" y="127.912" fill="#3D313B" width="8.057" height="2.063"/>
								<rect id="XMLID_478_" x="113.657" y="127.912" fill="#3D313B" width="8.057" height="2.063"/>
								<ellipse id="XMLID_477_" fill="#3D313B" cx="97.281" cy="128.943" rx="0.972" ry="0.918"/>
							</g>
						</g>
						<g id="XMLID_471_">
							<polygon id="XMLID_474_" fill="#5F505E" points="92.824,125.801 90.054,127.934 16.186,127.934 5.975,85.014 8.652,82.148 
								84.347,82.148 							"/>
							<polygon id="XMLID_473_" fill="#4F414D" points="90.054,127.934 16.186,127.934 5.975,85.014 81.261,85.014 							"/>
							<ellipse id="XMLID_472_" fill="#5F505E" cx="49.754" cy="105.854" rx="11.647" ry="4.316"/>
						</g>
					</g>
				</g>
			</g>
			<g id="XMLID_452_">
				<g id="XMLID_458_">
					
						<ellipse id="XMLID_466_" transform="matrix(0.9471 0.321 -0.321 0.9471 25.8186 -48.7653)" fill="#3F3744" cx="160.79" cy="53.912" rx="6.181" ry="3.473"/>
					<polygon id="XMLID_465_" fill="#5F5260" points="176.318,37.256 173.436,43.5 173.026,44.385 172.243,46.08 171.833,46.965 
						171.05,48.66 170.641,49.545 169.857,51.238 169.457,52.127 168.674,53.822 168.264,54.707 167.563,56.221 154.028,51.633 
						154.355,49.992 154.551,49.035 154.914,47.197 155.11,46.24 155.474,44.404 155.669,43.445 156.033,41.609 156.229,40.65 
						156.602,38.818 156.788,37.857 158.145,31.096 					"/>
					<g id="XMLID_459_">
						<polygon id="XMLID_464_" fill="#3F3744" points="173.436,43.5 173.026,44.385 156.602,38.818 156.788,37.857 						"/>
						<polygon id="XMLID_463_" fill="#3F3744" points="156.229,40.65 172.243,46.08 171.833,46.965 156.033,41.609 						"/>
						<polygon id="XMLID_462_" fill="#3F3744" points="171.05,48.66 170.641,49.545 155.474,44.404 155.669,43.445 						"/>
						<polygon id="XMLID_461_" fill="#3F3744" points="169.857,51.238 169.457,52.127 154.914,47.197 155.11,46.24 						"/>
						<polygon id="XMLID_460_" fill="#3F3744" points="168.674,53.822 168.264,54.707 154.355,49.992 154.551,49.035 						"/>
					</g>
				</g>
				<g id="XMLID_453_">
					<path id="XMLID_457_" fill="#F9AB4E" d="M185.221,31.213c-2.501,7.377-9.603,10.191-16.975,8.729
						c-0.309-0.057-0.625-0.123-0.937-0.199c-0.596-0.152-1.193-0.324-1.791-0.527c-0.865-0.293-1.704-0.637-2.488-1.023
						c-0.3-0.141-0.585-0.297-0.87-0.453c-6.158-3.4-9.356-9.607-6.952-16.701c2.81-8.287,11.806-12.729,20.094-9.918
						C183.59,13.928,188.03,22.924,185.221,31.213z"/>
					<g id="XMLID_455_">
						<path id="XMLID_456_" fill="#FFE19F" d="M178.498,29.211c-0.859,2.594-4.433,5.242-8.388,6.229l-1.864,4.502
							c-0.309-0.057-0.625-0.123-0.937-0.199l2.12-5.109l0.238-0.059c3.681-0.852,7.17-3.34,7.936-5.656
							c0.326-0.994,0.146-1.9-0.529-2.695c-0.479-0.551-1.059-0.836-1.791-0.877c-2.672-0.129-6.117,3.109-6.147,3.139l-0.703,0.668
							l-0.091-0.967c-0.006-0.041-0.431-4.393-2.485-5.637c-0.677-0.408-1.448-0.422-2.374-0.039
							c-0.785,0.32-1.285,0.857-1.542,1.615c-0.978,2.973,2.145,8.197,2.177,8.248l0.095,0.162l-1.182,5.656
							c-0.3-0.141-0.585-0.297-0.87-0.453l1.053-5.045c-0.552-0.953-3.188-5.766-2.168-8.861c0.339-1.029,1.037-1.768,2.075-2.191
							c1.203-0.496,2.287-0.467,3.226,0.109c1.836,1.1,2.557,3.99,2.812,5.469c1.218-1.01,3.849-2.932,6.175-2.811
							c0.986,0.057,1.815,0.457,2.455,1.211C178.678,26.656,178.922,27.902,178.498,29.211z"/>
					</g>
					<path id="XMLID_454_" fill="#FCD772" d="M159.6,16.811c0.749-1.164,1.776-2.121,2.953-2.85
						c2.366-1.467,7.05-3.662,12.638-1.461c6.282,2.473-1.729,0.266-7.761,1.822C162.004,15.723,157.21,20.523,159.6,16.811z"/>
				</g>
			</g>
		</g>
	</g>
</g>
</svg>
