<?xml version="1.0" encoding="utf-8"?>
<!-- Generator: Adobe Illustrator 16.0.0, SVG Export Plug-In . SVG Version: 6.00 Build 0)  -->
<!DOCTYPE svg PUBLIC "-//W3C//DTD SVG 1.1//EN" "http://www.w3.org/Graphics/SVG/1.1/DTD/svg11.dtd">
<svg version="1.1" xmlns="http://www.w3.org/2000/svg" xmlns:xlink="http://www.w3.org/1999/xlink" x="0px" y="0px" width="366px"
	 height="43.5px" viewBox="0 83 366 43.5" enable-background="new 0 83 366 43.5" xml:space="preserve">
<g id="圖層_1">
</g>
<g id="圖層_2">
	<path fill="#0F5C9E" d="M97.353,98.836c-6.8,0-12.3,5.4-12.3,12v12h5.4v-12l0,0c0-3.7,3.1-6.8,6.9-6.8c3.801,0,6.9,3,6.9,6.8l0,0
		v12h5.4v-12C109.654,104.236,104.154,98.836,97.353,98.836"/>
	<rect x="113.753" y="90.236" fill="#0F5C9E" width="5.4" height="32.7"/>
	<polygon fill="#0F5C9E" points="46.953,90.236 46.953,103.936 33.153,103.936 33.153,90.236 27.753,90.236 27.753,122.937 
		33.153,122.937 33.153,109.236 46.953,109.236 46.953,122.937 52.352,122.937 52.352,90.236 	"/>
	<rect x="123.253" y="101.436" fill="#0F5C9E" width="5.4" height="21.4"/>
	<path fill="#CB3839" d="M23.753,112.937h-17.9c0.301,1.5,0.9,2.8,2.101,3.7c1.1,0.899,2.6,1.399,4.3,1.399c2.1,0,3.9-0.699,5.4-2.1
		l4.699,2.2c-1.199,1.6-2.6,2.8-4.199,3.6c-1.601,0.8-3.601,1.2-5.801,1.2c-3.5,0-6.3-1.1-8.5-3.2c-2.3-2.3-3.399-5-3.399-8.2
		c0-3.3,1.1-6.1,3.3-8.2c2.2-2.199,4.9-3.299,8.2-3.299c3.5,0,6.3,1.1,8.5,3.299c2.2,2.201,3.3,5.101,3.3,8.7V112.937z
		 M18.153,108.637c-0.4-1.2-1.101-2.2-2.2-2.9c-1.101-0.8-2.3-1.1-3.8-1.1c-1.601,0-2.9,0.4-4.101,1.3c-0.7,0.5-1.399,1.5-2,2.8
		h12.101V108.637z"/>
	<path fill="#0F5C9E" d="M144.952,98.836c-6.799,0-12.299,5.4-12.299,12v12h5.398v-12c0-3.7,3.102-6.8,6.9-6.8
		c3.801,0,6.9,3,6.9,6.8v12h5.399v-12C157.252,104.236,151.753,98.836,144.952,98.836"/>
	<g>
		<g>
			<path fill="#F9CB53" d="M176.374,110.471c0,0,1.845,0.796,3.928-2.179c1.766-2.521,4.955-4.203,9.646-1.403
				c0,0,1.389,0.758,0.356,2.065c-0.966,1.221-4.838-1.89-6.75-0.151c-1.912,1.74-1.94,4.712-6.78,4.526L176.374,110.471z"/>
			<path opacity="0.53" fill="#FF9631" d="M181.745,111.189l-1.891-2.312c-1.893,2.276-3.48,1.593-3.48,1.593l0.4,2.858
				C179.688,113.44,180.858,112.408,181.745,111.189z"/>
			<path fill="#3F2436" d="M184.765,108.282c-0.206-0.674-0.575-1.525-1.175-1.77c-1.025-0.426-0.035,2.29-0.035,2.29
				C183.903,108.488,184.316,108.332,184.765,108.282z"/>
			<g>
				<path fill="#3F2436" d="M178.846,109.858c-0.224,0.17-0.436,0.298-0.64,0.4l0.961,2.831c0.352-0.1,0.663-0.227,0.938-0.377
					L178.846,109.858z"/>
				<path fill="#3F2436" d="M181.615,106.839c-0.484,0.411-0.91,0.888-1.274,1.401l1.479,2.844c0.38-0.535,0.714-1.1,1.125-1.618
					L181.615,106.839z"/>
			</g>
			<path fill="#3F2436" d="M189.948,106.889c-1.291-0.771-2.468-1.2-3.531-1.368c-0.416,0.788-0.865,1.769-1.136,2.744
				c1.939,0.084,4.299,1.605,5.023,0.689C191.337,107.646,189.948,106.889,189.948,106.889z"/>
		</g>
		<g>
			<path fill="#F9CB53" d="M164.217,109.066c0,0-5.616,3.063-7.555,0.184c0.083-0.678,0.064-1.062-0.17-1.194
				c-0.722-0.419-0.992,0.521-0.992,0.521c-0.309-0.494-0.746-0.871-1.121-0.709c-0.545,0.233-0.258,0.771-0.053,1.264
				c0,0-0.238-0.825-0.839-0.615c-0.578,0.201,0.129,1.213,0.203,1.297c-0.042-0.047-0.467-0.585-0.86-0.31
				c-0.566,0.393,0.594,1.516,0.594,1.516l0.004-0.001c0.494,1.066,4.948,6.745,12.569,2.656L164.217,109.066z"/>
			<g>
				<path fill="#3F2436" d="M157.74,114.583c0.04-0.887,0.03-2.338-0.447-2.566c-0.438-0.213-0.751,0.988-0.919,1.896
					C156.787,114.164,157.241,114.392,157.74,114.583z"/>
				<path fill="#3F2436" d="M159.12,112.777c-0.589-0.21-0.425,1.298-0.29,2.141c0.366,0.085,0.751,0.147,1.152,0.183
					C159.906,114.321,159.69,112.98,159.12,112.777z"/>
			</g>
			<path opacity="0.53" fill="#FF9631" d="M158.177,110.329c0.922,0.555,3.289,1.698,5.588,0.511c0,0,0.462,1.732,1.354,3.269
				c0.288-0.131,0.582-0.275,0.879-0.435l-1.78-4.607C164.217,109.066,160.608,111.034,158.177,110.329z"/>
			<path opacity="0.35" fill="#D83D22" d="M155.66,109.507c1.064,0.479,0.359,1.617-0.82,1.503
				C153.659,110.894,154.596,109.027,155.66,109.507z"/>
		</g>
		<g>
			<g>
				<path fill="#F9CB53" d="M171.359,114.244c0,0,5.591,3.332,7.438,2.468c2.125-0.994,2.489-3.38,2.489-3.38l1.406,0.8
					l-2.846-4.056c0,0-1.621,3.203-3.357,1.516C176.169,111.278,171.359,114.244,171.359,114.244z"/>
				<path opacity="0.53" fill="#FF9631" d="M176.49,111.592c-0.32-0.313-5.131,2.652-5.131,2.652s5.591,3.332,7.438,2.468
					c0.8-0.373,1.349-0.944,1.726-1.513c0.348-1.396,0.04-2.797-1.395-4.06C178.494,111.886,177.511,112.585,176.49,111.592z"/>
				<path fill="#D83D22" d="M173.816,115.81c0,0,5.138,3.981,7.249-1.374l-1.937-3.296l-1.257,0.767l-3.799-1.125
					C174.073,110.781,170.908,113.688,173.816,115.81z"/>
				<path opacity="0.79" fill="#3F2436" d="M173.816,115.81c0,0,5.138,3.981,7.249-1.374l-1.937-3.296l-1.257,0.767l-3.799-1.125
					C174.073,110.781,170.908,113.688,173.816,115.81z"/>
				<path opacity="0.45" fill="#3F2436" d="M179.689,112.094l-0.561-0.954l-1.257,0.767l-3.799-1.125c0,0-3.164,2.906-0.257,5.028
					c0,0,0.837,0.647,1.975,1.07c0.285-0.434,0.55-0.913,0.788-1.446C176.578,115.434,178.6,113.85,179.689,112.094z"/>
				<path fill="#3F2436" d="M181.324,113.565l0.396-0.741l-2.439-2.482l0.715-0.751c0,0,3.724,4.207,3.034,4.691
					C182.344,114.767,181.324,113.565,181.324,113.565z"/>
			</g>
			<g>
				<path fill="#F9CB53" d="M166.683,115.271c0,0,3.57,8.354,8.714,7.202c0,0,1.294,1.543,1.858,1.484
					c0.581-0.06-1.288-4.854-1.288-4.854s-4.845-0.565-5.532-4.217L166.683,115.271z"/>
				<path opacity="0.53" fill="#FF9631" d="M175.967,119.104c0,0-4.125-0.483-5.301-3.428l-1.625,3.539
					c1.255,1.612,2.95,3.148,4.946,3.345c0.722-0.503,1.625-1.174,2.532-1.956C176.224,119.768,175.967,119.104,175.967,119.104z"/>
				<path fill="#D83D22" d="M167.764,117.316c0,0,2.018,5.384,6.498,5.474l0.639-4.313l-3.146-3.241L167.764,117.316z"/>
				<path opacity="0.79" fill="#3F2436" d="M167.764,117.316c0,0,2.018,5.384,6.498,5.474l0.639-4.313l-3.146-3.241L167.764,117.316
					z"/>
				<path opacity="0.45" fill="#3F2436" d="M174.685,118.255l-2.93-3.019l-3.991,2.08c0,0,0.681,1.811,2.125,3.351
					C171.265,120.451,173.112,119.85,174.685,118.255z"/>
				<path fill="#3F2436" d="M175.578,122.89l0.967-0.758l-1.153-3.313l0.719-0.065c0,0,1.959,4.994,1.145,5.205
					C176.442,124.169,175.578,122.89,175.578,122.89z"/>
			</g>
		</g>
		<g>
			<path fill="#D83D22" d="M176.888,109.868c-0.836-1.754-2.116-3.726-2.893-4.355c-1.948-1.575-8.077,0.349-9.69,1.943
				c-1.299,1.284,1.655,7.426,2.854,9.766c0,0-0.492,1.507-2.054,1.865c0,0,5.427,1.855,9.774-1.786l0.048-0.146
				c0.427-1.313,0.337-2.742-0.25-3.993l0,0c0,0,2.687,0.659,3.781-0.361l0.388-2.941L176.888,109.868z"/>
			<path fill="#2A0D01" d="M164.609,108.89c0,0,2.446,1.598,4.442,1.202c0.15-0.03,0.288,0.086,0.279,0.237l0,0
				c-0.007,0.12-0.104,0.215-0.226,0.219c-0.733,0.014-3.206-0.055-5.094-1.499L164.609,108.89z"/>
			<g>
				<path fill="#F9CB53" d="M168.183,109.397c-0.302,0.289,0.013,0.794,0.439,0.463
					C169.049,109.532,168.483,109.109,168.183,109.397z"/>
				<path fill="#F9CB53" d="M167.433,110.753c-0.303,0.287,0.011,0.792,0.437,0.463
					C168.296,110.887,167.733,110.465,167.433,110.753z"/>
				<path fill="#F9CB53" d="M168.37,109.613c0,0-0.458,1.129-0.926,1.459l0.208,0.182c0,0,0.893-0.958,0.898-1.58L168.37,109.613z"
					/>
			</g>
			<g>
				<path fill="#F9CB53" d="M166.819,109.025c-0.303,0.289,0.011,0.793,0.438,0.464C167.684,109.16,167.118,108.737,166.819,109.025
					z"/>
				<path fill="#F9CB53" d="M166.068,110.381c-0.302,0.288,0.012,0.793,0.438,0.463
					C166.932,110.515,166.369,110.092,166.068,110.381z"/>
				<path fill="#F9CB53" d="M167.006,109.241c0,0-0.46,1.127-0.926,1.459l0.205,0.182c0,0,0.895-0.959,0.9-1.58L167.006,109.241z"/>
			</g>
			<g>
				<path fill="#F9CB53" d="M165.105,119.087c0,0,5.427,1.855,9.774-1.786l0.048-0.146c0.108-0.332,0.182-0.67,0.225-1.012
					c-3.206,2.946-7.056,2.85-9.094,2.52C165.797,118.846,165.484,119.001,165.105,119.087z"/>
				<path fill="#F9CB53" d="M177.592,109.865l-0.571,3.477c0.549-0.055,1.076-0.206,1.438-0.542l0.388-2.941L177.592,109.865z"/>
			</g>
			<path opacity="0.17" fill="#3F2436" d="M167.622,109.763l3.353-1.526c1.321-0.601,2.606-1.252,3.679-2.016
				c-0.212-0.283-0.432-0.523-0.658-0.708c-1.948-1.575-8.077,0.349-9.69,1.943c-0.529,0.524-0.352,1.856,0.125,3.407
				C165.516,110.612,166.607,110.223,167.622,109.763z"/>
			<path opacity="0.17" fill="#3F2436" d="M176.47,109.871c-0.355-0.898-0.709-1.734-1.08-2.448l-1.726,0.857
				C173.664,108.28,174.744,110.021,176.47,109.871z"/>
			<path opacity="0.17" fill="#3F2436" d="M164.305,107.456c-0.453,0.45-0.387,1.492-0.059,2.758c1.076-0.192,2.146-0.54,3.12-1.005
				l3.193-1.524c1.259-0.599,2.447-1.326,3.417-2.184C172.011,103.948,165.913,105.866,164.305,107.456z"/>
		</g>
		<g>
			<g>
				<g>
					<path fill="#F9CB53" d="M181.041,100.814c-0.389,0.039-0.481,0.672-0.503,0.965c-0.002,0.001-0.005,0.001-0.008,0
						c-0.009-0.435-0.076-1.657-0.578-1.46c-0.542,0.212-0.416,1.242-0.382,1.459h-0.007c-0.172-0.531-0.474-1.475-1.042-1.294
						c-0.44,0.138-0.154,1.019,0.012,1.445c-0.114,0.064-0.217,0.148-0.302,0.246c-0.832-0.796-1.175-0.373-1.237-0.014
						c-0.041,0.231,0.467,0.775,0.938,1.225c-0.08,1.039-0.319,1.87-0.647,2.539l3.079,2.993c1.832-1.807,1.392-5.036,1.18-6.233
						C181.543,102.686,181.745,100.739,181.041,100.814z"/>
				</g>
				<path fill="#3F2436" d="M179.688,106.541c-0.204,0.54,0.824,0.992,1.486,1.224c0.185-0.384,0.314-0.793,0.403-1.205
					C180.906,106.307,179.883,106.021,179.688,106.541z"/>
				<path fill="#3F2436" d="M177.902,103.702c-0.045,0.382-0.109,0.736-0.194,1.063c0.682,0.141,1.902,0.298,2.321-0.269
					C180.481,103.885,178.743,103.737,177.902,103.702z"/>
				<path opacity="0.35" fill="#D83D22" d="M179.285,102.115c0.846-0.668,2.143,0.055,1.405,1.021
					C179.953,104.101,178.16,103.002,179.285,102.115z"/>
			</g>
			<path fill="#F9CB53" d="M178.429,105.196c-0.971,0.056-2.233-0.082-3.202-0.226c-0.857-0.125-1.679,0.393-1.927,1.222l0,0
				c-0.314,1.037,0.274,2.127,1.313,2.446c2.238,0.692,4.523,0.823,5.739,0.285L178.429,105.196z"/>
			<path opacity="0.53" fill="#FF9631" d="M175.227,104.971c-0.577-0.083-1.135,0.123-1.516,0.52
				c1.146,1.411,5.282,2.627,5.282,2.627c-0.827-1.045-1.125-2.122-1.22-2.911C176.931,105.193,175.99,105.083,175.227,104.971z"/>
		</g>
		<g>
			<g>
				<g>
					<g>
						<path fill="#F9CB53" d="M157.808,95.24c0,0-4.05-4.941-7.026-1.641c-2.979,3.3,2.973,6.797,6.104,4.614L157.808,95.24z"/>
						<path fill="#2A0D01" d="M150.782,93.6c0.983-1.092,2.084-1.282,3.117-1.049c-0.002,1.671-0.383,3.948-2.109,5.566
							C150.122,97.13,149.214,95.337,150.782,93.6z"/>
						<path fill="#F9CB53" d="M156.503,96.467c0.103-0.06-3.235-3.298-4.113-1.413c-0.878,1.882,3.711,2.71,3.711,2.71
							L156.503,96.467z"/>
						<path opacity="0.45" fill="#D83D22" d="M156.503,96.467c0.103-0.06-3.235-3.298-4.113-1.413
							c-0.878,1.882,3.711,2.71,3.711,2.71L156.503,96.467z"/>
					</g>
					<g>
						<path fill="#F9CB53" d="M167.644,91.384c0,0-0.436-6.373,3.992-6.009c4.431,0.361,2.494,6.988-1.282,7.543L167.644,91.384z"/>
						<path fill="#2A0D01" d="M171.636,85.375c-1.463-0.121-2.396,0.493-2.987,1.372c1.149,1.215,2.983,2.612,5.351,2.608
							C174.536,87.491,173.969,85.565,171.636,85.375z"/>
						<path fill="#F9CB53" d="M169.435,91.383c-0.115,0.027,0.097-4.619,2.027-3.849c1.929,0.771-0.846,4.518-0.846,4.518
							L169.435,91.383z"/>
						<path opacity="0.45" fill="#D83D22" d="M169.435,91.383c-0.115,0.027,0.097-4.619,2.027-3.849
							c1.929,0.771-0.846,4.518-0.846,4.518L169.435,91.383z"/>
					</g>
					<g>
						<g>
							<path fill="#F9CB53" d="M163.729,91.159l-3.928,1.793c-5.443,1.859-6.053,7.686-4.103,11.889l0.735,1.464
								c0.855,5.586,6.532,4.938,10.848,2.975l3.354-1.525c4.314-1.962,8.253-4.464,5.562-9.599l-0.583-1.257
								C172.655,89.455,168.046,89.196,163.729,91.159z"/>
							<path opacity="0.35" fill="#D83D22" d="M171.436,97.701c0,0-0.077-1.846-1.479-2.011c-0.85-0.1-2.856,0.617-2.111,2.946
								c0,0-0.299-1.047,0.993-1.56C170.134,96.564,171.436,97.701,171.436,97.701z"/>
							<path fill="#2A0D01" d="M160.977,99.243c0,0-1.029-1.19-2.244-0.72c-1.455,0.563-1.227,1.929-1.119,2.395
								c0,0-0.74-0.298-0.77,0.001c-0.027,0.3,0.991,0.52,0.991,0.52s-1.116-0.04-0.911,0.245c0.208,0.285,2.028,0.279,2.028,0.279
								L160.977,99.243z"/>
							<path fill="#2A0D01" d="M167.879,98.777c0,0-0.31-0.991,0.7-1.814c1.206-0.99,1.94-0.338,2.292-0.015
								c0,0,0.229-1.061,0.503-0.936c0.273,0.122-0.04,1.117-0.04,1.117s0.52-0.991,0.665-0.671
								c0.146,0.321-0.592,1.566-0.592,1.566l-0.783-0.492c-0.541-0.343-1.231-0.397-1.795-0.087
								C168.034,97.889,167.879,98.777,167.879,98.777z"/>
							<g>
								<path fill="#FFFFFF" d="M160.695,103.245L160.695,103.245c-0.979,0.358-2.069-0.158-2.437-1.155l-0.351-0.956
									c-0.366-0.997,0.126-2.097,1.104-2.455l0,0c0.978-0.358,2.068,0.159,2.437,1.156l0.351,0.955
									C162.166,101.787,161.671,102.888,160.695,103.245z"/>
								<path fill="#3F2436" d="M161.448,99.836c-0.199-0.54-0.61-0.938-1.1-1.134c-0.159,0-0.318,0.025-0.47,0.081
									c-0.862,0.315-1.238,1.452-0.838,2.539c0.398,1.083,1.422,1.707,2.285,1.391c0.078-0.028,0.151-0.065,0.221-0.107
									c0.37-0.502,0.487-1.178,0.253-1.815L161.448,99.836z"/>
							</g>
							<path opacity="0.64" fill="#FFFFFF" d="M167.159,100.551c0,0-2.264-3.983-3.495-3.333c-1.586,0.835-0.358,5.104-0.358,5.104
								S166.404,101.753,167.159,100.551z"/>
							<g>
								<path fill="#2A0D01" d="M163.971,91.053c0.646-0.28,1.298-0.509,1.949-0.67c0.491,1.279,0.927,2.805,0.51,3.44
									C165.99,94.493,164.867,92.721,163.971,91.053z"/>
								<path fill="#2A0D01" d="M158.216,93.683c0.4-0.239,0.839-0.45,1.314-0.63c0.688,1.739,1.253,3.545,0.667,3.561
									C159.709,96.626,158.938,95.253,158.216,93.683z"/>
								<path fill="#2A0D01" d="M163.647,96.598c-0.733,0.427-2.031-1.863-3.051-4.008l2.233-1.021
									C163.639,93.688,164.385,96.168,163.647,96.598z"/>
							</g>
							<path fill="#F9CB53" d="M164.79,100.429c-4.524,1.84-2.663,8.629,3.138,5.629C171.65,104.133,169.315,98.593,164.79,100.429z
								"/>
							<path opacity="0.64" fill="#FFFFFF" d="M164.79,100.429c-4.524,1.84-2.663,8.629,3.138,5.629
								C171.65,104.133,169.315,98.593,164.79,100.429z"/>
							<path fill="none" stroke="#3F2436" stroke-miterlimit="10" d="M165.219,101.364c0,0,0.368,1.323,0.828,1.676"/>
							<g>
								<path fill="#3F2436" d="M164.018,102.893c1.223-0.653,1.681,0.286,2.154-0.026c0.475-0.31,0.728-1.358,1.67-1.107
									c0.941,0.251,1.85,3.158-1.738,3.936C163.594,106.239,162.796,103.549,164.018,102.893z"/>
								<path fill="#D83D22" d="M168.564,102.589c-0.388,0.047-0.783,0.151-1.169,0.328c-1.257,0.578-2.044,1.716-2.088,2.844
									c0.242,0.015,0.508-0.003,0.797-0.066C168.602,105.154,168.921,103.58,168.564,102.589z"/>
								<path fill="#FFFFFF" d="M163.637,103.253c0.091-0.147,0.219-0.271,0.381-0.36c1.223-0.653,1.681,0.286,2.153-0.025
									c0.476-0.311,0.729-1.359,1.671-1.108c0.066,0.018,0.134,0.051,0.199,0.095c-0.042,0.264-0.14,0.525-0.276,0.769
									c0.11,0.31,0.186,0.573,0.021,0.627c-0.147,0.048-0.282,0.056-0.414-0.104c-0.235,0.242-0.523,0.452-0.856,0.606
									c-0.464,0.213-0.95,0.291-1.401,0.247c-0.029,0.276-0.128,0.452-0.255,0.475c-0.182,0.028-0.374-0.29-0.535-0.688
									C164.058,103.658,163.823,103.48,163.637,103.253z"/>
							</g>
							<path opacity="0.35" fill="#D83D22" d="M162.317,104.269c0.237,0.758-0.396,1.626-1.419,1.94
								c-1.021,0.312-2.041-0.048-2.281-0.807c-0.238-0.757,0.396-1.625,1.418-1.939
								C161.056,103.15,162.077,103.511,162.317,104.269z"/>
							<path opacity="0.35" fill="#D83D22" d="M173.623,98.962c0.447,0.656,0.092,1.67-0.797,2.266
								c-0.888,0.595-1.969,0.544-2.417-0.113c-0.447-0.656-0.09-1.67,0.797-2.267C172.095,98.254,173.177,98.305,173.623,98.962z"
								/>
							<path fill="#3F2436" d="M162.835,101.188c-0.318,0.684,1.984,1.092,2.608,0.685c0.621-0.409,2.162-1.718,1.554-2.269
								C166.39,99.055,163.154,100.505,162.835,101.188z"/>
							<path opacity="0.64" fill="#FFFFFF" d="M164.817,100.285c0,0-1.199,0.345-1.061,0.529
								C163.896,101,165.202,100.482,164.817,100.285z"/>
						</g>
					</g>
				</g>
			</g>
			<path fill="#2A0D01" d="M157.357,105.795c-0.696-1.579-1.103-0.368-0.514,1.068c0.588,1.434,3.623,2.84,4.439,1.785
				C162.023,107.688,158.633,108.688,157.357,105.795z"/>
			<path fill="#2A0D01" d="M158.126,105.229c-0.474-1.073-0.749-0.251-0.35,0.723c0.399,0.976,2.459,1.93,3.013,1.211
				C161.291,106.513,158.99,107.191,158.126,105.229z"/>
			<path fill="#2A0D01" d="M175.024,98.784c-0.559-1.717,0.604-1.054,1.146,0.474c0.542,1.528-0.844,4.742-2.214,4.488
				C172.709,103.516,176.048,101.928,175.024,98.784z"/>
			<path fill="#2A0D01" d="M174.03,98.88c-0.381-1.166,0.409-0.717,0.776,0.32c0.368,1.037-0.571,3.219-1.501,3.044
				C172.458,102.088,174.724,101.014,174.03,98.88z"/>
		</g>
	</g>
	<g>
		<g>
			<path fill="#F9CB53" d="M304.758,113.338c0,0-1.142-1.823-4.455-2.881c-3.312-1.059-8.05-4.998-6.601-7.973
				c0.699-1.435,2.145-1.13,2.525,1.553c0.246,1.728,1.839,2.697,3.468,3.325c3.146,1.212,6.689,2.521,7.455,4.692L304.758,113.338z
				"/>
			<path opacity="0.53" fill="#FF9631" d="M304.758,113.338c0,0-1.142-1.823-4.455-2.881c-3.312-1.059-8.05-4.998-6.601-7.973
				c0.699-1.435,2.145-1.13,2.525,1.553c0.246,1.728,1.839,2.697,3.468,3.325c3.146,1.212,6.689,2.521,7.455,4.692L304.758,113.338z
				"/>
			<g>
				<path fill="#3F2436" d="M301.572,110.94c0.333,0.148,0.635,0.303,0.909,0.461c0.261-0.483,0.47-1.033,0.327-1.376
					C302.598,109.529,301.949,110.374,301.572,110.94z"/>
				<path fill="#3F2436" d="M297.129,108.819c0.38-0.539,0.808-1.252,0.779-1.723c-0.033-0.568-0.904,0.474-1.468,1.207
					C296.664,108.483,296.895,108.654,297.129,108.819z"/>
				<path fill="#3F2436" d="M299.325,110.08c0.334,0.148,0.661,0.276,0.978,0.377c0.002,0,0.005,0.001,0.007,0.002
					c0.309-0.547,0.64-1.266,0.542-1.704C300.737,108.241,299.889,109.3,299.325,110.08z"/>
			</g>
			<g>
				<path fill="#3F2436" d="M301.65,108.127c-0.122,0.579-0.166,1.244,0.197,1.407c0.339,0.153,0.779-0.327,1.131-0.844
					C302.545,108.496,302.101,108.309,301.65,108.127z"/>
				<path fill="#3F2436" d="M296.149,106.79c0.207,0.548,1.037,0.128,1.729-0.35c-0.416-0.287-0.785-0.616-1.069-1.002
					C296.366,105.794,295.959,106.283,296.149,106.79z"/>
				<path fill="#3F2436" d="M299.696,107.362c-0.131-0.05-0.259-0.104-0.387-0.156c-0.339,0.51-0.589,1.127-0.182,1.504
					c0.481,0.447,1.102-0.318,1.512-0.983C300.323,107.604,300.008,107.483,299.696,107.362z"/>
			</g>
			<path fill="#3F2436" d="M296.49,104.906c-0.127-0.265-0.216-0.557-0.263-0.869c-0.381-2.683-1.826-2.987-2.525-1.553
				c-0.502,1.032-0.261,2.177,0.407,3.28C295.083,105.721,295.874,105.358,296.49,104.906z"/>
			<path opacity="0.2" fill="#3F2436" d="M303.111,111.796c1.186,0.806,1.647,1.542,1.647,1.542l2.393-1.283
				c-0.318-0.903-1.12-1.658-2.174-2.316L303.111,111.796z"/>
		</g>
		<g>
			<g>
				<path fill="#F9CB53" d="M314.595,115.679c0,0,2.423,8.465-8.309,5.822l-1.962,2.774l-0.165-5.146c0,0,4.991,1.385,5.614-3.881
					L314.595,115.679z"/>
				<path opacity="0.53" fill="#FF9631" d="M314.595,115.679c0,0,2.423,8.465-8.309,5.822l-1.962,2.774l-0.165-5.146
					c0,0,4.991,1.385,5.614-3.881L314.595,115.679z"/>
				<path fill="#3F2436" d="M304.543,119.084l0.262,3.235l1.006-0.006c0,0-1.1,2.512-1.64,2.232
					c-0.543-0.281-0.295-5.594-0.295-5.594L304.543,119.084z"/>
				<g>
					<path fill="#D83D22" d="M315.093,117.646c0,0,0.527,6.094-8.308,4.424l-1.527-2.985c0,0,3.379,0.824,4.125-4.287
						L315.093,117.646z"/>
				</g>
				<g>
					<path fill="#2A0D01" d="M315.093,117.646c0,0,0.527,6.094-8.308,4.424l-1.527-2.985c0,0,3.379,0.824,4.125-4.287
						L315.093,117.646z"/>
				</g>
				<g opacity="0.07">
					<path fill="#FFFFFF" d="M315.093,117.646c0,0,0.527,6.094-8.308,4.424l-1.527-2.985c0,0,3.379,0.824,4.125-4.287
						L315.093,117.646z"/>
				</g>
				<path opacity="0.31" fill="#3F2436" d="M314.878,119.243c0.276-0.879,0.215-1.598,0.215-1.598l-1.799-0.896l0,0l-3.911-1.952
					c-0.021,0.145-0.045,0.284-0.07,0.418c-0.008,0.042-0.019,0.08-0.023,0.123c-0.02,0.094-0.039,0.187-0.062,0.275
					c-0.009,0.04-0.018,0.083-0.026,0.124c-0.026,0.101-0.05,0.197-0.079,0.293c-0.007,0.021-0.012,0.043-0.018,0.064
					c-0.031,0.108-0.066,0.213-0.101,0.314c-0.016,0.042-0.031,0.081-0.043,0.118c-0.022,0.065-0.046,0.127-0.07,0.187
					c-0.017,0.041-0.035,0.083-0.051,0.123c-0.025,0.06-0.052,0.116-0.078,0.175c-0.016,0.03-0.031,0.066-0.047,0.098
					c-1.238,2.516-3.457,1.975-3.457,1.975l0.576,1.125c1.097,0.824,2.329,1.29,3.506,0.737c1.659-0.779,2.651-1.847,3.227-2.712
					L314.878,119.243z"/>
			</g>
			<g>
				<path fill="#F9CB53" d="M312.172,115.682c0,0-1.854,4.869-4.208,4.265c-3.578-0.92-5.397-5.041-5.397-5.041l-2.146,1.102
					l2.319-4.494c0.436,0.408,1.032,1.329,2.128,1.465c0.633,0.08,2.283-0.833,2.473-1.601L312.172,115.682z"/>
				<path opacity="0.53" fill="#FF9631" d="M312.172,115.682c0,0-1.854,4.869-4.208,4.265c-3.578-0.92-5.397-5.041-5.397-5.041
					l-2.146,1.102l2.319-4.494c0.436,0.408,1.032,1.329,2.128,1.465c0.633,0.08,2.283-0.833,2.473-1.601L312.172,115.682z"/>
				<path fill="#3F2436" d="M301.527,114.72l0.423,0.545c0,0-1.461,1.484-1.784,0.961c-0.325-0.524,2.447-4.545,2.574-4.713
					c0.129-0.165,0.503,0.275,0.503,0.275L301.527,114.72z"/>
				<path fill="#2A0D01" d="M303.969,112.268l-1.692,3.129c0,0,3.724,6.381,7.007,4.84c3.281-1.54,3.959-4.211,3.959-4.211
					l-5.884-5.441C307.359,110.584,305.255,113.964,303.969,112.268z"/>
				<path opacity="0.16" fill="#FFFFFF" d="M303.969,112.268l-1.692,3.129c0,0,3.724,6.381,7.007,4.84
					c3.281-1.54,3.959-4.211,3.959-4.211l-5.884-5.441C307.359,110.584,305.255,113.964,303.969,112.268z"/>
				<path opacity="0.17" fill="#3F2436" d="M304.216,112.525c0.179,0.894,0.75,2.351,2.555,3.533
					c2.475,1.618,4.802,1.955,5.337,2.015c0.893-1.096,1.135-2.048,1.135-2.048l-3.475-3.212l-2.899-1.545
					C306.231,112.077,305.095,113.228,304.216,112.525z"/>
			</g>
		</g>
		<g>
			<path fill="#F9CB53" d="M328.16,111.056c-0.242-0.326-0.858-0.073-1.136,0.065c0-0.004-0.001-0.006-0.002-0.008
				c0.387-0.24,1.446-0.952,1.002-1.298c-0.481-0.375-1.335,0.289-1.513,0.435l-0.004-0.004c0.386-0.439,1.07-1.213,0.605-1.628
				c-0.358-0.321-0.996,0.406-1.289,0.782c-0.121-0.068-0.25-0.114-0.384-0.137c0.272-1.172-0.292-1.255-0.646-1.118
				c-0.229,0.089-0.448,0.832-0.6,1.492c-4.733,2.348-7.112-1.26-7.112-1.26l-2.702,3.027c6.006,5.463,10.664,2.57,12.371,1.098
				C326.752,112.503,328.604,111.648,328.16,111.056z"/>
			<path opacity="0.53" fill="#FF9631" d="M328.16,111.056c-0.242-0.326-0.858-0.073-1.136,0.065c0-0.004-0.001-0.006-0.002-0.008
				c0.387-0.24,1.446-0.952,1.002-1.298c-0.481-0.375-1.335,0.289-1.513,0.435l-0.004-0.004c0.386-0.439,1.07-1.213,0.605-1.628
				c-0.358-0.321-0.996,0.406-1.289,0.782c-0.121-0.068-0.25-0.114-0.384-0.137c0.272-1.172-0.292-1.255-0.646-1.118
				c-0.229,0.089-0.448,0.832-0.6,1.492c-4.733,2.348-7.112-1.26-7.112-1.26l-2.702,3.027c6.006,5.463,10.664,2.57,12.371,1.098
				C326.752,112.503,328.604,111.648,328.16,111.056z"/>
			<path fill="#D83D22" d="M318.706,109.036c0,0,3.314,1.731,5.339,0.606c0,0-0.901,3.385,0.268,4.344c0,0,1.213-0.452,2.104-1.216
				c0,0-1.104,1.891-2.037,2.194c-0.937,0.302-5.319,0.32-7.369-1.367L318.706,109.036z"/>
			<path opacity="0.08" fill="#3F2436" d="M318.706,109.036c0,0,3.314,1.731,5.339,0.606c0,0-0.901,3.385,0.268,4.344
				c0,0,1.213-0.452,2.104-1.216c0,0-1.104,1.891-2.037,2.194c-0.937,0.302-5.319,0.32-7.369-1.367L318.706,109.036z"/>
			<path fill="#F9CB53" d="M324.313,113.986c-1.169-0.959-0.268-4.344-0.268-4.344c-0.429,0.239-0.916,0.349-1.418,0.374
				c-0.414,1.317-0.938,3.543-0.381,5.096c0.982,0.036,1.79-0.036,2.133-0.147c0.934-0.304,2.037-2.194,2.037-2.194
				C325.526,113.534,324.313,113.986,324.313,113.986z"/>
			<path opacity="0.17" fill="#3F2436" d="M318.706,109.036l-0.432,1.158c1.416,0.197,2.879,0.157,4.191-0.175
				C320.647,110.05,318.706,109.036,318.706,109.036z"/>
			<path opacity="0.35" fill="#D83D22" d="M326.059,110.175c1.047,0.401,1.094,1.952-0.166,1.804
				C324.633,111.831,324.663,109.637,326.059,110.175z"/>
		</g>
		<g>
			<path fill="#D83D22" d="M309.425,105.478c1.988-1.482,7.974,0.662,9.505,2.301c1.532,1.644-3.542,12.072-3.542,12.072
				l-3.183-0.415c-1.866-0.354-5.515-4.347-5.515-4.347l0.812-2.234l-0.034,0.067c-0.365,0.73-0.891,1.373-1.536,1.874l0,0
				l-2.135-2.822c0,0,1.638-0.014,2.424-1.533C307.199,108.549,308.416,106.231,309.425,105.478z"/>
			<g>
				<path fill="#F9CB53" d="M306.507,114.278c-0.848-0.951-1.538-1.845-1.977-2.439c-0.418,0.131-0.733,0.135-0.733,0.135
					l2.135,2.822C306.136,114.637,306.325,114.462,306.507,114.278z"/>
				<path fill="#F9CB53" d="M315.749,119.09c-0.965,0.097-2.447-0.005-4.392-0.867c-1.604-0.713-3.211-2.161-4.51-3.568
					l-0.157,0.435c0,0,3.648,3.993,5.515,4.347l3.183,0.415C315.388,119.851,315.526,119.568,315.749,119.09z"/>
			</g>
			<path fill="#2A0D01" d="M315.311,107.753c0,0-2.447,1.539-4.416,1.115c-0.146-0.033-0.285,0.08-0.278,0.229l0,0
				c0.004,0.121,0.099,0.217,0.219,0.219c0.724,0.027,3.172,0.003,5.064-1.396L315.311,107.753z"/>
			<g>
				<path fill="#F9CB53" d="M311.765,108.197c0.295,0.29-0.024,0.782-0.44,0.452C310.907,108.314,311.473,107.906,311.765,108.197z"
					/>
				<path fill="#F9CB53" d="M312.487,109.55c0.295,0.289-0.025,0.784-0.443,0.45C311.627,109.667,312.193,109.259,312.487,109.55z"
					/>
				<path fill="#F9CB53" d="M311.578,108.404c0,0,0.434,1.125,0.89,1.463l-0.207,0.175c0,0-0.867-0.965-0.863-1.578L311.578,108.404
					z"/>
			</g>
			<g>
				<path fill="#F9CB53" d="M313.124,107.851c0.292,0.29-0.026,0.786-0.442,0.452C312.266,107.971,312.829,107.561,313.124,107.851z
					"/>
				<path fill="#F9CB53" d="M313.843,109.205c0.295,0.288-0.024,0.783-0.442,0.45C312.984,109.323,313.55,108.914,313.843,109.205z"
					/>
				<path fill="#F9CB53" d="M312.935,108.061c0,0,0.434,1.125,0.891,1.461l-0.208,0.174c0,0-0.867-0.963-0.863-1.578
					L312.935,108.061z"/>
			</g>
			<path fill="#2A0D01" d="M317.32,115.481c-4.265,0.152-9.495-4.054-10.959-5.309c-0.048,0.089-0.095,0.179-0.14,0.268
				c-0.124,0.243-0.273,0.442-0.432,0.613c4.822,4.697,9.975,5.428,11.072,5.533C317.012,116.231,317.167,115.861,317.32,115.481z"
				/>
			<path opacity="0.17" fill="#3F2436" d="M318.93,107.778c-1.531-1.639-7.517-3.783-9.505-2.301
				c-0.328,0.246-0.708,0.649-1.094,1.146c1.324,1.098,3.11,1.853,4.979,2.348l3.484,0.926c0.72,0.19,1.474,0.317,2.229,0.38
				C319.29,109.132,319.325,108.201,318.93,107.778z"/>
		</g>
		<g>
			<path fill="#F9CB53" d="M310.174,106.445c0,0-4.45-0.054-4.518-3.709c0.463-0.553,1.093-1.375,1.01-1.647
				c-0.116-0.37-0.553-0.77-1.352,0.32l-0.301,0.066c0.012-0.612-0.158-1.194-0.584-1.266c-0.615-0.104-0.668,0.532-0.77,1.087
				c0,0,0.261-0.866-0.389-1.024c-0.627-0.153-0.58,1.146-0.564,1.263c-0.008-0.065-0.078-0.784-0.583-0.766
				c-0.723,0.023-0.342,1.679-0.342,1.679h0.006c-0.174,1.229-0.429,6.526,7.858,7.305L310.174,106.445z"/>
			<path opacity="0.53" fill="#FF9631" d="M310.174,106.445c0,0-4.45-0.054-4.518-3.709c0.463-0.553,1.093-1.375,1.01-1.647
				c-0.116-0.37-0.553-0.77-1.352,0.32l-0.301,0.066c0.012-0.612-0.158-1.194-0.584-1.266c-0.615-0.104-0.668,0.532-0.77,1.087
				c0,0,0.261-0.866-0.389-1.024c-0.627-0.153-0.58,1.146-0.564,1.263c-0.008-0.065-0.078-0.784-0.583-0.766
				c-0.723,0.023-0.342,1.679-0.342,1.679h0.006c-0.174,1.229-0.429,6.526,7.858,7.305L310.174,106.445z"/>
			<path opacity="0.53" fill="#FF9631" d="M305.918,104.062c-0.087-0.212-0.156-0.441-0.201-0.695
				c-0.413,0.449-2.07,1.981-3.983,0.057c0.026,0.933,0.266,2.25,1.234,3.451l1.251,0.436l1.946-1.306L305.918,104.062z"/>
			<path opacity="0.35" fill="#D83D22" d="M304.625,102.392c0.668,1.031-0.607,1.636-1.586,0.857
				C302.064,102.472,303.959,101.358,304.625,102.392z"/>
			<path fill="#D83D22" d="M305.925,103.533c0,0-2.196,2.666-3.945,1.501l-0.225-1.164c0,0-1.04,1.151-1.094,1.576
				c-0.056,0.425,3.294,5.102,9.216,4.579l0.481-3.765C310.359,106.261,307.464,106.227,305.925,103.533z"/>
			<path fill="#F9CB53" d="M306.687,104.562c-0.276-0.291-0.533-0.63-0.762-1.028c0,0-2.196,2.666-3.945,1.501l-0.225-1.164
				c0,0-1.04,1.151-1.094,1.576c-0.03,0.212,0.808,1.508,2.402,2.672C304.748,107.556,306.118,105.518,306.687,104.562z"/>
			<path opacity="0.17" fill="#3F2436" d="M310.162,107.805l0.196-1.544c0,0-2.115-0.025-3.691-1.719
				C307.342,105.957,308.614,107.02,310.162,107.805z"/>
			<path opacity="0.43" fill="#3F2436" d="M301.98,105.034l-0.156-0.816c-0.334,0.295-1.108,1.053-0.845,1.501
				c0.205,0.352,3.021,0.499,4.946-2.186C305.925,103.533,303.729,106.199,301.98,105.034z"/>
		</g>
		<g>
			<g>
				<path fill="#2A0D01" d="M302.388,92.013c0,0-0.918,0.011-1.33-1.274c-0.411-1.285,0.091-1.889,0.091-1.889
					s-0.166,1.232,0.248,1.824c0,0-0.433-1.481,0.438-2.233c0,0,1.563,0.381,1.703,1.63C303.68,91.32,303.058,92.165,302.388,92.013
					z"/>
				<path fill="#2A0D01" d="M310.241,94.009c0,0-1.543-1.09-2.583-0.496c-1.038,0.589-1.08,1.322-1.08,1.322
					s-0.292-1.452-1.37-1.771c-1.078-0.318-1.516,0.268-1.516,0.268s0.59-1.205-0.327-1.763c-0.915-0.56-2.383,1.818-0.555,2.335
					c0,0-0.585,1.803,1.277,2.634c1.861,0.83,2.326-0.644,2.326-0.644s0.588,2.681,2.187,2.594
					C310.202,98.399,310.241,94.009,310.241,94.009z"/>
			</g>
			<g>
				<g>
					<path fill="#F9CB53" d="M324.257,94.694c0,0,3.873-4.997,6.906-1.812c3.034,3.186-2.761,6.806-5.915,4.729L324.257,94.694z"/>
					<path opacity="0.53" fill="#FF9631" d="M324.257,94.694c0,0,3.873-4.997,6.906-1.812c3.034,3.186-2.761,6.806-5.915,4.729
						L324.257,94.694z"/>
					<path fill="#2A0D01" d="M331.163,92.883c-1.001-1.053-2.095-1.212-3.111-0.951c0.049,1.651,0.483,3.893,2.235,5.448
						C331.909,96.357,332.76,94.562,331.163,92.883z"/>
					<path fill="#F9CB53" d="M325.58,95.873c-0.104-0.056,3.114-3.349,4.03-1.509c0.918,1.838-3.6,2.78-3.6,2.78L325.58,95.873z"/>
					<path opacity="0.45" fill="#D83D22" d="M325.58,95.873c-0.104-0.056,3.114-3.349,4.03-1.509c0.918,1.838-3.6,2.78-3.6,2.78
						L325.58,95.873z"/>
				</g>
				<g>
					<path fill="#F9CB53" d="M314.423,91.14c0,0,0.264-6.315-4.109-5.836c-4.373,0.476-2.28,6.979,1.471,7.427L314.423,91.14z"/>
					<path opacity="0.53" fill="#FF9631" d="M314.423,91.14c0,0,0.264-6.315-4.109-5.836c-4.373,0.476-2.28,6.979,1.471,7.427
						L314.423,91.14z"/>
					<path fill="#2A0D01" d="M310.314,85.304c1.446-0.159,2.384,0.426,2.992,1.277c-1.103,1.232-2.882,2.664-5.223,2.723
						C307.502,87.475,308.01,85.554,310.314,85.304z"/>
					<path fill="#F9CB53" d="M312.654,91.189c0.114,0.021-0.221-4.57-2.108-3.756c-1.888,0.813,0.958,4.447,0.958,4.447
						L312.654,91.189z"/>
					<path opacity="0.45" fill="#D83D22" d="M312.654,91.189c0.114,0.021-0.221-4.57-2.108-3.756
						c-1.888,0.813,0.958,4.447,0.958,4.447L312.654,91.189z"/>
				</g>
				<g>
					<g>
						<path fill="#F9CB53" d="M318.289,90.815l3.934,1.666c5.437,1.696,6.192,7.444,4.376,11.651l-0.687,1.47
							c-0.697,5.548-6.331,5.059-10.652,3.231l-3.358-1.421c-4.319-1.824-8.285-4.193-5.758-9.348l0.543-1.257
							C309.416,89.367,313.97,88.986,318.289,90.815z"/>
						<path opacity="0.53" fill="#FF9631" d="M318.289,90.815l3.934,1.666c5.437,1.696,6.192,7.444,4.376,11.651l-0.687,1.47
							c-0.697,5.548-6.331,5.059-10.652,3.231l-3.358-1.421c-4.319-1.824-8.285-4.193-5.758-9.348l0.543-1.257
							C309.416,89.367,313.97,88.986,318.289,90.815z"/>
						<g opacity="0.84">
							<path fill="#3F2436" d="M307.303,100.407c-0.055-0.478-0.905-0.533-1.831-0.445c-0.176,0.843-0.146,1.601,0.045,2.28
								C306.529,101.537,307.35,100.829,307.303,100.407z"/>
							<path fill="#3F2436" d="M306.144,98.065c-0.179,0.364-0.322,0.713-0.438,1.051c1.374-0.695,2.755-1.473,2.709-1.75
								c-0.035-0.204-0.833-0.294-1.828-0.327L306.144,98.065z"/>
						</g>
						<g opacity="0.84">
							<path fill="#3F2436" d="M324.895,103.391c-0.207,0.178,0.305,1.573,0.882,2.948c0.056-0.233,0.102-0.478,0.136-0.736
								l0.596-1.276C325.725,103.709,325.054,103.257,324.895,103.391z"/>
							<path fill="#3F2436" d="M325.479,107.284c-0.655-0.666-1.345-1.182-1.695-0.85c-0.326,0.307-0.121,1.474,0.228,2.735
								C324.632,108.73,325.135,108.112,325.479,107.284z"/>
						</g>
						<g opacity="0.84">
							<path fill="#3F2436" d="M314.23,92.203c0.23-0.289,0.332-1.2,0.365-2.301c-0.541-0.02-1.076,0.014-1.601,0.114
								C313.371,91.367,313.857,92.672,314.23,92.203z"/>
							<path fill="#3F2436" d="M312.211,93.932c0.781-0.268,0.753-2.199,0.574-3.87c-0.977,0.224-1.918,0.685-2.795,1.445
								C310.561,92.778,311.403,94.21,312.211,93.932z"/>
							<path fill="#3F2436" d="M309.423,93.759c0.271-0.387,0.291-1.162,0.221-1.934c-0.375,0.369-0.738,0.8-1.088,1.29
								C308.882,93.719,309.202,94.075,309.423,93.759z"/>
						</g>
						<g opacity="0.84">
							<path fill="#3F2436" d="M325.847,94.877c-0.323-0.403-0.697-0.775-1.122-1.108c-0.66,0.834-1.143,1.565-1.152,1.929
								C323.554,96.281,324.711,95.642,325.847,94.877z"/>
							<path fill="#3F2436" d="M327.352,98.331c-0.563,0.554-1.067,1.176-1.111,1.653c-0.037,0.417,0.522,0.307,1.242,0.001
								C327.487,99.429,327.445,98.875,327.352,98.331z"/>
							<path fill="#3F2436" d="M323.999,98.319c0.438,0.736,2.009,0.182,3.267-0.422c-0.229-1.026-0.646-1.995-1.277-2.841
								C324.794,96.207,323.583,97.623,323.999,98.319z"/>
						</g>
						<g>
							<path fill="#FFFFFF" d="M321.615,102.689L321.615,102.689c0.978,0.329,2.042-0.211,2.378-1.207l0.323-0.955
								c0.336-0.995-0.182-2.07-1.158-2.397l0,0c-0.977-0.329-2.041,0.211-2.377,1.205l-0.324,0.955
								C320.119,101.286,320.639,102.359,321.615,102.689z"/>
							<path fill="#3F2436" d="M320.781,99.335c0.182-0.539,0.577-0.941,1.056-1.148c0.157-0.005,0.314,0.017,0.467,0.067
								c0.861,0.29,1.264,1.403,0.898,2.488c-0.369,1.084-1.362,1.727-2.225,1.437c-0.078-0.025-0.15-0.062-0.223-0.101
								c-0.378-0.486-0.513-1.15-0.298-1.788L320.781,99.335z"/>
						</g>
						<g>
							<path fill="#FFFFFF" d="M312.123,99.172L312.123,99.172c-0.958-0.38-1.419-1.481-1.029-2.46l0.373-0.935
								c0.39-0.977,1.48-1.459,2.438-1.078l0,0c0.957,0.38,1.419,1.479,1.029,2.455l-0.373,0.938
								C314.172,99.07,313.081,99.552,312.123,99.172"/>
							<path fill="#3F2436" d="M314.935,97.155c0.21-0.527,0.17-1.093-0.061-1.559c-0.116-0.105-0.251-0.192-0.4-0.251
								c-0.845-0.336-1.874,0.253-2.297,1.317c-0.423,1.061-0.083,2.196,0.763,2.532c0.078,0.031,0.156,0.05,0.236,0.067
								c0.602-0.126,1.137-0.547,1.386-1.171L314.935,97.155z"/>
						</g>
						<path opacity="0.71" fill="#F9CB53" d="M314.643,99.851c0,0,2.751-5.164,4.351-4.376c2.054,1.011,0.635,6.505,0.635,6.505
							S315.65,101.36,314.643,99.851z"/>
						<path opacity="0.15" fill="#3F2436" d="M325.203,94.275c-1.332,0.691-3.565,0.734-5.877-0.021
							c-2.766-0.9-4.769-2.657-5.021-4.24c1.321-0.055,2.672,0.245,3.983,0.802l3.934,1.666
							C323.462,92.869,324.443,93.494,325.203,94.275z"/>
						<path fill="#F9CB53" d="M317.488,100.014c4.524,1.698,2.863,8.465-2.953,5.65C310.802,103.859,312.961,98.317,317.488,100.014
							z"/>
						<path opacity="0.64" fill="#FFFFFF" d="M317.488,100.014c4.524,1.698,2.863,8.465-2.953,5.65
							C310.802,103.859,312.961,98.317,317.488,100.014z"/>
						<path fill="none" stroke="#3F2436" stroke-miterlimit="10" d="M317.09,100.948c0,0-0.33,1.317-0.776,1.681"/>
						<g>
							<path fill="#3F2436" d="M318.319,102.431c-1.229-0.616-1.656,0.325-2.132,0.032c-0.479-0.298-0.757-1.327-1.683-1.053
								c-0.926,0.271-1.746,3.172,1.824,3.846C318.826,105.727,319.544,103.045,318.319,102.431z"/>
							<path fill="#D83D22" d="M313.811,102.25c0.386,0.035,0.782,0.127,1.168,0.293c1.258,0.538,2.067,1.645,2.143,2.757
								c-0.242,0.021-0.505,0.01-0.793-0.044C313.844,104.786,313.487,103.239,313.811,102.25z"/>
							<path fill="#FFFFFF" d="M318.705,102.775c-0.095-0.144-0.223-0.263-0.387-0.345c-1.229-0.616-1.656,0.325-2.132,0.032
								c-0.479-0.298-0.757-1.327-1.683-1.053c-0.065,0.018-0.131,0.053-0.193,0.097c0.048,0.261,0.15,0.516,0.295,0.756
								c-0.105,0.307-0.172,0.569-0.006,0.617c0.146,0.047,0.279,0.05,0.406-0.111c0.239,0.233,0.528,0.435,0.863,0.576
								c0.465,0.198,0.948,0.263,1.393,0.21c0.035,0.271,0.138,0.442,0.266,0.458c0.18,0.025,0.361-0.294,0.51-0.693
								C318.298,103.188,318.528,103.004,318.705,102.775z"/>
						</g>
						<path opacity="0.35" fill="#D83D22" d="M320.36,104.14c-0.215,0.755,0.437,1.597,1.455,1.88s2.021-0.102,2.236-0.855
							c0.215-0.757-0.435-1.6-1.454-1.881C321.578,102.999,320.577,103.382,320.36,104.14z"/>
						<path opacity="0.35" fill="#D83D22" d="M308.474,98.866c-0.425,0.659-0.043,1.654,0.849,2.219
							c0.896,0.563,1.965,0.485,2.39-0.176c0.424-0.662,0.043-1.656-0.849-2.219C309.968,98.124,308.899,98.203,308.474,98.866z"/>
						<path fill="#3F2436" d="M319.442,100.711c0.334,0.666-1.934,1.131-2.56,0.746c-0.628-0.388-2.188-1.643-1.603-2.202
							C315.868,98.695,319.108,100.044,319.442,100.711z"/>
						<path opacity="0.64" fill="#FFFFFF" d="M317.459,99.871c0,0,1.193,0.307,1.062,0.496
							C318.388,100.554,317.084,100.077,317.459,99.871z"/>
					</g>
					<g>
						<path fill="#3F2436" d="M324.527,94.226c0,0,1.995-4.374-2.937-6.53c-4.89-2.139-6.945,2.833-6.945,2.833
							S318.762,94.923,324.527,94.226z"/>
						<path opacity="0.08" fill="#3F2436" d="M314.645,90.528c0,0,0.336-0.811,1.058-1.638c2.235,2.533,7.738,3.517,9.202,3.738
							c-0.077,0.936-0.378,1.597-0.378,1.597C318.762,94.923,314.645,90.528,314.645,90.528z"/>
						
							<line opacity="0.18" fill="none" stroke="#3F2436" stroke-width="0.5" stroke-miterlimit="10" x1="321.421" y1="87.747" x2="319.698" y2="92.464"/>
						<path opacity="0.18" fill="none" stroke="#3F2436" stroke-width="0.5" stroke-miterlimit="10" d="M323.107,93.807
							c0,0,1.464-3.646-1.517-6.111"/>
						<path opacity="0.18" fill="none" stroke="#3F2436" stroke-width="0.5" stroke-miterlimit="10" d="M315.971,90.664
							c0,0,0.7-3.375,5.135-3.034"/>
						<path fill="#D83D22" d="M321.801,87.918c0,0,0.184-0.347-0.254-0.507c-0.369-0.135-0.506,0.234-0.506,0.234
							S321.28,87.979,321.801,87.918z"/>
						<path fill="#D83D22" d="M314.645,90.528c0,0,0.266-0.639,0.829-1.359c2.445,2.492,7.16,3.396,9.408,3.693
							c-0.104,0.809-0.355,1.363-0.355,1.363C318.762,94.923,314.645,90.528,314.645,90.528z"/>
					</g>
				</g>
			</g>
		</g>
	</g>
	<g>
		<g>
			<rect x="175.992" y="89.665" fill="#CB3839" width="5.189" height="29.767"/>
			<rect x="174.473" y="88.134" fill="#FFBC27" width="8.535" height="1.531"/>
			<rect x="174.473" y="119.432" fill="#FFBC27" width="8.535" height="1.53"/>
			<rect x="177.1" y="85.07" fill="#D18B00" width="2.734" height="3.063"/>
			<rect x="177.1" y="120.962" fill="#D18B00" width="2.734" height="3.064"/>
			<rect x="175.992" y="89.942" fill="#99202C" width="1.297" height="29.768"/>
		</g>
		<g>
			<rect x="300.149" y="89.665" fill="#CB3839" width="5.189" height="29.767"/>
			<rect x="298.629" y="88.134" fill="#FFBC27" width="8.533" height="1.531"/>
			<rect x="298.629" y="119.432" fill="#FFBC27" width="8.533" height="1.53"/>
			<rect x="301.256" y="85.07" fill="#D18B00" width="2.734" height="3.063"/>
			<rect x="301.256" y="120.962" fill="#D18B00" width="2.734" height="3.064"/>
			<rect x="304.041" y="89.665" fill="#99202C" width="1.297" height="29.767"/>
		</g>
		<rect x="181.182" y="89.665" fill="#AF1E26" width="118.967" height="29.767"/>
		<rect x="181.182" y="92.934" fill="#FFFEE6" width="118.967" height="23.103"/>
	</g>
	<g>
		<g>
			<g>
				<rect id="SVGID_5_" x="234.403" y="101.169" fill="#0F5C9E" width="3.645" height="1.068"/>
			</g>
			<g>
				<defs>
					<rect id="SVGID_14_" x="234.403" y="101.169" width="3.645" height="1.068"/>
				</defs>
				<clipPath id="SVGID_7_">
					<use xlink:href="#SVGID_14_"  overflow="visible"/>
				</clipPath>
				<rect x="234.403" y="101.169" clip-path="url(#SVGID_7_)" fill="#0F5C9E" width="3.645" height="1.068"/>
			</g>
		</g>
		<path fill="#0F5C9E" d="M231.03,109.26l0.709-1.066h4.801l-1.244,0.798l0.533,0.356l0.621,0.354
			c-1.066,0.179-2.221,0.357-3.287,0.357l-2.934,0.176C230.584,109.881,230.852,109.614,231.03,109.26 M225.16,106.859v1.421h4.801
			c-0.443,0.625-0.979,1.334-1.777,2.045c-0.178,0-0.443,0.09-0.889,0.09h-1.066l0.266,1.509c1.6-0.264,3.467-0.354,5.689-0.354
			c1.865-0.176,3.734-0.354,5.688-0.533l0.623,0.445l0.801,0.711l1.064-1.156c-1.598-1.244-2.842-2.131-3.82-2.665h4.176v-1.423
			H225.16V106.859z"/>
		<polygon fill="#0F5C9E" points="226.229,96.993 226.229,98.147 231.918,98.147 231.918,99.037 225.516,99.037 225.516,104.193 
			227.295,104.193 227.295,100.192 231.918,100.192 231.918,104.015 233.783,104.015 233.783,100.192 238.674,100.192 
			238.674,104.015 240.449,104.015 240.449,99.037 233.783,99.037 233.783,98.147 239.471,98.147 239.471,96.993 		"/>
		<rect x="226.674" y="104.814" fill="#0F5C9E" width="12.531" height="1.158"/>
		<g>
			<g>
				<rect id="SVGID_4_" x="227.828" y="101.081" fill="#0F5C9E" width="3.555" height="1.068"/>
			</g>
			<g>
				<defs>
					<rect id="SVGID_16_" x="227.828" y="101.081" width="3.555" height="1.068"/>
				</defs>
				<clipPath id="SVGID_9_">
					<use xlink:href="#SVGID_16_"  overflow="visible"/>
				</clipPath>
				<rect x="227.828" y="101.081" clip-path="url(#SVGID_9_)" fill="#0F5C9E" width="3.555" height="1.068"/>
			</g>
		</g>
		<g>
			<g>
				<rect id="SVGID_3_" x="227.828" y="103.038" fill="#0F5C9E" width="3.555" height="1.064"/>
			</g>
			<g>
				<defs>
					<rect id="SVGID_18_" x="227.828" y="103.038" width="3.555" height="1.064"/>
				</defs>
				<clipPath id="SVGID_11_">
					<use xlink:href="#SVGID_18_"  overflow="visible"/>
				</clipPath>
				<rect x="227.828" y="103.038" clip-path="url(#SVGID_11_)" fill="#0F5C9E" width="3.555" height="1.064"/>
			</g>
		</g>
		<g>
			<g>
				<rect id="SVGID_2_" x="234.403" y="103.038" fill="#0F5C9E" width="3.645" height="1.064"/>
			</g>
			<g>
				<defs>
					<rect id="SVGID_20_" x="234.403" y="103.038" width="3.645" height="1.064"/>
				</defs>
				<clipPath id="SVGID_13_">
					<use xlink:href="#SVGID_20_"  overflow="visible"/>
				</clipPath>
				<rect x="234.403" y="103.038" clip-path="url(#SVGID_13_)" fill="#0F5C9E" width="3.645" height="1.064"/>
			</g>
		</g>
		<path fill="#0F5C9E" d="M248.625,102.327v1.333h4.09l-0.18,0.533c-0.09,0.355-0.176,0.621-0.354,0.801h-3.379v7.11h1.512v-5.78
			h1.242v5.245h1.336v-5.245h1.154v5.245h1.332v-5.245h1.244v3.823c0,0.268-0.176,0.445-0.443,0.445h-0.711l0.355,1.419h0.891
			c0.887,0,1.332-0.53,1.332-1.597v-5.421h-4.268l0.18-0.713l0.178-0.621h4.443v-1.333H248.625z M243.471,102.149
			c0.088,0.622,0.268,1.511,0.355,2.755l0.266,3.467l1.424-0.445c0-0.266,0-0.532-0.09-0.801c-0.088-2.131-0.266-3.91-0.531-5.33
			L243.471,102.149z M246.582,102.327c-0.268,2.133-0.535,4.177-0.891,6.133c0,0.179-0.088,0.445-0.088,0.711
			c-0.266,0.089-0.709,0.264-1.156,0.356l-1.244,0.265l0.355,1.602l2.668-0.801c0.709-0.178,1.512-0.445,2.221-0.712v-1.601
			l-0.621,0.268l-0.621,0.267l0.533-3.285c0.176-0.891,0.355-2.138,0.531-3.559l-1.51-0.268
			C246.582,101.883,246.582,102.149,246.582,102.327 M244.448,97.615c0.27,0.443,0.533,1.067,0.801,1.867h-1.867v1.423h5.066v-1.423
			h-1.598c0-0.088-0.09-0.178-0.09-0.268c-0.09-0.442-0.268-0.709-0.268-0.888l-0.268-0.712c-0.09-0.085-0.09-0.269-0.178-0.441
			L244.448,97.615z M252.715,96.993v2.845h-2.313v-2.491h-1.508v3.822h9.152v-3.822h-1.51v2.491h-2.225v-2.845H252.715z"/>
		<path fill="#0F5C9E" d="M264.178,105.792v1.245h6.936l-1.602,0.445c-0.621,0.178-1.066,0.266-1.242,0.266v0.712h-7.201v1.332
			h7.201v0.623c0,0.355-0.178,0.446-0.535,0.446l-2.311-0.091l0.355,1.334h2.402c0.975,0,1.508-0.444,1.508-1.424v-0.355v-0.623
			h6.846v-1.331h-6.846c1.332-0.445,2.486-0.889,3.557-1.423v-1.156H264.178z M269.867,100.726c-0.178,0.18-0.355,0.267-0.623,0.443
			c-0.174-0.177-0.354-0.264-0.707-0.532l-0.535-0.354l-0.889,0.71l0.533,0.357l0.535,0.445l-0.09,0.088
			c-0.445,0.177-0.891,0.354-1.248,0.444c-0.086,0-0.176,0-0.354,0.089l0.711,1.065c0.09,0,0.09-0.09,0.178-0.09
			c0.891-0.267,1.42-0.62,1.777-0.887l0.443,0.356l0.443,0.53l1.07-0.798l-0.445-0.267l-0.445-0.444l0.535-0.445l0.621-0.532
			l-0.889-0.713L269.867,100.726z M262.137,97.615l0.178,6.221h-0.803v3.646h1.514v-2.399h11.912v2.399h1.508v-3.646h-0.889
			l0.176-6.397h-4.086v1.334h2.664v0.889h-2.398v1.154h2.398v0.888h-2.398v1.158h2.311v1.065h-10.398v-1.065h2.488v-1.245h-2.488
			v-0.891h2.576v-1.154h-2.576v-0.799c1.334-0.09,2.313-0.18,2.934-0.445l-0.711-1.153C264.891,97.347,263.645,97.53,262.137,97.615
			 M267.024,97.703l0.533,0.355l0.535,0.447c-0.09,0.087-0.357,0.177-0.801,0.356l-1.068,0.353l0.801,1.067l1.068-0.532
			c0.445-0.179,0.707-0.355,0.889-0.445l0.443,0.356l0.443,0.531l0.977-0.71l-0.354-0.533l-0.447-0.356l0.535-0.355
			c0.18-0.09,0.266-0.267,0.535-0.443l-0.891-0.801c-0.18,0.267-0.355,0.445-0.445,0.445l-0.533,0.443l-0.707-0.535l-0.627-0.354
			L267.024,97.703z"/>
		<path fill="#0F5C9E" d="M284.801,104.368v1.424h2.219v0.09v0.178c0,1.243-0.262,2.221-0.797,2.932
			c-0.533,0.711-1.512,1.334-2.844,1.779l0.977,1.334c1.512-0.623,2.578-1.424,3.197-2.313c0.625-0.887,0.98-2.044,0.98-3.468
			v-0.175v-0.268v-0.09h1.154v4.178c0,0.711,0.178,1.245,0.443,1.512c0.268,0.268,0.713,0.356,1.248,0.356h0.174h0.625
			c0.799,0,1.33-0.089,1.689-0.356c0.354-0.267,0.443-1.246,0.443-2.843v-0.268v-0.091l-1.334-0.354c0,1.334,0,2.134-0.092,2.31
			c-0.086,0.18-0.266,0.269-0.707,0.269h-0.354c-0.359,0-0.625-0.179-0.625-0.534v-4.178h3.199v-1.424H284.801z M279.377,97.615
			v14.489h1.6V98.949h1.779l-0.445,1.776c-0.178,0.624-0.355,1.245-0.623,1.868c0.891,1.6,1.424,2.844,1.424,3.556
			c0,0.442-0.178,0.71-0.443,0.799c0,0-0.09,0-0.178,0c-0.09,0-0.18,0-0.27,0c-0.354,0-0.709,0-0.977-0.089l0.443,1.512
			c0.09,0,0.268,0,0.533,0c1.602,0,2.4-0.711,2.4-2.222c0-0.891-0.445-2.135-1.334-3.645c0.18-0.534,0.445-1.155,0.623-1.955
			l0.533-2.044v-0.891H279.377z M286.311,99.928h6.309v1.6h-6.309V99.928z M287.91,97.174l0.357,0.62
			c0.088,0.088,0.178,0.265,0.266,0.443c0,0.09,0.088,0.09,0.088,0.269h-3.82v3.554h1.242v0.802h6.842v-0.712h1.248v-3.644h-4.002
			l-0.266-0.803c-0.092-0.265-0.178-0.443-0.354-0.71L287.91,97.174z"/>
		<path fill="#0F5C9E" d="M193.787,104.814c-0.09,0.18-0.09,0.355-0.09,0.533c0,0.269,0.09,0.444,0.266,0.625
			c0.18,0.263,0.445,0.352,0.713,0.352c0.176,0,0.268,0,0.357-0.089c0.443-0.263,0.533-0.532,0.533-0.977c0-0.089,0-0.265,0-0.444
			c-0.178-0.533-0.623-0.712-0.98-0.712C194.233,104.281,193.875,104.46,193.787,104.814 M198.764,104.103
			c-0.352,0.266-0.352,0.446-0.443,0.892c0.092,0.354,0,0.535,0.264,0.798c0.18,0.181,0.359,0.268,0.625,0.268
			c0.445,0,0.621-0.178,0.889-0.53c0.09-0.182,0.09-0.359,0.09-0.535c0-0.268-0.09-0.534-0.268-0.713s-0.445-0.354-0.711-0.354
			C199.121,104.015,198.944,104.015,198.764,104.103 M193.698,102.237v0.978h2.314v3.109l-0.094,0.624
			c-0.264,1.067-1.42,2.043-2.131,2.223v2.934c0.977-0.801,1.689-1.689,2.043-2.934h0.182v2.934h1.775v-9.066v-0.801H193.698z
			 M198.5,102.237v0.978h2.309v3.109l-0.088,0.624c-0.268,1.067-1.424,2.043-2.137,2.223v2.934c0.98-0.801,1.689-1.689,2.047-2.934
			h0.178v2.934h1.777v-9.066v-0.801H198.5z M188.365,105.438c-0.088-0.179-0.088-0.623-0.088-0.889h2.844c0,0,0,0.09,0,0.266
			c0,0.269-0.09,0.533-0.268,0.889c-0.354,0.446-0.709,0.621-1.51,0.621C188.989,106.149,188.543,105.882,188.365,105.438
			 M188.278,102.06h2.844v1.155h-2.844V102.06z M188.811,97.084v1.243h-2.4v1.155h2.4v1.243h-2.4v4.357l0.268,1.066
			c0.799,1.065,1.334,1.244,2.133,1.421v1.157h-2.4v1.064h2.4v2.313h1.865v-2.402h2.311v-1.063h-2.311v-1.156
			c0.445-0.268,0.445,0.178,1.602-0.802c0,0,0.709-1.064,0.709-1.866v-4.089h-2.311v-1.243h2.311v-1.066h-2.311v-1.332H188.811z
			 M196.541,97.174c-1.508,0.356-2.309,1.599-2.754,3.019c0,0.357-0.09,0.977-0.09,0.977h1.691c0.088-0.532,0.266-0.977,0.529-1.419
			c0.535-0.888,1.424-1.334,2.225-1.334c0.27,0,0.533,0,0.801,0.09c0.977,0.443,1.598,1.422,1.865,2.575h1.689
			c-0.18-0.799-0.18-1.599-0.713-2.309l-0.441-0.625c-0.979-0.888-2.135-1.242-3.291-1.242
			C197.522,96.993,196.987,97.084,196.541,97.174"/>
		<path fill="#0F5C9E" d="M217.074,96.993v2.134h-2.936v1.155h2.936v1.513c-0.803,0.176,0,0-0.889,0.442
			c-0.979,0.444-2.047,2.044-2.047,3.466v2.668v3.733h1.691v-6.488c0-1.156,0-1.248,0.529-1.868c0.182-0.18,0.359-0.44,0.715-0.44
			v6.662v1.6v0.535h1.867v-6.667c0-0.179,0-0.443,0-0.711c0-0.624,0-1.419,0-1.419c0.619,0.261,1.154,0.886,1.154,1.687v7.11h1.777
			v-6.045v-0.53c0-1.336-1.6-3.47-2.932-3.734v-1.513h2.932v-1.155h-2.932v-2.134H217.074z M208.451,96.993v2.134h-2.844v1.155
			h2.844v1.513c-0.799,0.176,0,0-0.887,0.442c-0.979,0.444-2.047,2.044-2.047,3.466v2.668v3.733h1.689v-6.488
			c0-1.156,0-1.248,0.535-1.78c0.174-0.176,0.354-0.444,0.709-0.444v6.668v1.601v0.444h1.865v-6.667c0-0.179,0-0.443,0-0.799
			c0-0.624,0-1.424,0-1.424c0.623,0.267,1.156,0.888,1.156,1.689v7.107h1.777v-6.039v-0.535c0-1.335-1.598-3.467-2.934-3.734v-1.421
			h2.934v-1.155h-2.934v-2.134H208.451z"/>
	</g>
	<g>
		
			<ellipse transform="matrix(0.9957 0.0922 -0.0922 0.9957 11.2706 -31.49)" display="none" fill="#FFE6AE" cx="346.309" cy="106.185" rx="18.29" ry="9.11"/>
		
			<ellipse transform="matrix(0.9957 0.0922 -0.0922 0.9957 11.3358 -31.3654)" display="none" fill="none" stroke="#FFC25F" stroke-width="0.2" stroke-miterlimit="10" cx="345.092" cy="106.989" rx="18.29" ry="9.11"/>
		<text transform="matrix(1 0 0 1 328.6975 105.127)" fill="#635031" font-family="'InkFree'" font-size="8.6204">smart</text>
		<text transform="matrix(1 0 0 1 333.7249 113.1094)" fill="#635031" font-family="'InkFree'" font-size="8.6204">learning!</text>
	</g>
	<g>
		<g>
			<g>
				<path fill="#FF9631" d="M131.567,97.698l-0.924,1.369c-0.205,0.304-0.522,0.513-0.883,0.576
					c-1.184,0.207-3.997,0.379-6.883-1.778c0,0-1.603-1.48-1.907-2.836c-0.056-0.252-0.021-0.515,0.097-0.744l0.66-1.289
					C121.727,92.996,124.091,99.769,131.567,97.698z"/>
				<path opacity="0.46" fill="#FF9631" d="M129.391,98.983c4.37-0.247,1.482-6.557-4.529-6.898
					C118.145,91.702,121.872,99.408,129.391,98.983z M124.781,93.01c4.65,0.266,7.325,5.173,3.939,5.217
					C123.756,98.293,119.584,92.715,124.781,93.01z"/>
				<path fill="#F9CB53" d="M129.554,98.821c4.37-0.247,1.482-6.557-4.529-6.899C118.307,91.54,122.034,99.246,129.554,98.821z
					 M124.89,94.53h1.629l1.262,1.472h-1.708L124.89,94.53z"/>
				<path opacity="0.55" fill="#F9CB53" d="M129.554,98.821c4.37-0.247,1.482-6.557-4.529-6.899
					C118.307,91.54,122.034,99.246,129.554,98.821z M124.89,94.53h1.629l1.262,1.472h-1.708L124.89,94.53z"/>
				<path fill="#F9CB53" d="M129.554,98.821c4.37-0.247,1.482-6.557-4.529-6.899C118.307,91.54,122.034,99.246,129.554,98.821z
					 M124.944,92.848c4.65,0.266,7.325,5.172,3.938,5.217C123.918,98.13,119.746,92.552,124.944,92.848z"/>
				<path opacity="0.43" fill="#FF9631" d="M128.882,98.064c3.387-0.045,0.711-4.951-3.939-5.217
					C119.746,92.552,123.918,98.13,128.882,98.064z"/>
				<path fill="#F9CB53" d="M126.543,93.664l-3.134,0.127l2.467,2.989l3.458-0.145L126.543,93.664z M126.52,94.53l1.262,1.472
					h-1.708l-1.183-1.472H126.52z"/>
			</g>
			<polygon fill="#FF9631" points="126.968,95.978 126.355,95.11 125.383,95.11 124.89,94.53 126.52,94.53 127.781,96.002 			"/>
			<path opacity="0.46" fill="#FF9631" d="M124.944,92.848c3.948,0.226,6.47,3.795,5.07,4.896c0.137-0.403,0.193-1.02-0.265-1.736
				c-0.817-1.279-3.097-3.185-5.485-2.759c-1.052,0.188-1.479,0.733-1.65,1.187C122.345,93.479,122.961,92.735,124.944,92.848z"/>
		</g>
		<path opacity="0.57" fill="#FBF8EC" d="M131.521,96.963c0,0-0.468-2.583-2.811-3.868c-2.377-1.304-4.229-1.191-4.818-0.99
			C123.893,92.104,129.835,91.797,131.521,96.963z"/>
	</g>
	<g>
		<g>
			<g>
				<path fill="#FF9631" d="M289.74,119.837l1.176,1.741c0.26,0.386,0.663,0.651,1.122,0.731c1.505,0.263,5.081,0.482,8.749-2.26
					c0,0,2.038-1.881,2.423-3.605c0.072-0.32,0.027-0.654-0.122-0.945l-0.839-1.639C302.248,113.86,299.244,122.469,289.74,119.837z
					"/>
				<path opacity="0.46" fill="#FF9631" d="M298.263,112.701c-7.642,0.435-11.313,8.456-5.758,8.77
					C302.065,122.011,306.802,112.215,298.263,112.701z M293.359,120.509c-4.304-0.057-0.904-6.294,5.008-6.63
					C304.973,113.503,299.669,120.593,293.359,120.509z"/>
				<path fill="#F9CB53" d="M298.057,112.495c-7.642,0.436-11.313,8.456-5.758,8.77C301.859,121.805,306.595,112.01,298.057,112.495
					z M296.724,117.681h-2.172l1.604-1.87h2.071L296.724,117.681z"/>
				<path opacity="0.55" fill="#F9CB53" d="M298.057,112.495c-7.642,0.436-11.313,8.456-5.758,8.77
					C301.859,121.805,306.595,112.01,298.057,112.495z M296.724,117.681h-2.172l1.604-1.87h2.071L296.724,117.681z"/>
				<path fill="#F9CB53" d="M298.056,112.495c-7.641,0.436-11.312,8.456-5.757,8.77C301.859,121.805,306.596,112.01,298.056,112.495
					z M293.153,120.304c-4.305-0.057-0.904-6.295,5.008-6.632C304.766,113.296,299.463,120.387,293.153,120.304z"/>
				<path opacity="0.43" fill="#FF9631" d="M298.16,113.672c-5.912,0.337-9.313,6.575-5.008,6.632
					C299.463,120.387,304.766,113.296,298.16,113.672z"/>
				<path fill="#F9CB53" d="M292.578,118.487l4.396,0.184l3.137-3.801l-3.983-0.16L292.578,118.487z M298.227,115.811l-1.503,1.87
					h-2.172l1.604-1.87H298.227z"/>
			</g>
			<polygon fill="#FF9631" points="295.587,117.649 296.365,116.549 297.601,116.549 298.227,115.811 296.156,115.811 
				294.552,117.681 			"/>
			<path opacity="0.46" fill="#FF9631" d="M298.16,113.672c-5.019,0.286-8.225,4.823-6.445,6.223
				c-0.175-0.513-0.245-1.296,0.337-2.207c1.039-1.627,3.937-4.048,6.973-3.507c1.338,0.238,1.88,0.932,2.099,1.508
				C301.463,114.473,300.679,113.529,298.16,113.672z"/>
		</g>
		<path opacity="0.57" fill="#FBF8EC" d="M289.798,118.902c0,0,0.596-3.283,3.572-4.917c3.023-1.658,5.377-1.514,6.125-1.259
			C299.495,112.727,291.942,112.336,289.798,118.902z"/>
	</g>
	<g>
		<g>
			<g>
				<path fill="#FF9631" d="M189.854,93.137l-1.063,0.995c-0.236,0.22-0.549,0.337-0.87,0.32c-1.057-0.055-3.506-0.457-5.56-2.873
					c0,0-1.087-1.584-1.081-2.808c0.001-0.227,0.083-0.446,0.228-0.62l0.819-0.978C182.327,87.174,183.031,93.45,189.854,93.137z"/>
				<path opacity="0.46" fill="#FF9631" d="M187.734,93.814c3.8,0.645,2.556-5.338-2.536-6.809
					C179.506,85.362,181.197,92.706,187.734,93.814z M184.946,87.785c3.94,1.137,5.274,5.873,2.36,5.248
					C183.032,92.118,180.543,86.513,184.946,87.785z"/>
				<path fill="#F9CB53" d="M187.904,93.707c3.8,0.644,2.558-5.338-2.536-6.808C179.678,85.255,181.366,92.599,187.904,93.707z
					 M184.742,89.11l1.398,0.319l0.795,1.509l-1.467-0.333L184.742,89.11z"/>
				<path opacity="0.55" fill="#F9CB53" d="M187.904,93.707c3.8,0.644,2.558-5.338-2.536-6.808
					C179.678,85.255,181.366,92.599,187.904,93.707z M184.742,89.11l1.398,0.319l0.795,1.509l-1.467-0.333L184.742,89.11z"/>
				<path fill="#F9CB53" d="M187.904,93.707c3.8,0.644,2.558-5.338-2.536-6.808C179.678,85.255,181.367,92.599,187.904,93.707z
					 M185.116,87.677c3.941,1.138,5.275,5.874,2.36,5.249C183.202,92.01,180.714,86.406,185.116,87.677z"/>
				<path opacity="0.43" fill="#FF9631" d="M187.477,92.926c2.915,0.625,1.581-4.111-2.36-5.249
					C180.714,86.406,183.202,92.01,187.477,92.926z"/>
				<path fill="#F9CB53" d="M186.33,88.69l-2.715-0.505l1.533,3.049l2.996,0.554L186.33,88.69z M186.141,89.43l0.795,1.509
					l-1.467-0.333l-0.727-1.495L186.141,89.43z"/>
			</g>
			<polygon fill="#FF9631" points="186.241,90.759 185.886,89.896 185.051,89.705 184.742,89.11 186.141,89.43 186.936,90.938 			
				"/>
			<path opacity="0.46" fill="#FF9631" d="M185.116,87.677c3.345,0.967,4.812,4.524,3.395,5.195
				c0.195-0.319,0.363-0.839,0.112-1.543c-0.451-1.258-2.035-3.339-4.169-3.441c-0.939-0.045-1.412,0.338-1.648,0.695
				C182.763,87.709,183.438,87.192,185.116,87.677z"/>
		</g>
		<path opacity="0.57" fill="#FBF8EC" d="M189.957,92.496c0,0,0.104-2.308-1.655-3.868c-1.784-1.586-3.396-1.852-3.941-1.795
			C184.361,86.833,189.522,87.732,189.957,92.496z"/>
	</g>
	<circle fill="#CB3839" cx="68.832" cy="110.167" r="12.351"/>
	<rect x="76.345" y="109.145" fill="#CB3839" width="4.575" height="13.25"/>
	<g>
		<path fill="#FFFFFF" d="M68.836,110.31c-0.461,0.031-0.893-0.153-1.354-0.308c-2.431-0.801-4.862-1.601-7.263-2.431
			c-0.154-0.063-0.277-0.124-0.4-0.216c-0.154-0.123-0.154-0.277,0-0.4c0.123-0.093,0.277-0.185,0.431-0.216
			c2.585-0.77,5.17-1.539,7.756-2.339c0.584-0.185,1.169-0.185,1.785,0c2.554,0.77,5.14,1.539,7.694,2.308
			c0.154,0.063,0.308,0.123,0.462,0.216c0.184,0.123,0.184,0.309,0,0.432c-0.124,0.092-0.247,0.153-0.369,0.185
			c-2.555,0.861-5.14,1.724-7.725,2.554C69.513,110.248,69.205,110.31,68.836,110.31z"/>
		<path fill="#FFFFFF" d="M63.727,110.433c-0.369-0.092-0.462,0.154-0.462,0.339c0,0.984,0,1.938,0,2.924
			c0,0.339,0.124,0.554,0.339,0.77c0.092,0.092,0.185,0.153,0.277,0.215c0.616,0.432,1.323,0.708,2.062,0.894
			c1.447,0.399,2.924,0.461,4.401,0.276c0.955-0.123,1.908-0.37,2.801-0.77c0.399-0.185,0.769-0.4,1.046-0.708
			c0.185-0.185,0.277-0.369,0.246-0.646c0.031-0.924,0.031-1.878,0.031-2.832c0-0.523-0.369-0.462-0.523-0.431
			c-1.354,0.461-2.739,0.893-4.093,1.354c-0.677,0.216-1.323,0.216-2,0L63.727,110.433z"/>
		<path fill="#FFFFFF" d="M76.531,109.54c-0.124,0.031-0.154,0.092-0.154,0.215c0,0.862,0,1.724,0,2.586
			c0,0.093-0.031,0.185-0.062,0.277c-0.185,0.462-0.4,0.923-0.554,1.385c-0.154,0.431-0.062,0.861,0.246,1.2
			c0.092,0.123,0.216,0.216,0.338,0.308c0.123,0.092,0.308,0.154,0.462,0.185c0.277,0.031,0.493-0.122,0.677-0.276
			c0.093-0.093,0.185-0.185,0.277-0.277c0.215-0.277,0.277-0.677,0.185-1.047c-0.124-0.522-0.338-0.984-0.585-1.445
			c-0.061-0.094-0.092-0.216-0.092-0.309c0-0.954,0-1.877,0-2.831c0-0.186-0.154-0.154-0.216-0.123L76.531,109.54z"/>
	</g>
	<g>
		<g>
			<path fill="#FFBE3B" d="M56.49,123.167c-2.855,0-4.272-1.055-4.951-2.295c-0.968-1.769-0.435-3.916-0.435-3.916l4.072,0.83
				l4.975-0.619l1.702-0.211C61.853,116.956,63.418,123.167,56.49,123.167z"/>
			<path fill="#FF9631" d="M56.49,123.167c-2.855,0-4.272-1.055-4.951-2.295c0.448,0.433,1.008,0.756,1.599,0.965
				c0.865,0.307,1.796,0.386,2.714,0.374c1.066-0.017,2.198-0.18,3.012-0.867c0.633-0.537,0.999-1.337,1.16-2.149
				c0.132-0.667,0.141-1.348,0.128-2.027l1.702-0.211C61.853,116.956,63.418,123.167,56.49,123.167z"/>
			<path fill="#FFD488" d="M53.165,115.902c0.804-0.034,1.602,0.129,2.405,0.172c1.134,0.061,2.263-0.115,3.395-0.122
				c0.974-0.005,3.855,0.313,2.616,1.935c-1.018,1.331-3.281,1.784-4.847,1.787c-1.443,0.004-2.877-0.362-4.175-0.991
				c-0.595-0.289-1.172-0.664-1.411-1.313c-0.187-0.509,0.139-0.947,0.603-1.16C52.177,116.015,52.698,115.92,53.165,115.902z"/>
		</g>
		<g>
			<path fill="#FFBE3B" d="M59.545,117.469c-0.137,0.284-0.46,0.42-0.761,0.514c-0.625,0.196-1.278,0.315-1.938,0.353
				c-1.157,0.063-2.33-0.125-3.385-0.592c-0.312-0.139-0.422-0.393-0.361-0.716c0.186-0.965,0.822-1.832,1.686-2.298
				c0.785-0.422,1.744-0.506,2.592-0.237c0.085,0.026,0.169,0.058,0.253,0.093c0.907,0.374,1.628,1.174,1.912,2.113
				C59.618,116.95,59.661,117.232,59.545,117.469z"/>
			<path fill="#FF9631" d="M59.545,117.469c-0.137,0.284-0.46,0.42-0.761,0.514c-0.625,0.196-1.278,0.315-1.938,0.353
				c0.335-0.135,0.639-0.349,0.873-0.623c0.47-0.554,0.645-1.344,0.453-2.042c-0.127-0.465-0.414-0.881-0.793-1.178
				c0.085,0.026,0.169,0.058,0.253,0.093c0.907,0.374,1.628,1.174,1.912,2.113C59.618,116.95,59.661,117.232,59.545,117.469z"/>
			
				<ellipse transform="matrix(0.7396 -0.673 0.673 0.7396 -63.618 67.2617)" fill="#FFDABB" cx="55.119" cy="115.85" rx="1.371" ry="0.651"/>
		</g>
	</g>
</g>
</svg>
