<?xml version="1.0" encoding="utf-8"?>
<!-- Generator: Adobe Illustrator 16.0.0, SVG Export Plug-In . SVG Version: 6.00 Build 0)  -->
<!DOCTYPE svg PUBLIC "-//W3C//DTD SVG 1.1//EN" "http://www.w3.org/Graphics/SVG/1.1/DTD/svg11.dtd">
<svg version="1.1" xmlns="http://www.w3.org/2000/svg" xmlns:xlink="http://www.w3.org/1999/xlink" x="0px" y="0px"
	 width="221.047px" height="43.5px" viewBox="144.953 162.25 221.047 43.5" enable-background="new 144.953 162.25 221.047 43.5"
	 xml:space="preserve">
<g id="圖層_1">
</g>
<g id="圖層_2">
	<g>
		<g>
			<path fill="#F9CB53" d="M176.374,189.721c0,0,1.845,0.796,3.928-2.179c1.766-2.521,4.955-4.203,9.646-1.403
				c0,0,1.389,0.758,0.356,2.065c-0.966,1.221-4.838-1.89-6.75-0.151c-1.912,1.74-1.94,4.712-6.78,4.526L176.374,189.721z"/>
			<path opacity="0.53" fill="#FF9631" d="M181.745,190.439l-1.891-2.312c-1.893,2.276-3.48,1.593-3.48,1.593l0.4,2.858
				C179.688,192.69,180.858,191.658,181.745,190.439z"/>
			<path fill="#3F2436" d="M184.765,187.532c-0.206-0.674-0.575-1.525-1.175-1.77c-1.025-0.426-0.035,2.29-0.035,2.29
				C183.903,187.738,184.316,187.582,184.765,187.532z"/>
			<g>
				<path fill="#3F2436" d="M178.846,189.108c-0.224,0.17-0.436,0.298-0.64,0.4l0.961,2.831c0.352-0.1,0.663-0.227,0.938-0.377
					L178.846,189.108z"/>
				<path fill="#3F2436" d="M181.615,186.089c-0.484,0.411-0.91,0.888-1.274,1.401l1.479,2.844c0.38-0.535,0.714-1.1,1.125-1.618
					L181.615,186.089z"/>
			</g>
			<path fill="#3F2436" d="M189.948,186.139c-1.291-0.771-2.468-1.2-3.531-1.368c-0.416,0.788-0.865,1.769-1.136,2.744
				c1.939,0.084,4.299,1.605,5.023,0.689C191.337,186.896,189.948,186.139,189.948,186.139z"/>
		</g>
		<g>
			<path fill="#F9CB53" d="M164.217,188.316c0,0-5.616,3.063-7.555,0.184c0.083-0.678,0.064-1.062-0.17-1.194
				c-0.722-0.419-0.992,0.521-0.992,0.521c-0.309-0.494-0.746-0.871-1.121-0.709c-0.545,0.233-0.258,0.771-0.053,1.264
				c0,0-0.238-0.825-0.839-0.615c-0.578,0.201,0.129,1.213,0.203,1.297c-0.042-0.047-0.467-0.585-0.86-0.31
				c-0.566,0.393,0.594,1.516,0.594,1.516l0.004-0.001c0.494,1.066,4.948,6.745,12.569,2.656L164.217,188.316z"/>
			<g>
				<path fill="#3F2436" d="M157.74,193.833c0.04-0.887,0.03-2.338-0.447-2.566c-0.438-0.213-0.751,0.988-0.919,1.896
					C156.787,193.414,157.241,193.642,157.74,193.833z"/>
				<path fill="#3F2436" d="M159.12,192.027c-0.589-0.21-0.425,1.298-0.29,2.141c0.366,0.085,0.751,0.147,1.152,0.183
					C159.906,193.571,159.69,192.23,159.12,192.027z"/>
			</g>
			<path opacity="0.53" fill="#FF9631" d="M158.177,189.579c0.922,0.555,3.289,1.698,5.588,0.511c0,0,0.462,1.732,1.354,3.269
				c0.288-0.131,0.582-0.275,0.879-0.435l-1.78-4.607C164.217,188.316,160.608,190.284,158.177,189.579z"/>
			<path opacity="0.35" fill="#D83D22" d="M155.66,188.757c1.064,0.479,0.359,1.617-0.82,1.503
				C153.659,190.144,154.596,188.277,155.66,188.757z"/>
		</g>
		<g>
			<g>
				<path fill="#F9CB53" d="M171.359,193.494c0,0,5.591,3.332,7.438,2.468c2.125-0.994,2.489-3.38,2.489-3.38l1.406,0.8
					l-2.846-4.056c0,0-1.621,3.203-3.357,1.516C176.169,190.528,171.359,193.494,171.359,193.494z"/>
				<path opacity="0.53" fill="#FF9631" d="M176.49,190.842c-0.32-0.313-5.131,2.652-5.131,2.652s5.591,3.332,7.438,2.468
					c0.8-0.373,1.349-0.944,1.726-1.513c0.348-1.396,0.04-2.797-1.395-4.06C178.494,191.136,177.511,191.835,176.49,190.842z"/>
				<path fill="#D83D22" d="M173.816,195.06c0,0,5.138,3.981,7.249-1.374l-1.937-3.296l-1.257,0.767l-3.799-1.125
					C174.073,190.031,170.908,192.938,173.816,195.06z"/>
				<path opacity="0.79" fill="#3F2436" d="M173.816,195.06c0,0,5.138,3.981,7.249-1.374l-1.937-3.296l-1.257,0.767l-3.799-1.125
					C174.073,190.031,170.908,192.938,173.816,195.06z"/>
				<path opacity="0.45" fill="#3F2436" d="M179.689,191.344l-0.561-0.954l-1.257,0.767l-3.799-1.125c0,0-3.164,2.906-0.257,5.028
					c0,0,0.837,0.647,1.975,1.07c0.285-0.434,0.55-0.913,0.788-1.446C176.578,194.684,178.6,193.1,179.689,191.344z"/>
				<path fill="#3F2436" d="M181.324,192.815l0.396-0.741l-2.439-2.482l0.715-0.751c0,0,3.724,4.207,3.034,4.691
					C182.344,194.017,181.324,192.815,181.324,192.815z"/>
			</g>
			<g>
				<path fill="#F9CB53" d="M166.683,194.521c0,0,3.57,8.354,8.714,7.202c0,0,1.294,1.543,1.858,1.484
					c0.581-0.06-1.288-4.854-1.288-4.854s-4.845-0.565-5.532-4.217L166.683,194.521z"/>
				<path opacity="0.53" fill="#FF9631" d="M175.967,198.354c0,0-4.125-0.483-5.301-3.428l-1.625,3.539
					c1.255,1.612,2.95,3.148,4.946,3.345c0.722-0.503,1.625-1.174,2.532-1.956C176.224,199.018,175.967,198.354,175.967,198.354z"/>
				<path fill="#D83D22" d="M167.764,196.566c0,0,2.018,5.384,6.498,5.474l0.639-4.313l-3.146-3.241L167.764,196.566z"/>
				<path opacity="0.79" fill="#3F2436" d="M167.764,196.566c0,0,2.018,5.384,6.498,5.474l0.639-4.313l-3.146-3.241L167.764,196.566
					z"/>
				<path opacity="0.45" fill="#3F2436" d="M174.685,197.505l-2.93-3.019l-3.991,2.08c0,0,0.681,1.811,2.125,3.351
					C171.265,199.701,173.112,199.1,174.685,197.505z"/>
				<path fill="#3F2436" d="M175.578,202.14l0.967-0.758l-1.153-3.313l0.719-0.065c0,0,1.959,4.994,1.145,5.205
					C176.442,203.419,175.578,202.14,175.578,202.14z"/>
			</g>
		</g>
		<g>
			<path fill="#D83D22" d="M176.888,189.118c-0.836-1.754-2.116-3.726-2.893-4.355c-1.948-1.575-8.077,0.349-9.69,1.943
				c-1.299,1.284,1.655,7.426,2.854,9.766c0,0-0.492,1.507-2.054,1.865c0,0,5.427,1.855,9.774-1.786l0.048-0.146
				c0.427-1.313,0.337-2.742-0.25-3.993l0,0c0,0,2.687,0.659,3.781-0.361l0.388-2.941L176.888,189.118z"/>
			<path fill="#2A0D01" d="M164.609,188.14c0,0,2.446,1.598,4.442,1.202c0.15-0.03,0.288,0.086,0.279,0.237l0,0
				c-0.007,0.12-0.104,0.215-0.226,0.219c-0.733,0.014-3.206-0.055-5.094-1.499L164.609,188.14z"/>
			<g>
				<path fill="#F9CB53" d="M168.183,188.647c-0.302,0.289,0.013,0.794,0.439,0.463
					C169.049,188.782,168.483,188.359,168.183,188.647z"/>
				<path fill="#F9CB53" d="M167.433,190.003c-0.303,0.287,0.011,0.792,0.437,0.463
					C168.296,190.137,167.733,189.715,167.433,190.003z"/>
				<path fill="#F9CB53" d="M168.37,188.863c0,0-0.458,1.129-0.926,1.459l0.208,0.182c0,0,0.893-0.958,0.898-1.58L168.37,188.863z"
					/>
			</g>
			<g>
				<path fill="#F9CB53" d="M166.819,188.275c-0.303,0.289,0.011,0.793,0.438,0.464C167.684,188.41,167.118,187.987,166.819,188.275
					z"/>
				<path fill="#F9CB53" d="M166.068,189.631c-0.302,0.288,0.012,0.793,0.438,0.463
					C166.932,189.765,166.369,189.342,166.068,189.631z"/>
				<path fill="#F9CB53" d="M167.006,188.491c0,0-0.46,1.127-0.926,1.459l0.205,0.182c0,0,0.895-0.959,0.9-1.58L167.006,188.491z"/>
			</g>
			<g>
				<path fill="#F9CB53" d="M165.105,198.337c0,0,5.427,1.855,9.774-1.786l0.048-0.146c0.108-0.332,0.182-0.67,0.225-1.012
					c-3.206,2.946-7.056,2.85-9.094,2.52C165.797,198.096,165.484,198.251,165.105,198.337z"/>
				<path fill="#F9CB53" d="M177.592,189.115l-0.571,3.477c0.549-0.055,1.076-0.206,1.438-0.542l0.388-2.941L177.592,189.115z"/>
			</g>
			<path opacity="0.17" fill="#3F2436" d="M167.622,189.013l3.353-1.526c1.321-0.601,2.606-1.252,3.679-2.016
				c-0.212-0.283-0.432-0.523-0.658-0.708c-1.948-1.575-8.077,0.349-9.69,1.943c-0.529,0.524-0.352,1.856,0.125,3.407
				C165.516,189.862,166.607,189.473,167.622,189.013z"/>
			<path opacity="0.17" fill="#3F2436" d="M176.47,189.121c-0.355-0.898-0.709-1.734-1.08-2.448l-1.726,0.857
				C173.664,187.53,174.744,189.271,176.47,189.121z"/>
			<path opacity="0.17" fill="#3F2436" d="M164.305,186.706c-0.453,0.45-0.387,1.492-0.059,2.758c1.076-0.192,2.146-0.54,3.12-1.005
				l3.193-1.524c1.259-0.599,2.447-1.326,3.417-2.184C172.011,183.198,165.913,185.116,164.305,186.706z"/>
		</g>
		<g>
			<g>
				<g>
					<path fill="#F9CB53" d="M181.041,180.064c-0.389,0.039-0.481,0.672-0.503,0.965c-0.002,0.001-0.005,0.001-0.008,0
						c-0.009-0.435-0.076-1.657-0.578-1.46c-0.542,0.212-0.416,1.242-0.382,1.459h-0.007c-0.172-0.531-0.474-1.475-1.042-1.294
						c-0.44,0.138-0.154,1.019,0.012,1.445c-0.114,0.064-0.217,0.148-0.302,0.246c-0.832-0.796-1.175-0.373-1.237-0.014
						c-0.041,0.231,0.467,0.775,0.938,1.225c-0.08,1.039-0.319,1.87-0.647,2.539l3.079,2.993c1.832-1.807,1.392-5.036,1.18-6.233
						C181.543,181.936,181.745,179.989,181.041,180.064z"/>
				</g>
				<path fill="#3F2436" d="M179.688,185.791c-0.204,0.54,0.824,0.992,1.486,1.224c0.185-0.384,0.314-0.793,0.403-1.205
					C180.906,185.557,179.883,185.271,179.688,185.791z"/>
				<path fill="#3F2436" d="M177.902,182.952c-0.045,0.382-0.109,0.736-0.194,1.063c0.682,0.141,1.902,0.298,2.321-0.269
					C180.481,183.135,178.743,182.987,177.902,182.952z"/>
				<path opacity="0.35" fill="#D83D22" d="M179.285,181.365c0.846-0.668,2.143,0.055,1.405,1.021
					C179.953,183.351,178.16,182.252,179.285,181.365z"/>
			</g>
			<path fill="#F9CB53" d="M178.429,184.446c-0.971,0.056-2.233-0.082-3.202-0.226c-0.857-0.125-1.679,0.393-1.927,1.222l0,0
				c-0.314,1.037,0.274,2.127,1.313,2.446c2.238,0.692,4.523,0.823,5.739,0.285L178.429,184.446z"/>
			<path opacity="0.53" fill="#FF9631" d="M175.227,184.221c-0.577-0.083-1.135,0.123-1.516,0.52
				c1.146,1.411,5.282,2.627,5.282,2.627c-0.827-1.045-1.125-2.122-1.22-2.911C176.931,184.443,175.99,184.333,175.227,184.221z"/>
		</g>
		<g>
			<g>
				<g>
					<g>
						<path fill="#F9CB53" d="M157.808,174.49c0,0-4.05-4.941-7.026-1.641c-2.978,3.3,2.974,6.797,6.104,4.614L157.808,174.49z"/>
						<path fill="#2A0D01" d="M150.781,172.85c0.983-1.092,2.085-1.282,3.117-1.049c-0.002,1.671-0.383,3.948-2.109,5.566
							C150.121,176.38,149.214,174.587,150.781,172.85z"/>
						<path fill="#F9CB53" d="M156.503,175.717c0.103-0.06-3.235-3.298-4.113-1.413c-0.878,1.882,3.711,2.71,3.711,2.71
							L156.503,175.717z"/>
						<path opacity="0.45" fill="#D83D22" d="M156.503,175.717c0.103-0.06-3.235-3.298-4.113-1.413
							c-0.878,1.882,3.711,2.71,3.711,2.71L156.503,175.717z"/>
					</g>
					<g>
						<path fill="#F9CB53" d="M167.644,170.634c0,0-0.436-6.373,3.992-6.009c4.431,0.361,2.494,6.988-1.282,7.543L167.644,170.634z"
							/>
						<path fill="#2A0D01" d="M171.636,164.625c-1.463-0.121-2.396,0.493-2.987,1.372c1.149,1.215,2.983,2.612,5.351,2.608
							C174.536,166.741,173.969,164.815,171.636,164.625z"/>
						<path fill="#F9CB53" d="M169.435,170.633c-0.115,0.027,0.097-4.619,2.027-3.849c1.929,0.771-0.846,4.518-0.846,4.518
							L169.435,170.633z"/>
						<path opacity="0.45" fill="#D83D22" d="M169.435,170.633c-0.115,0.027,0.097-4.619,2.027-3.849
							c1.929,0.771-0.846,4.518-0.846,4.518L169.435,170.633z"/>
					</g>
					<g>
						<g>
							<path fill="#F9CB53" d="M163.729,170.409l-3.928,1.793c-5.443,1.859-6.053,7.686-4.103,11.889l0.735,1.464
								c0.855,5.586,6.532,4.938,10.848,2.975l3.354-1.525c4.314-1.962,8.253-4.464,5.562-9.599l-0.583-1.257
								C172.655,168.705,168.046,168.446,163.729,170.409z"/>
							<path opacity="0.35" fill="#D83D22" d="M171.436,176.951c0,0-0.077-1.846-1.479-2.011c-0.85-0.1-2.856,0.617-2.111,2.946
								c0,0-0.299-1.047,0.993-1.56C170.134,175.814,171.436,176.951,171.436,176.951z"/>
							<path fill="#2A0D01" d="M160.977,178.493c0,0-1.029-1.19-2.244-0.72c-1.455,0.563-1.227,1.929-1.119,2.395
								c0,0-0.74-0.298-0.77,0.001c-0.027,0.3,0.991,0.52,0.991,0.52s-1.116-0.04-0.911,0.245c0.208,0.285,2.028,0.279,2.028,0.279
								L160.977,178.493z"/>
							<path fill="#2A0D01" d="M167.879,178.027c0,0-0.31-0.991,0.7-1.814c1.206-0.99,1.94-0.338,2.292-0.015
								c0,0,0.229-1.061,0.503-0.936c0.273,0.122-0.04,1.117-0.04,1.117s0.52-0.991,0.665-0.671
								c0.146,0.321-0.592,1.566-0.592,1.566l-0.783-0.492c-0.541-0.343-1.231-0.397-1.795-0.087
								C168.034,177.139,167.879,178.027,167.879,178.027z"/>
							<g>
								<path fill="#FFFFFF" d="M160.695,182.495L160.695,182.495c-0.979,0.358-2.069-0.158-2.437-1.155l-0.351-0.956
									c-0.366-0.997,0.126-2.097,1.104-2.455l0,0c0.978-0.358,2.068,0.159,2.437,1.156l0.351,0.955
									C162.166,181.037,161.671,182.138,160.695,182.495z"/>
								<path fill="#3F2436" d="M161.448,179.086c-0.199-0.54-0.61-0.938-1.1-1.134c-0.159,0-0.318,0.025-0.47,0.081
									c-0.862,0.315-1.238,1.452-0.838,2.539c0.398,1.083,1.422,1.707,2.285,1.391c0.078-0.028,0.151-0.065,0.221-0.107
									c0.37-0.502,0.487-1.178,0.253-1.815L161.448,179.086z"/>
							</g>
							<path opacity="0.64" fill="#FFFFFF" d="M167.159,179.801c0,0-2.264-3.983-3.495-3.333c-1.586,0.835-0.358,5.104-0.358,5.104
								S166.404,181.003,167.159,179.801z"/>
							<g>
								<path fill="#2A0D01" d="M163.971,170.303c0.646-0.28,1.298-0.509,1.949-0.67c0.491,1.279,0.927,2.805,0.51,3.44
									C165.99,173.743,164.867,171.971,163.971,170.303z"/>
								<path fill="#2A0D01" d="M158.216,172.933c0.4-0.239,0.839-0.45,1.314-0.63c0.688,1.739,1.253,3.545,0.667,3.561
									C159.709,175.876,158.938,174.503,158.216,172.933z"/>
								<path fill="#2A0D01" d="M163.647,175.848c-0.733,0.427-2.031-1.863-3.051-4.008l2.233-1.021
									C163.639,172.938,164.385,175.418,163.647,175.848z"/>
							</g>
							<path fill="#F9CB53" d="M164.79,179.679c-4.524,1.84-2.663,8.629,3.138,5.629C171.65,183.383,169.315,177.843,164.79,179.679
								z"/>
							<path opacity="0.64" fill="#FFFFFF" d="M164.79,179.679c-4.524,1.84-2.663,8.629,3.138,5.629
								C171.65,183.383,169.315,177.843,164.79,179.679z"/>
							<path fill="none" stroke="#3F2436" stroke-miterlimit="10" d="M165.219,180.614c0,0,0.368,1.323,0.828,1.676"/>
							<g>
								<path fill="#3F2436" d="M164.018,182.143c1.223-0.653,1.681,0.286,2.154-0.026c0.475-0.31,0.728-1.358,1.67-1.107
									c0.941,0.251,1.85,3.158-1.738,3.936C163.594,185.489,162.796,182.799,164.018,182.143z"/>
								<path fill="#D83D22" d="M168.564,181.839c-0.388,0.047-0.783,0.151-1.169,0.328c-1.257,0.578-2.044,1.716-2.088,2.844
									c0.242,0.015,0.508-0.003,0.797-0.066C168.602,184.404,168.921,182.83,168.564,181.839z"/>
								<path fill="#FFFFFF" d="M163.637,182.503c0.091-0.147,0.219-0.271,0.381-0.36c1.223-0.653,1.681,0.286,2.153-0.025
									c0.476-0.311,0.729-1.359,1.671-1.108c0.066,0.018,0.134,0.051,0.199,0.095c-0.042,0.264-0.14,0.525-0.276,0.769
									c0.11,0.31,0.186,0.573,0.021,0.627c-0.147,0.048-0.282,0.056-0.414-0.104c-0.235,0.242-0.523,0.452-0.856,0.606
									c-0.464,0.213-0.95,0.291-1.401,0.247c-0.029,0.276-0.128,0.452-0.255,0.475c-0.182,0.028-0.374-0.29-0.535-0.688
									C164.058,182.908,163.823,182.73,163.637,182.503z"/>
							</g>
							<path opacity="0.35" fill="#D83D22" d="M162.317,183.519c0.237,0.758-0.396,1.626-1.419,1.94
								c-1.021,0.312-2.041-0.048-2.281-0.807c-0.238-0.757,0.396-1.625,1.418-1.939C161.056,182.4,162.077,182.761,162.317,183.519
								z"/>
							<path opacity="0.35" fill="#D83D22" d="M173.623,178.212c0.447,0.656,0.092,1.67-0.797,2.266
								c-0.888,0.595-1.969,0.544-2.417-0.113c-0.447-0.656-0.09-1.67,0.797-2.267C172.095,177.504,173.177,177.555,173.623,178.212
								z"/>
							<path fill="#3F2436" d="M162.835,180.438c-0.318,0.684,1.984,1.092,2.608,0.685c0.621-0.409,2.162-1.718,1.554-2.269
								C166.39,178.305,163.154,179.755,162.835,180.438z"/>
							<path opacity="0.64" fill="#FFFFFF" d="M164.817,179.535c0,0-1.199,0.345-1.061,0.529
								C163.896,180.25,165.202,179.732,164.817,179.535z"/>
						</g>
					</g>
				</g>
			</g>
			<path fill="#2A0D01" d="M157.357,185.045c-0.696-1.579-1.103-0.368-0.514,1.068c0.588,1.434,3.623,2.84,4.439,1.785
				C162.023,186.938,158.633,187.938,157.357,185.045z"/>
			<path fill="#2A0D01" d="M158.126,184.479c-0.474-1.073-0.749-0.251-0.35,0.723c0.399,0.976,2.459,1.93,3.013,1.211
				C161.291,185.763,158.99,186.441,158.126,184.479z"/>
			<path fill="#2A0D01" d="M175.024,178.034c-0.559-1.717,0.604-1.054,1.146,0.474c0.542,1.528-0.844,4.742-2.214,4.488
				C172.709,182.766,176.048,181.178,175.024,178.034z"/>
			<path fill="#2A0D01" d="M174.03,178.13c-0.381-1.166,0.409-0.717,0.776,0.32c0.368,1.037-0.571,3.219-1.501,3.044
				C172.458,181.338,174.724,180.264,174.03,178.13z"/>
		</g>
	</g>
	<g>
		<g>
			<path fill="#F9CB53" d="M304.758,192.588c0,0-1.142-1.823-4.455-2.881c-3.312-1.059-8.05-4.998-6.601-7.973
				c0.699-1.435,2.145-1.13,2.525,1.553c0.246,1.728,1.839,2.697,3.468,3.325c3.146,1.212,6.689,2.521,7.455,4.692L304.758,192.588z
				"/>
			<path opacity="0.53" fill="#FF9631" d="M304.758,192.588c0,0-1.142-1.823-4.455-2.881c-3.312-1.059-8.05-4.998-6.601-7.973
				c0.699-1.435,2.145-1.13,2.525,1.553c0.246,1.728,1.839,2.697,3.468,3.325c3.146,1.212,6.689,2.521,7.455,4.692L304.758,192.588z
				"/>
			<g>
				<path fill="#3F2436" d="M301.572,190.19c0.333,0.148,0.635,0.303,0.909,0.461c0.261-0.483,0.47-1.033,0.327-1.376
					C302.598,188.779,301.949,189.624,301.572,190.19z"/>
				<path fill="#3F2436" d="M297.129,188.069c0.38-0.539,0.808-1.252,0.779-1.723c-0.033-0.568-0.904,0.474-1.468,1.207
					C296.664,187.733,296.895,187.904,297.129,188.069z"/>
				<path fill="#3F2436" d="M299.325,189.33c0.334,0.148,0.661,0.276,0.978,0.377c0.002,0,0.005,0.001,0.007,0.002
					c0.309-0.547,0.64-1.266,0.542-1.704C300.737,187.491,299.889,188.55,299.325,189.33z"/>
			</g>
			<g>
				<path fill="#3F2436" d="M301.65,187.377c-0.122,0.579-0.166,1.244,0.197,1.407c0.339,0.153,0.779-0.327,1.131-0.844
					C302.545,187.746,302.101,187.559,301.65,187.377z"/>
				<path fill="#3F2436" d="M296.149,186.04c0.207,0.548,1.037,0.128,1.729-0.35c-0.416-0.287-0.785-0.616-1.069-1.002
					C296.366,185.044,295.959,185.533,296.149,186.04z"/>
				<path fill="#3F2436" d="M299.696,186.612c-0.131-0.05-0.259-0.104-0.387-0.156c-0.339,0.51-0.589,1.127-0.182,1.504
					c0.481,0.447,1.102-0.318,1.512-0.983C300.323,186.854,300.008,186.733,299.696,186.612z"/>
			</g>
			<path fill="#3F2436" d="M296.49,184.156c-0.127-0.265-0.216-0.557-0.263-0.869c-0.381-2.683-1.826-2.987-2.525-1.553
				c-0.502,1.032-0.261,2.177,0.407,3.28C295.083,184.971,295.874,184.608,296.49,184.156z"/>
			<path opacity="0.2" fill="#3F2436" d="M303.111,191.046c1.186,0.806,1.647,1.542,1.647,1.542l2.393-1.283
				c-0.318-0.903-1.12-1.658-2.174-2.316L303.111,191.046z"/>
		</g>
		<g>
			<g>
				<path fill="#F9CB53" d="M314.595,194.929c0,0,2.423,8.465-8.309,5.822l-1.962,2.774l-0.165-5.146c0,0,4.991,1.385,5.614-3.881
					L314.595,194.929z"/>
				<path opacity="0.53" fill="#FF9631" d="M314.595,194.929c0,0,2.423,8.465-8.309,5.822l-1.962,2.774l-0.165-5.146
					c0,0,4.991,1.385,5.614-3.881L314.595,194.929z"/>
				<path fill="#3F2436" d="M304.543,198.334l0.262,3.235l1.006-0.006c0,0-1.1,2.512-1.64,2.232
					c-0.543-0.281-0.295-5.594-0.295-5.594L304.543,198.334z"/>
				<g>
					<path fill="#D83D22" d="M315.093,196.896c0,0,0.527,6.094-8.308,4.424l-1.527-2.985c0,0,3.379,0.824,4.125-4.287
						L315.093,196.896z"/>
				</g>
				<g>
					<path fill="#2A0D01" d="M315.093,196.896c0,0,0.527,6.094-8.308,4.424l-1.527-2.985c0,0,3.379,0.824,4.125-4.287
						L315.093,196.896z"/>
				</g>
				<g opacity="0.07">
					<path fill="#FFFFFF" d="M315.093,196.896c0,0,0.527,6.094-8.308,4.424l-1.527-2.985c0,0,3.379,0.824,4.125-4.287
						L315.093,196.896z"/>
				</g>
				<path opacity="0.31" fill="#3F2436" d="M314.878,198.493c0.276-0.879,0.215-1.598,0.215-1.598l-1.799-0.896l0,0l-3.911-1.952
					c-0.021,0.145-0.045,0.284-0.07,0.418c-0.008,0.042-0.019,0.08-0.023,0.123c-0.02,0.094-0.039,0.187-0.062,0.275
					c-0.009,0.04-0.018,0.083-0.026,0.124c-0.026,0.101-0.05,0.197-0.079,0.293c-0.007,0.021-0.012,0.043-0.018,0.064
					c-0.031,0.108-0.066,0.213-0.101,0.314c-0.016,0.042-0.031,0.081-0.043,0.118c-0.022,0.065-0.046,0.127-0.07,0.187
					c-0.017,0.041-0.035,0.083-0.051,0.123c-0.025,0.06-0.052,0.116-0.078,0.175c-0.016,0.03-0.031,0.066-0.047,0.098
					c-1.238,2.516-3.457,1.975-3.457,1.975l0.576,1.125c1.097,0.824,2.329,1.29,3.506,0.737c1.659-0.779,2.651-1.847,3.227-2.712
					L314.878,198.493z"/>
			</g>
			<g>
				<path fill="#F9CB53" d="M312.172,194.932c0,0-1.854,4.869-4.208,4.265c-3.578-0.92-5.397-5.041-5.397-5.041l-2.146,1.102
					l2.319-4.494c0.436,0.408,1.032,1.329,2.128,1.465c0.633,0.08,2.283-0.833,2.473-1.601L312.172,194.932z"/>
				<path opacity="0.53" fill="#FF9631" d="M312.172,194.932c0,0-1.854,4.869-4.208,4.265c-3.578-0.92-5.397-5.041-5.397-5.041
					l-2.146,1.102l2.319-4.494c0.436,0.408,1.032,1.329,2.128,1.465c0.633,0.08,2.283-0.833,2.473-1.601L312.172,194.932z"/>
				<path fill="#3F2436" d="M301.527,193.97l0.423,0.545c0,0-1.461,1.484-1.784,0.961c-0.325-0.524,2.447-4.545,2.574-4.713
					c0.129-0.165,0.503,0.275,0.503,0.275L301.527,193.97z"/>
				<path fill="#2A0D01" d="M303.969,191.518l-1.692,3.129c0,0,3.724,6.381,7.007,4.84c3.281-1.54,3.959-4.211,3.959-4.211
					l-5.884-5.441C307.359,189.834,305.255,193.214,303.969,191.518z"/>
				<path opacity="0.16" fill="#FFFFFF" d="M303.969,191.518l-1.692,3.129c0,0,3.724,6.381,7.007,4.84
					c3.281-1.54,3.959-4.211,3.959-4.211l-5.884-5.441C307.359,189.834,305.255,193.214,303.969,191.518z"/>
				<path opacity="0.17" fill="#3F2436" d="M304.216,191.775c0.179,0.894,0.75,2.351,2.555,3.533
					c2.475,1.618,4.802,1.955,5.337,2.015c0.893-1.096,1.135-2.048,1.135-2.048l-3.475-3.212l-2.899-1.545
					C306.231,191.327,305.095,192.478,304.216,191.775z"/>
			</g>
		</g>
		<g>
			<path fill="#F9CB53" d="M328.16,190.306c-0.242-0.326-0.858-0.073-1.136,0.065c0-0.004-0.001-0.006-0.002-0.008
				c0.387-0.24,1.446-0.952,1.002-1.298c-0.481-0.375-1.335,0.289-1.513,0.435l-0.004-0.004c0.386-0.439,1.07-1.213,0.605-1.628
				c-0.358-0.321-0.996,0.406-1.289,0.782c-0.121-0.068-0.25-0.114-0.384-0.137c0.272-1.172-0.292-1.255-0.646-1.118
				c-0.229,0.089-0.448,0.832-0.6,1.492c-4.733,2.348-7.112-1.26-7.112-1.26l-2.702,3.027c6.006,5.463,10.664,2.57,12.371,1.098
				C326.752,191.753,328.604,190.898,328.16,190.306z"/>
			<path opacity="0.53" fill="#FF9631" d="M328.16,190.306c-0.242-0.326-0.858-0.073-1.136,0.065c0-0.004-0.001-0.006-0.002-0.008
				c0.387-0.24,1.446-0.952,1.002-1.298c-0.481-0.375-1.335,0.289-1.513,0.435l-0.004-0.004c0.386-0.439,1.07-1.213,0.605-1.628
				c-0.358-0.321-0.996,0.406-1.289,0.782c-0.121-0.068-0.25-0.114-0.384-0.137c0.272-1.172-0.292-1.255-0.646-1.118
				c-0.229,0.089-0.448,0.832-0.6,1.492c-4.733,2.348-7.112-1.26-7.112-1.26l-2.702,3.027c6.006,5.463,10.664,2.57,12.371,1.098
				C326.752,191.753,328.604,190.898,328.16,190.306z"/>
			<path fill="#D83D22" d="M318.706,188.286c0,0,3.314,1.731,5.339,0.606c0,0-0.901,3.385,0.268,4.344c0,0,1.213-0.452,2.104-1.216
				c0,0-1.104,1.891-2.037,2.194c-0.937,0.302-5.319,0.32-7.369-1.367L318.706,188.286z"/>
			<path opacity="0.08" fill="#3F2436" d="M318.706,188.286c0,0,3.314,1.731,5.339,0.606c0,0-0.901,3.385,0.268,4.344
				c0,0,1.213-0.452,2.104-1.216c0,0-1.104,1.891-2.037,2.194c-0.937,0.302-5.319,0.32-7.369-1.367L318.706,188.286z"/>
			<path fill="#F9CB53" d="M324.313,193.236c-1.169-0.959-0.268-4.344-0.268-4.344c-0.429,0.239-0.916,0.349-1.418,0.374
				c-0.414,1.317-0.938,3.543-0.381,5.096c0.982,0.036,1.79-0.036,2.133-0.147c0.934-0.304,2.037-2.194,2.037-2.194
				C325.526,192.784,324.313,193.236,324.313,193.236z"/>
			<path opacity="0.17" fill="#3F2436" d="M318.706,188.286l-0.432,1.158c1.416,0.197,2.879,0.157,4.191-0.175
				C320.647,189.3,318.706,188.286,318.706,188.286z"/>
			<path opacity="0.35" fill="#D83D22" d="M326.059,189.425c1.047,0.401,1.094,1.952-0.166,1.804
				C324.633,191.081,324.663,188.887,326.059,189.425z"/>
		</g>
		<g>
			<path fill="#D83D22" d="M309.425,184.728c1.988-1.482,7.974,0.662,9.505,2.301c1.532,1.644-3.542,12.072-3.542,12.072
				l-3.183-0.415c-1.866-0.354-5.515-4.347-5.515-4.347l0.812-2.234l-0.034,0.067c-0.365,0.73-0.891,1.373-1.536,1.874l0,0
				l-2.135-2.822c0,0,1.638-0.014,2.424-1.533C307.199,187.799,308.416,185.481,309.425,184.728z"/>
			<g>
				<path fill="#F9CB53" d="M306.507,193.528c-0.848-0.951-1.538-1.845-1.977-2.439c-0.418,0.131-0.733,0.135-0.733,0.135
					l2.135,2.822C306.136,193.887,306.325,193.712,306.507,193.528z"/>
				<path fill="#F9CB53" d="M315.749,198.34c-0.965,0.097-2.447-0.005-4.392-0.867c-1.604-0.713-3.211-2.161-4.51-3.568
					l-0.157,0.435c0,0,3.648,3.993,5.515,4.347l3.183,0.415C315.388,199.101,315.526,198.818,315.749,198.34z"/>
			</g>
			<path fill="#2A0D01" d="M315.311,187.003c0,0-2.447,1.539-4.416,1.115c-0.146-0.033-0.285,0.08-0.278,0.229l0,0
				c0.004,0.121,0.099,0.217,0.219,0.219c0.724,0.027,3.172,0.003,5.064-1.396L315.311,187.003z"/>
			<g>
				<path fill="#F9CB53" d="M311.765,187.447c0.295,0.29-0.024,0.782-0.44,0.452C310.907,187.564,311.473,187.156,311.765,187.447z"
					/>
				<path fill="#F9CB53" d="M312.487,188.8c0.295,0.289-0.025,0.784-0.443,0.45C311.627,188.917,312.193,188.509,312.487,188.8z"/>
				<path fill="#F9CB53" d="M311.578,187.654c0,0,0.434,1.125,0.89,1.463l-0.207,0.175c0,0-0.867-0.965-0.863-1.578L311.578,187.654
					z"/>
			</g>
			<g>
				<path fill="#F9CB53" d="M313.124,187.101c0.292,0.29-0.026,0.786-0.442,0.452C312.266,187.221,312.829,186.811,313.124,187.101z
					"/>
				<path fill="#F9CB53" d="M313.843,188.455c0.295,0.288-0.024,0.783-0.442,0.45C312.984,188.573,313.55,188.164,313.843,188.455z"
					/>
				<path fill="#F9CB53" d="M312.935,187.311c0,0,0.434,1.125,0.891,1.461l-0.208,0.174c0,0-0.867-0.963-0.863-1.578
					L312.935,187.311z"/>
			</g>
			<path fill="#2A0D01" d="M317.32,194.731c-4.265,0.152-9.495-4.054-10.959-5.309c-0.048,0.089-0.095,0.179-0.14,0.268
				c-0.124,0.243-0.273,0.442-0.432,0.613c4.822,4.697,9.975,5.428,11.072,5.533C317.012,195.481,317.167,195.111,317.32,194.731z"
				/>
			<path opacity="0.17" fill="#3F2436" d="M318.93,187.028c-1.531-1.639-7.517-3.783-9.505-2.301
				c-0.328,0.246-0.708,0.649-1.094,1.146c1.324,1.098,3.11,1.853,4.979,2.348l3.484,0.926c0.72,0.19,1.474,0.317,2.229,0.38
				C319.29,188.382,319.325,187.451,318.93,187.028z"/>
		</g>
		<g>
			<path fill="#F9CB53" d="M310.174,185.695c0,0-4.45-0.054-4.518-3.709c0.463-0.553,1.093-1.375,1.01-1.647
				c-0.116-0.37-0.553-0.77-1.352,0.32l-0.301,0.066c0.012-0.612-0.158-1.194-0.584-1.266c-0.615-0.104-0.668,0.532-0.77,1.087
				c0,0,0.261-0.866-0.389-1.024c-0.627-0.153-0.58,1.146-0.564,1.263c-0.008-0.065-0.078-0.784-0.583-0.766
				c-0.723,0.023-0.342,1.679-0.342,1.679h0.006c-0.174,1.229-0.429,6.526,7.858,7.305L310.174,185.695z"/>
			<path opacity="0.53" fill="#FF9631" d="M310.174,185.695c0,0-4.45-0.054-4.518-3.709c0.463-0.553,1.093-1.375,1.01-1.647
				c-0.116-0.37-0.553-0.77-1.352,0.32l-0.301,0.066c0.012-0.612-0.158-1.194-0.584-1.266c-0.615-0.104-0.668,0.532-0.77,1.087
				c0,0,0.261-0.866-0.389-1.024c-0.627-0.153-0.58,1.146-0.564,1.263c-0.008-0.065-0.078-0.784-0.583-0.766
				c-0.723,0.023-0.342,1.679-0.342,1.679h0.006c-0.174,1.229-0.429,6.526,7.858,7.305L310.174,185.695z"/>
			<path opacity="0.53" fill="#FF9631" d="M305.918,183.312c-0.087-0.212-0.156-0.441-0.201-0.695
				c-0.413,0.449-2.07,1.981-3.983,0.057c0.026,0.933,0.266,2.25,1.234,3.451l1.251,0.436l1.946-1.306L305.918,183.312z"/>
			<path opacity="0.35" fill="#D83D22" d="M304.625,181.642c0.668,1.031-0.607,1.636-1.586,0.857
				C302.064,181.722,303.959,180.608,304.625,181.642z"/>
			<path fill="#D83D22" d="M305.925,182.783c0,0-2.196,2.666-3.945,1.501l-0.225-1.164c0,0-1.04,1.151-1.094,1.576
				c-0.056,0.425,3.294,5.102,9.216,4.579l0.481-3.765C310.359,185.511,307.464,185.477,305.925,182.783z"/>
			<path fill="#F9CB53" d="M306.687,183.812c-0.276-0.291-0.533-0.63-0.762-1.028c0,0-2.196,2.666-3.945,1.501l-0.225-1.164
				c0,0-1.04,1.151-1.094,1.576c-0.03,0.212,0.808,1.508,2.402,2.672C304.748,186.806,306.118,184.768,306.687,183.812z"/>
			<path opacity="0.17" fill="#3F2436" d="M310.162,187.055l0.196-1.544c0,0-2.115-0.025-3.691-1.719
				C307.342,185.207,308.614,186.27,310.162,187.055z"/>
			<path opacity="0.43" fill="#3F2436" d="M301.98,184.284l-0.156-0.816c-0.334,0.295-1.108,1.053-0.845,1.501
				c0.205,0.352,3.021,0.499,4.946-2.186C305.925,182.783,303.729,185.449,301.98,184.284z"/>
		</g>
		<g>
			<g>
				<path fill="#2A0D01" d="M302.388,171.263c0,0-0.918,0.011-1.33-1.274c-0.411-1.285,0.091-1.889,0.091-1.889
					s-0.166,1.232,0.248,1.824c0,0-0.433-1.481,0.438-2.233c0,0,1.563,0.381,1.703,1.63
					C303.68,170.57,303.058,171.415,302.388,171.263z"/>
				<path fill="#2A0D01" d="M310.241,173.259c0,0-1.543-1.09-2.583-0.496c-1.038,0.589-1.08,1.322-1.08,1.322
					s-0.292-1.452-1.37-1.771c-1.078-0.318-1.516,0.268-1.516,0.268s0.59-1.205-0.327-1.763c-0.915-0.56-2.383,1.818-0.555,2.335
					c0,0-0.585,1.803,1.277,2.634c1.861,0.83,2.326-0.644,2.326-0.644s0.588,2.681,2.187,2.594
					C310.202,177.649,310.241,173.259,310.241,173.259z"/>
			</g>
			<g>
				<g>
					<path fill="#F9CB53" d="M324.257,173.944c0,0,3.873-4.997,6.906-1.812c3.034,3.186-2.761,6.806-5.915,4.729L324.257,173.944z"
						/>
					<path opacity="0.53" fill="#FF9631" d="M324.257,173.944c0,0,3.873-4.997,6.906-1.812c3.034,3.186-2.761,6.806-5.915,4.729
						L324.257,173.944z"/>
					<path fill="#2A0D01" d="M331.163,172.133c-1.001-1.053-2.095-1.212-3.111-0.951c0.049,1.651,0.483,3.893,2.235,5.448
						C331.909,175.607,332.76,173.812,331.163,172.133z"/>
					<path fill="#F9CB53" d="M325.58,175.123c-0.104-0.056,3.114-3.349,4.03-1.509c0.918,1.838-3.6,2.78-3.6,2.78L325.58,175.123z"
						/>
					<path opacity="0.45" fill="#D83D22" d="M325.58,175.123c-0.104-0.056,3.114-3.349,4.03-1.509c0.918,1.838-3.6,2.78-3.6,2.78
						L325.58,175.123z"/>
				</g>
				<g>
					<path fill="#F9CB53" d="M314.423,170.39c0,0,0.264-6.315-4.109-5.836c-4.373,0.476-2.28,6.979,1.471,7.427L314.423,170.39z"/>
					<path opacity="0.53" fill="#FF9631" d="M314.423,170.39c0,0,0.264-6.315-4.109-5.836c-4.373,0.476-2.28,6.979,1.471,7.427
						L314.423,170.39z"/>
					<path fill="#2A0D01" d="M310.314,164.554c1.446-0.159,2.384,0.426,2.992,1.277c-1.103,1.232-2.882,2.664-5.223,2.723
						C307.502,166.725,308.01,164.804,310.314,164.554z"/>
					<path fill="#F9CB53" d="M312.654,170.439c0.114,0.021-0.221-4.57-2.108-3.756c-1.888,0.813,0.958,4.447,0.958,4.447
						L312.654,170.439z"/>
					<path opacity="0.45" fill="#D83D22" d="M312.654,170.439c0.114,0.021-0.221-4.57-2.108-3.756
						c-1.888,0.813,0.958,4.447,0.958,4.447L312.654,170.439z"/>
				</g>
				<g>
					<g>
						<path fill="#F9CB53" d="M318.289,170.065l3.934,1.666c5.437,1.696,6.192,7.444,4.376,11.651l-0.687,1.47
							c-0.697,5.548-6.331,5.059-10.652,3.231l-3.358-1.421c-4.319-1.824-8.285-4.193-5.758-9.348l0.543-1.257
							C309.416,168.617,313.97,168.236,318.289,170.065z"/>
						<path opacity="0.53" fill="#FF9631" d="M318.289,170.065l3.934,1.666c5.437,1.696,6.192,7.444,4.376,11.651l-0.687,1.47
							c-0.697,5.548-6.331,5.059-10.652,3.231l-3.358-1.421c-4.319-1.824-8.285-4.193-5.758-9.348l0.543-1.257
							C309.416,168.617,313.97,168.236,318.289,170.065z"/>
						<g opacity="0.84">
							<path fill="#3F2436" d="M307.303,179.657c-0.055-0.478-0.905-0.533-1.831-0.445c-0.176,0.843-0.146,1.601,0.045,2.28
								C306.529,180.787,307.35,180.079,307.303,179.657z"/>
							<path fill="#3F2436" d="M306.144,177.315c-0.179,0.364-0.322,0.713-0.438,1.051c1.374-0.695,2.755-1.473,2.709-1.75
								c-0.035-0.204-0.833-0.294-1.828-0.327L306.144,177.315z"/>
						</g>
						<g opacity="0.84">
							<path fill="#3F2436" d="M324.895,182.641c-0.207,0.178,0.305,1.573,0.882,2.948c0.056-0.233,0.102-0.478,0.136-0.736
								l0.596-1.276C325.725,182.959,325.054,182.507,324.895,182.641z"/>
							<path fill="#3F2436" d="M325.479,186.534c-0.655-0.666-1.345-1.182-1.695-0.85c-0.326,0.307-0.121,1.474,0.228,2.735
								C324.632,187.98,325.135,187.362,325.479,186.534z"/>
						</g>
						<g opacity="0.84">
							<path fill="#3F2436" d="M314.23,171.453c0.23-0.289,0.332-1.2,0.365-2.301c-0.541-0.02-1.076,0.014-1.601,0.114
								C313.371,170.617,313.857,171.922,314.23,171.453z"/>
							<path fill="#3F2436" d="M312.211,173.182c0.781-0.268,0.753-2.199,0.574-3.87c-0.977,0.224-1.918,0.685-2.795,1.445
								C310.561,172.028,311.403,173.46,312.211,173.182z"/>
							<path fill="#3F2436" d="M309.423,173.009c0.271-0.387,0.291-1.162,0.221-1.934c-0.375,0.369-0.738,0.8-1.088,1.29
								C308.882,172.969,309.202,173.325,309.423,173.009z"/>
						</g>
						<g opacity="0.84">
							<path fill="#3F2436" d="M325.847,174.127c-0.323-0.403-0.697-0.775-1.122-1.108c-0.66,0.834-1.143,1.565-1.152,1.929
								C323.554,175.531,324.711,174.892,325.847,174.127z"/>
							<path fill="#3F2436" d="M327.352,177.581c-0.563,0.554-1.067,1.176-1.111,1.653c-0.037,0.417,0.522,0.307,1.242,0.001
								C327.487,178.679,327.445,178.125,327.352,177.581z"/>
							<path fill="#3F2436" d="M323.999,177.569c0.438,0.736,2.009,0.182,3.267-0.422c-0.229-1.026-0.646-1.995-1.277-2.841
								C324.794,175.457,323.583,176.873,323.999,177.569z"/>
						</g>
						<g>
							<path fill="#FFFFFF" d="M321.615,181.939L321.615,181.939c0.978,0.329,2.042-0.211,2.378-1.207l0.323-0.955
								c0.336-0.995-0.182-2.07-1.158-2.397l0,0c-0.977-0.329-2.041,0.211-2.377,1.205l-0.324,0.955
								C320.119,180.536,320.639,181.609,321.615,181.939z"/>
							<path fill="#3F2436" d="M320.781,178.585c0.182-0.539,0.577-0.941,1.056-1.148c0.157-0.005,0.314,0.017,0.467,0.067
								c0.861,0.29,1.264,1.403,0.898,2.488c-0.369,1.084-1.362,1.727-2.225,1.437c-0.078-0.025-0.15-0.062-0.223-0.101
								c-0.378-0.486-0.513-1.15-0.298-1.788L320.781,178.585z"/>
						</g>
						<g>
							<path fill="#FFFFFF" d="M312.123,178.422L312.123,178.422c-0.958-0.38-1.419-1.481-1.029-2.46l0.373-0.935
								c0.39-0.977,1.48-1.459,2.438-1.078l0,0c0.957,0.38,1.419,1.479,1.029,2.455l-0.373,0.938
								C314.172,178.32,313.081,178.802,312.123,178.422"/>
							<path fill="#3F2436" d="M314.935,176.405c0.21-0.527,0.17-1.093-0.061-1.559c-0.116-0.105-0.251-0.192-0.4-0.251
								c-0.845-0.336-1.874,0.253-2.297,1.317c-0.423,1.061-0.083,2.196,0.763,2.532c0.078,0.031,0.156,0.05,0.236,0.067
								c0.602-0.126,1.137-0.547,1.386-1.171L314.935,176.405z"/>
						</g>
						<path opacity="0.71" fill="#F9CB53" d="M314.643,179.101c0,0,2.751-5.164,4.351-4.376c2.054,1.011,0.635,6.505,0.635,6.505
							S315.65,180.61,314.643,179.101z"/>
						<path opacity="0.15" fill="#3F2436" d="M325.203,173.525c-1.332,0.691-3.565,0.734-5.877-0.021
							c-2.766-0.9-4.769-2.657-5.021-4.24c1.321-0.055,2.672,0.245,3.983,0.802l3.934,1.666
							C323.462,172.119,324.443,172.744,325.203,173.525z"/>
						<path fill="#F9CB53" d="M317.488,179.264c4.524,1.698,2.863,8.465-2.953,5.65
							C310.802,183.109,312.961,177.567,317.488,179.264z"/>
						<path opacity="0.64" fill="#FFFFFF" d="M317.488,179.264c4.524,1.698,2.863,8.465-2.953,5.65
							C310.802,183.109,312.961,177.567,317.488,179.264z"/>
						<path fill="none" stroke="#3F2436" stroke-miterlimit="10" d="M317.09,180.198c0,0-0.33,1.317-0.776,1.681"/>
						<g>
							<path fill="#3F2436" d="M318.319,181.681c-1.229-0.616-1.656,0.325-2.132,0.032c-0.479-0.298-0.757-1.327-1.683-1.053
								c-0.926,0.271-1.746,3.172,1.824,3.846C318.826,184.977,319.544,182.295,318.319,181.681z"/>
							<path fill="#D83D22" d="M313.811,181.5c0.386,0.035,0.782,0.127,1.168,0.293c1.258,0.538,2.067,1.645,2.143,2.757
								c-0.242,0.021-0.505,0.01-0.793-0.044C313.844,184.036,313.487,182.489,313.811,181.5z"/>
							<path fill="#FFFFFF" d="M318.705,182.025c-0.095-0.144-0.223-0.263-0.387-0.345c-1.229-0.616-1.656,0.325-2.132,0.032
								c-0.479-0.298-0.757-1.327-1.683-1.053c-0.065,0.018-0.131,0.053-0.193,0.097c0.048,0.261,0.15,0.516,0.295,0.756
								c-0.105,0.307-0.172,0.569-0.006,0.617c0.146,0.047,0.279,0.05,0.406-0.111c0.239,0.233,0.528,0.435,0.863,0.576
								c0.465,0.198,0.948,0.263,1.393,0.21c0.035,0.271,0.138,0.442,0.266,0.458c0.18,0.025,0.361-0.294,0.51-0.693
								C318.298,182.438,318.528,182.254,318.705,182.025z"/>
						</g>
						<path opacity="0.35" fill="#D83D22" d="M320.36,183.39c-0.215,0.755,0.437,1.597,1.455,1.88s2.021-0.102,2.236-0.855
							c0.215-0.757-0.435-1.6-1.454-1.881C321.578,182.249,320.577,182.632,320.36,183.39z"/>
						<path opacity="0.35" fill="#D83D22" d="M308.474,178.116c-0.425,0.659-0.043,1.654,0.849,2.219
							c0.896,0.563,1.965,0.485,2.39-0.176c0.424-0.662,0.043-1.656-0.849-2.219C309.968,177.374,308.899,177.453,308.474,178.116z"
							/>
						<path fill="#3F2436" d="M319.442,179.961c0.334,0.666-1.934,1.131-2.56,0.746c-0.628-0.388-2.188-1.643-1.603-2.202
							C315.868,177.945,319.108,179.294,319.442,179.961z"/>
						<path opacity="0.64" fill="#FFFFFF" d="M317.459,179.121c0,0,1.193,0.307,1.062,0.496
							C318.388,179.804,317.084,179.327,317.459,179.121z"/>
					</g>
					<g>
						<path fill="#3F2436" d="M324.527,173.476c0,0,1.995-4.374-2.937-6.53c-4.89-2.139-6.945,2.833-6.945,2.833
							S318.762,174.173,324.527,173.476z"/>
						<path opacity="0.08" fill="#3F2436" d="M314.645,169.778c0,0,0.336-0.811,1.058-1.638c2.235,2.533,7.738,3.517,9.202,3.738
							c-0.077,0.936-0.378,1.597-0.378,1.597C318.762,174.173,314.645,169.778,314.645,169.778z"/>
						
							<line opacity="0.18" fill="none" stroke="#3F2436" stroke-width="0.5" stroke-miterlimit="10" x1="321.421" y1="166.997" x2="319.698" y2="171.714"/>
						<path opacity="0.18" fill="none" stroke="#3F2436" stroke-width="0.5" stroke-miterlimit="10" d="M323.107,173.057
							c0,0,1.464-3.646-1.517-6.111"/>
						<path opacity="0.18" fill="none" stroke="#3F2436" stroke-width="0.5" stroke-miterlimit="10" d="M315.971,169.914
							c0,0,0.7-3.375,5.135-3.034"/>
						<path fill="#D83D22" d="M321.801,167.168c0,0,0.184-0.347-0.254-0.507c-0.369-0.135-0.506,0.234-0.506,0.234
							S321.28,167.229,321.801,167.168z"/>
						<path fill="#D83D22" d="M314.645,169.778c0,0,0.266-0.639,0.829-1.359c2.445,2.492,7.16,3.396,9.408,3.693
							c-0.104,0.809-0.355,1.363-0.355,1.363C318.762,174.173,314.645,169.778,314.645,169.778z"/>
					</g>
				</g>
			</g>
		</g>
	</g>
	<g>
		<g>
			<rect x="175.992" y="168.915" fill="#CB3839" width="5.189" height="29.767"/>
			<rect x="174.473" y="167.384" fill="#FFBC27" width="8.535" height="1.531"/>
			<rect x="174.473" y="198.682" fill="#FFBC27" width="8.535" height="1.53"/>
			<rect x="177.1" y="164.32" fill="#D18B00" width="2.734" height="3.063"/>
			<rect x="177.1" y="200.212" fill="#D18B00" width="2.734" height="3.064"/>
			<rect x="175.992" y="169.192" fill="#99202C" width="1.297" height="29.768"/>
		</g>
		<g>
			<rect x="300.149" y="168.915" fill="#CB3839" width="5.189" height="29.767"/>
			<rect x="298.629" y="167.384" fill="#FFBC27" width="8.533" height="1.531"/>
			<rect x="298.629" y="198.682" fill="#FFBC27" width="8.533" height="1.53"/>
			<rect x="301.256" y="164.32" fill="#D18B00" width="2.734" height="3.063"/>
			<rect x="301.256" y="200.212" fill="#D18B00" width="2.734" height="3.064"/>
			<rect x="304.041" y="168.915" fill="#99202C" width="1.297" height="29.767"/>
		</g>
		<rect x="181.182" y="168.915" fill="#AF1E26" width="118.967" height="29.767"/>
		<rect x="181.182" y="172.184" fill="#FFFEE6" width="118.967" height="23.103"/>
	</g>
	<g>
		<g>
			<g>
				<rect id="SVGID_9_" x="234.403" y="180.419" fill="#0F5C9E" width="3.645" height="1.068"/>
			</g>
			<g>
				<defs>
					<rect id="SVGID_26_" x="234.403" y="180.419" width="3.645" height="1.068"/>
				</defs>
				<clipPath id="SVGID_11_">
					<use xlink:href="#SVGID_26_"  overflow="visible"/>
				</clipPath>
				<rect x="234.403" y="180.419" clip-path="url(#SVGID_11_)" fill="#0F5C9E" width="3.645" height="1.068"/>
			</g>
		</g>
		<path fill="#0F5C9E" d="M231.03,188.51l0.709-1.066h4.801l-1.244,0.798l0.533,0.356l0.621,0.354
			c-1.066,0.179-2.221,0.357-3.287,0.357l-2.934,0.176C230.584,189.131,230.852,188.864,231.03,188.51 M225.16,186.109v1.421h4.801
			c-0.443,0.625-0.979,1.334-1.777,2.045c-0.178,0-0.443,0.09-0.889,0.09h-1.066l0.266,1.509c1.6-0.264,3.467-0.354,5.689-0.354
			c1.865-0.176,3.734-0.354,5.688-0.533l0.623,0.445l0.801,0.711l1.064-1.156c-1.598-1.244-2.842-2.131-3.82-2.665h4.176v-1.423
			H225.16V186.109z"/>
		<polygon fill="#0F5C9E" points="226.229,176.243 226.229,177.397 231.918,177.397 231.918,178.287 225.516,178.287 
			225.516,183.443 227.295,183.443 227.295,179.442 231.918,179.442 231.918,183.265 233.783,183.265 233.783,179.442 
			238.674,179.442 238.674,183.265 240.449,183.265 240.449,178.287 233.783,178.287 233.783,177.397 239.471,177.397 
			239.471,176.243 		"/>
		<rect x="226.674" y="184.064" fill="#0F5C9E" width="12.531" height="1.158"/>
		<g>
			<g>
				<rect id="SVGID_8_" x="227.828" y="180.331" fill="#0F5C9E" width="3.555" height="1.068"/>
			</g>
			<g>
				<defs>
					<rect id="SVGID_28_" x="227.828" y="180.331" width="3.555" height="1.068"/>
				</defs>
				<clipPath id="SVGID_13_">
					<use xlink:href="#SVGID_28_"  overflow="visible"/>
				</clipPath>
				<rect x="227.828" y="180.331" clip-path="url(#SVGID_13_)" fill="#0F5C9E" width="3.555" height="1.068"/>
			</g>
		</g>
		<g>
			<g>
				<rect id="SVGID_7_" x="227.828" y="182.288" fill="#0F5C9E" width="3.555" height="1.064"/>
			</g>
			<g>
				<defs>
					<rect id="SVGID_30_" x="227.828" y="182.288" width="3.555" height="1.064"/>
				</defs>
				<clipPath id="SVGID_15_">
					<use xlink:href="#SVGID_30_"  overflow="visible"/>
				</clipPath>
				<rect x="227.828" y="182.288" clip-path="url(#SVGID_15_)" fill="#0F5C9E" width="3.555" height="1.064"/>
			</g>
		</g>
		<g>
			<g>
				<rect id="SVGID_6_" x="234.403" y="182.288" fill="#0F5C9E" width="3.645" height="1.064"/>
			</g>
			<g>
				<defs>
					<rect id="SVGID_32_" x="234.403" y="182.288" width="3.645" height="1.064"/>
				</defs>
				<clipPath id="SVGID_17_">
					<use xlink:href="#SVGID_32_"  overflow="visible"/>
				</clipPath>
				<rect x="234.403" y="182.288" clip-path="url(#SVGID_17_)" fill="#0F5C9E" width="3.645" height="1.064"/>
			</g>
		</g>
		<path fill="#0F5C9E" d="M248.625,181.577v1.333h4.09l-0.18,0.533c-0.09,0.355-0.176,0.621-0.354,0.801h-3.379v7.11h1.512v-5.78
			h1.242v5.245h1.336v-5.245h1.154v5.245h1.332v-5.245h1.244v3.823c0,0.268-0.176,0.445-0.443,0.445h-0.711l0.355,1.419h0.891
			c0.887,0,1.332-0.53,1.332-1.597v-5.421h-4.268l0.18-0.713l0.178-0.621h4.443v-1.333H248.625z M243.471,181.399
			c0.088,0.622,0.268,1.511,0.355,2.755l0.266,3.467l1.424-0.445c0-0.266,0-0.532-0.09-0.801c-0.088-2.131-0.266-3.91-0.531-5.33
			L243.471,181.399z M246.582,181.577c-0.268,2.133-0.535,4.177-0.891,6.133c0,0.179-0.088,0.445-0.088,0.711
			c-0.266,0.089-0.709,0.264-1.156,0.356l-1.244,0.265l0.355,1.602l2.668-0.801c0.709-0.178,1.512-0.445,2.221-0.712v-1.601
			l-0.621,0.268l-0.621,0.267l0.533-3.285c0.176-0.891,0.355-2.138,0.531-3.559l-1.51-0.268
			C246.582,181.133,246.582,181.399,246.582,181.577 M244.448,176.865c0.27,0.443,0.533,1.067,0.801,1.867h-1.867v1.423h5.066
			v-1.423h-1.598c0-0.088-0.09-0.178-0.09-0.268c-0.09-0.442-0.268-0.709-0.268-0.888l-0.268-0.712
			c-0.09-0.085-0.09-0.269-0.178-0.441L244.448,176.865z M252.715,176.243v2.845h-2.313v-2.491h-1.508v3.822h9.152v-3.822h-1.51
			v2.491h-2.225v-2.845H252.715z"/>
		<path fill="#0F5C9E" d="M264.178,185.042v1.245h6.936l-1.602,0.445c-0.621,0.178-1.066,0.266-1.242,0.266v0.712h-7.201v1.332
			h7.201v0.623c0,0.355-0.178,0.446-0.535,0.446l-2.311-0.091l0.355,1.334h2.402c0.975,0,1.508-0.444,1.508-1.424v-0.355v-0.623
			h6.846v-1.331h-6.846c1.332-0.445,2.486-0.889,3.557-1.423v-1.156H264.178z M269.867,179.976c-0.178,0.18-0.355,0.267-0.623,0.443
			c-0.174-0.177-0.354-0.264-0.707-0.532l-0.535-0.354l-0.889,0.71l0.533,0.357l0.535,0.445l-0.09,0.088
			c-0.445,0.177-0.891,0.354-1.248,0.444c-0.086,0-0.176,0-0.354,0.089l0.711,1.065c0.09,0,0.09-0.09,0.178-0.09
			c0.891-0.267,1.42-0.62,1.777-0.887l0.443,0.356l0.443,0.53l1.07-0.798l-0.445-0.267l-0.445-0.444l0.535-0.445l0.621-0.532
			l-0.889-0.713L269.867,179.976z M262.137,176.865l0.178,6.221h-0.803v3.646h1.514v-2.399h11.912v2.399h1.508v-3.646h-0.889
			l0.176-6.397h-4.086v1.334h2.664v0.889h-2.398v1.154h2.398v0.888h-2.398v1.158h2.311v1.065h-10.398v-1.065h2.488v-1.245h-2.488
			v-0.891h2.576v-1.154h-2.576v-0.799c1.334-0.09,2.313-0.18,2.934-0.445l-0.711-1.153
			C264.891,176.597,263.645,176.78,262.137,176.865 M267.024,176.953l0.533,0.355l0.535,0.447c-0.09,0.087-0.357,0.177-0.801,0.356
			l-1.068,0.353l0.801,1.067l1.068-0.532c0.445-0.179,0.707-0.355,0.889-0.445l0.443,0.356l0.443,0.531l0.977-0.71l-0.354-0.533
			l-0.447-0.356l0.535-0.355c0.18-0.09,0.266-0.267,0.535-0.443l-0.891-0.801c-0.18,0.267-0.355,0.445-0.445,0.445l-0.533,0.443
			l-0.707-0.535l-0.627-0.354L267.024,176.953z"/>
		<path fill="#0F5C9E" d="M284.801,183.618v1.424h2.219v0.09v0.178c0,1.243-0.262,2.221-0.797,2.932
			c-0.533,0.711-1.512,1.334-2.844,1.779l0.977,1.334c1.512-0.623,2.578-1.424,3.197-2.313c0.625-0.887,0.98-2.044,0.98-3.468
			v-0.175v-0.268v-0.09h1.154v4.178c0,0.711,0.178,1.245,0.443,1.512c0.268,0.268,0.713,0.356,1.248,0.356h0.174h0.625
			c0.799,0,1.33-0.089,1.689-0.356c0.354-0.267,0.443-1.246,0.443-2.843v-0.268v-0.091l-1.334-0.354c0,1.334,0,2.134-0.092,2.31
			c-0.086,0.18-0.266,0.269-0.707,0.269h-0.354c-0.359,0-0.625-0.179-0.625-0.534v-4.178h3.199v-1.424H284.801z M279.377,176.865
			v14.489h1.6v-13.155h1.779l-0.445,1.776c-0.178,0.624-0.355,1.245-0.623,1.868c0.891,1.6,1.424,2.844,1.424,3.556
			c0,0.442-0.178,0.71-0.443,0.799c0,0-0.09,0-0.178,0c-0.09,0-0.18,0-0.27,0c-0.354,0-0.709,0-0.977-0.089l0.443,1.512
			c0.09,0,0.268,0,0.533,0c1.602,0,2.4-0.711,2.4-2.222c0-0.891-0.445-2.135-1.334-3.645c0.18-0.534,0.445-1.155,0.623-1.955
			l0.533-2.044v-0.891H279.377z M286.311,179.178h6.309v1.6h-6.309V179.178z M287.91,176.424l0.357,0.62
			c0.088,0.088,0.178,0.265,0.266,0.443c0,0.09,0.088,0.09,0.088,0.269h-3.82v3.554h1.242v0.802h6.842v-0.712h1.248v-3.644h-4.002
			l-0.266-0.803c-0.092-0.265-0.178-0.443-0.354-0.71L287.91,176.424z"/>
		<path fill="#0F5C9E" d="M193.787,184.064c-0.09,0.18-0.09,0.355-0.09,0.533c0,0.269,0.09,0.444,0.266,0.625
			c0.18,0.263,0.445,0.352,0.713,0.352c0.176,0,0.268,0,0.357-0.089c0.443-0.263,0.533-0.532,0.533-0.977c0-0.089,0-0.265,0-0.444
			c-0.178-0.533-0.623-0.712-0.98-0.712C194.233,183.531,193.875,183.71,193.787,184.064 M198.764,183.353
			c-0.352,0.266-0.352,0.446-0.443,0.892c0.092,0.354,0,0.535,0.264,0.798c0.18,0.181,0.359,0.268,0.625,0.268
			c0.445,0,0.621-0.178,0.889-0.53c0.09-0.182,0.09-0.359,0.09-0.535c0-0.268-0.09-0.534-0.268-0.713s-0.445-0.354-0.711-0.354
			C199.121,183.265,198.944,183.265,198.764,183.353 M193.698,181.487v0.978h2.314v3.109l-0.094,0.624
			c-0.264,1.067-1.42,2.043-2.131,2.223v2.934c0.977-0.801,1.689-1.689,2.043-2.934h0.182v2.934h1.775v-9.066v-0.801H193.698z
			 M198.5,181.487v0.978h2.309v3.109l-0.088,0.624c-0.268,1.067-1.424,2.043-2.137,2.223v2.934c0.98-0.801,1.689-1.689,2.047-2.934
			h0.178v2.934h1.777v-9.066v-0.801H198.5z M188.365,184.688c-0.088-0.179-0.088-0.623-0.088-0.889h2.844c0,0,0,0.09,0,0.266
			c0,0.269-0.09,0.533-0.268,0.889c-0.354,0.446-0.709,0.621-1.51,0.621C188.989,185.399,188.543,185.132,188.365,184.688
			 M188.278,181.31h2.844v1.155h-2.844V181.31z M188.811,176.334v1.243h-2.4v1.155h2.4v1.243h-2.4v4.357l0.268,1.066
			c0.799,1.065,1.334,1.244,2.133,1.421v1.157h-2.4v1.064h2.4v2.313h1.865v-2.402h2.311v-1.063h-2.311v-1.156
			c0.445-0.268,0.445,0.178,1.602-0.802c0,0,0.709-1.064,0.709-1.866v-4.089h-2.311v-1.243h2.311v-1.066h-2.311v-1.332H188.811z
			 M196.541,176.424c-1.508,0.356-2.309,1.599-2.754,3.019c0,0.357-0.09,0.977-0.09,0.977h1.691
			c0.088-0.532,0.266-0.977,0.529-1.419c0.535-0.888,1.424-1.334,2.225-1.334c0.27,0,0.533,0,0.801,0.09
			c0.977,0.443,1.598,1.422,1.865,2.575h1.689c-0.18-0.799-0.18-1.599-0.713-2.309l-0.441-0.625
			c-0.979-0.888-2.135-1.242-3.291-1.242C197.522,176.243,196.987,176.334,196.541,176.424"/>
		<path fill="#0F5C9E" d="M217.074,176.243v2.134h-2.936v1.155h2.936v1.513c-0.803,0.176,0,0-0.889,0.442
			c-0.979,0.444-2.047,2.044-2.047,3.466v2.668v3.733h1.691v-6.488c0-1.156,0-1.248,0.529-1.868c0.182-0.18,0.359-0.44,0.715-0.44
			v6.662v1.6v0.535h1.867v-6.667c0-0.179,0-0.443,0-0.711c0-0.624,0-1.419,0-1.419c0.619,0.261,1.154,0.886,1.154,1.687v7.11h1.777
			v-6.045v-0.53c0-1.336-1.6-3.47-2.932-3.734v-1.513h2.932v-1.155h-2.932v-2.134H217.074z M208.451,176.243v2.134h-2.844v1.155
			h2.844v1.513c-0.799,0.176,0,0-0.887,0.442c-0.979,0.444-2.047,2.044-2.047,3.466v2.668v3.733h1.689v-6.488
			c0-1.156,0-1.248,0.535-1.78c0.174-0.176,0.354-0.444,0.709-0.444v6.668v1.601v0.444h1.865v-6.667c0-0.179,0-0.443,0-0.799
			c0-0.624,0-1.424,0-1.424c0.623,0.267,1.156,0.888,1.156,1.689v7.107h1.777v-6.039v-0.535c0-1.335-1.598-3.467-2.934-3.734v-1.421
			h2.934v-1.155h-2.934v-2.134H208.451z"/>
	</g>
	<g>
		
			<ellipse transform="matrix(0.9957 0.0922 -0.0922 0.9957 18.5804 -31.1521)" display="none" fill="#FFE6AE" cx="346.309" cy="185.435" rx="18.29" ry="9.11"/>
		
			<ellipse transform="matrix(0.9957 0.0922 -0.0922 0.9957 18.6436 -31.0278)" display="none" fill="none" stroke="#FFC25F" stroke-width="0.2" stroke-miterlimit="10" cx="345.092" cy="186.239" rx="18.29" ry="9.11"/>
		<text transform="matrix(1 0 0 1 328.6975 184.377)" fill="#635031" font-family="'InkFree'" font-size="8.6204">smart</text>
		<text transform="matrix(1 0 0 1 333.7249 192.3594)" fill="#635031" font-family="'InkFree'" font-size="8.6204">learning!</text>
	</g>
	<g>
		<g>
			<g>
				<path fill="#FF9631" d="M289.74,199.087l1.176,1.741c0.26,0.386,0.663,0.651,1.122,0.731c1.505,0.263,5.081,0.482,8.749-2.26
					c0,0,2.038-1.881,2.423-3.605c0.072-0.32,0.027-0.654-0.122-0.945l-0.839-1.639C302.248,193.11,299.244,201.719,289.74,199.087z
					"/>
				<path opacity="0.46" fill="#FF9631" d="M298.263,191.951c-7.642,0.435-11.313,8.456-5.758,8.77
					C302.065,201.261,306.802,191.465,298.263,191.951z M293.359,199.759c-4.304-0.057-0.904-6.294,5.008-6.63
					C304.973,192.753,299.669,199.843,293.359,199.759z"/>
				<path fill="#F9CB53" d="M298.057,191.745c-7.642,0.436-11.313,8.456-5.758,8.77C301.859,201.055,306.595,191.26,298.057,191.745
					z M296.724,196.931h-2.172l1.604-1.87h2.071L296.724,196.931z"/>
				<path opacity="0.55" fill="#F9CB53" d="M298.057,191.745c-7.642,0.436-11.313,8.456-5.758,8.77
					C301.859,201.055,306.595,191.26,298.057,191.745z M296.724,196.931h-2.172l1.604-1.87h2.071L296.724,196.931z"/>
				<path fill="#F9CB53" d="M298.056,191.745c-7.641,0.436-11.312,8.456-5.757,8.77C301.859,201.055,306.596,191.26,298.056,191.745
					z M293.153,199.554c-4.305-0.057-0.904-6.295,5.008-6.632C304.766,192.546,299.463,199.637,293.153,199.554z"/>
				<path opacity="0.43" fill="#FF9631" d="M298.16,192.922c-5.912,0.337-9.313,6.575-5.008,6.632
					C299.463,199.637,304.766,192.546,298.16,192.922z"/>
				<path fill="#F9CB53" d="M292.578,197.737l4.396,0.184l3.137-3.801l-3.983-0.16L292.578,197.737z M298.227,195.061l-1.503,1.87
					h-2.172l1.604-1.87H298.227z"/>
			</g>
			<polygon fill="#FF9631" points="295.587,196.899 296.365,195.799 297.601,195.799 298.227,195.061 296.156,195.061 
				294.552,196.931 			"/>
			<path opacity="0.46" fill="#FF9631" d="M298.16,192.922c-5.019,0.286-8.225,4.823-6.445,6.223
				c-0.175-0.513-0.245-1.296,0.337-2.207c1.039-1.627,3.937-4.048,6.973-3.507c1.338,0.238,1.88,0.932,2.099,1.508
				C301.463,193.723,300.679,192.779,298.16,192.922z"/>
		</g>
		<path opacity="0.57" fill="#FBF8EC" d="M289.798,198.152c0,0,0.596-3.283,3.572-4.917c3.023-1.658,5.377-1.514,6.125-1.259
			C299.495,191.977,291.942,191.586,289.798,198.152z"/>
	</g>
	<g>
		<g>
			<g>
				<path fill="#FF9631" d="M189.854,172.387l-1.063,0.995c-0.236,0.22-0.549,0.337-0.87,0.32c-1.057-0.055-3.506-0.457-5.56-2.873
					c0,0-1.087-1.584-1.081-2.808c0.001-0.227,0.083-0.446,0.228-0.62l0.819-0.978C182.327,166.424,183.031,172.7,189.854,172.387z"
					/>
				<path opacity="0.46" fill="#FF9631" d="M187.734,173.064c3.8,0.645,2.556-5.338-2.536-6.809
					C179.506,164.612,181.197,171.956,187.734,173.064z M184.946,167.035c3.94,1.137,5.274,5.873,2.36,5.248
					C183.032,171.368,180.543,165.763,184.946,167.035z"/>
				<path fill="#F9CB53" d="M187.904,172.957c3.8,0.644,2.558-5.338-2.536-6.808C179.678,164.505,181.366,171.849,187.904,172.957z
					 M184.742,168.36l1.398,0.319l0.795,1.509l-1.467-0.333L184.742,168.36z"/>
				<path opacity="0.55" fill="#F9CB53" d="M187.904,172.957c3.8,0.644,2.558-5.338-2.536-6.808
					C179.678,164.505,181.366,171.849,187.904,172.957z M184.742,168.36l1.398,0.319l0.795,1.509l-1.467-0.333L184.742,168.36z"/>
				<path fill="#F9CB53" d="M187.904,172.957c3.8,0.644,2.558-5.338-2.536-6.808C179.678,164.505,181.367,171.849,187.904,172.957z
					 M185.116,166.927c3.941,1.138,5.275,5.874,2.36,5.249C183.202,171.26,180.714,165.656,185.116,166.927z"/>
				<path opacity="0.43" fill="#FF9631" d="M187.477,172.176c2.915,0.625,1.581-4.111-2.36-5.249
					C180.714,165.656,183.202,171.26,187.477,172.176z"/>
				<path fill="#F9CB53" d="M186.33,167.94l-2.715-0.505l1.533,3.049l2.996,0.554L186.33,167.94z M186.141,168.68l0.795,1.509
					l-1.467-0.333l-0.727-1.495L186.141,168.68z"/>
			</g>
			<polygon fill="#FF9631" points="186.241,170.009 185.886,169.146 185.051,168.955 184.742,168.36 186.141,168.68 
				186.936,170.188 			"/>
			<path opacity="0.46" fill="#FF9631" d="M185.116,166.927c3.345,0.967,4.812,4.524,3.395,5.195
				c0.195-0.319,0.363-0.839,0.112-1.543c-0.451-1.258-2.035-3.339-4.169-3.441c-0.939-0.045-1.412,0.338-1.648,0.695
				C182.763,166.959,183.438,166.442,185.116,166.927z"/>
		</g>
		<path opacity="0.57" fill="#FBF8EC" d="M189.957,171.746c0,0,0.104-2.308-1.655-3.868c-1.784-1.586-3.396-1.852-3.941-1.795
			C184.361,166.083,189.522,166.982,189.957,171.746z"/>
	</g>
</g>
</svg>
