<?xml version="1.0" encoding="utf-8"?>
<!-- Generator: Adobe Illustrator 16.0.0, SVG Export Plug-In . SVG Version: 6.00 Build 0)  -->
<!DOCTYPE svg PUBLIC "-//W3C//DTD SVG 1.1//EN" "http://www.w3.org/Graphics/SVG/1.1/DTD/svg11.dtd">
<svg version="1.1" xmlns="http://www.w3.org/2000/svg" xmlns:xlink="http://www.w3.org/1999/xlink" x="0px" y="0px"
	 width="540.693px" height="184.479px" viewBox="0 0 540.693 184.479" enable-background="new 0 0 540.693 184.479"
	 xml:space="preserve">
<g id="PRINT">
	<g>
		<path fill="#3777D3" d="M525.364,61.437c0,2.622-1.535,5-3.932,6.076l-213.616,95.771c0,11.178-77.965,11.178-77.965,0v-0.599
			L17.564,67.513c-1.189-0.543-2.182-1.404-2.864-2.462c-0.684-1.058-1.067-2.303-1.067-3.614c0-4.83,14.613,1.518,14.613,1.518
			l203.806,89.376c-0.085,0.234-0.141,0.468-0.141,0.712c0,4.568,16.916,8.285,37.793,8.285s37.803-3.717,37.803-8.285
			L512.94,62.954C512.94,62.954,525.364,57.589,525.364,61.437z"/>
		<g>
			<path fill="#FFFFFF" stroke="#EDE6D6" stroke-miterlimit="10" d="M512.94,62.951l-205.434,90.088
				c0,4.568-16.927,8.285-37.803,8.285c-20.877,0-37.793-3.717-37.793-8.285c0-0.243,0.056-0.478,0.14-0.712L28.246,62.951
				l3.436-3.717l1.563-1.694l6.45-7.003h6.685l8.594-12.404h9.549l13.846-22.599c88.291,14.932,155.715,52.697,189.042,127.731
				c0.394,0.908,1.292,1.488,2.284,1.488h0.01c0.59,0,1.18,0,1.76,0.01c0.992,0.009,1.9-0.571,2.303-1.489
				c33.328-75.043,100.752-112.809,189.052-127.74l10.438,17.048l3.398,5.551h9.549l3.707,5.355l4.887,7.049h6.685l6.638,7.19
				l0.748,0.814L512.94,62.951z"/>
			<path opacity="0.64" fill="#FFFFFF" stroke="#FFFFFF" stroke-miterlimit="10" d="M508.12,61.463l-200.305,87.841
				c0,4.568-16.926,8.285-37.803,8.285s-37.793-3.717-37.793-8.285c0-0.243,0.056-0.478,0.141-0.711L33.245,61.275l6.45-7.003h6.685
				l8.594-12.404h9.549L78.368,19.27c88.291,14.932,155.715,52.697,189.042,127.731c0.394,0.908,1.292,1.488,2.284,1.488h0.01
				c0.59,0,1.18,0,1.76,0.01c0.992,0.009,1.9-0.571,2.303-1.489C307.095,71.967,374.519,34.201,462.818,19.27l10.438,17.048
				l3.398,5.551h9.549l3.707,5.355l4.887,7.049h6.685L508.12,61.463z"/>
			<g>
				<path opacity="0.63" fill="#EDE6D6" d="M478.405,38.136c-67.17,25.398-127.554,62.031-181.149,109.926
					c0,0,70.176-82.299,176.001-115.478l3.398,5.552H478.405z"/>
				<path opacity="0.63" fill="#EDE6D6" d="M495.388,50.54c-53.465,19.257-121.914,50.128-168.002,84.476
					c0,0,77.39-61.202,162.525-91.525l4.887,7.05H495.388z"/>
			</g>
			<g>
				<path opacity="0.63" fill="#EDE6D6" d="M62.976,38.136c67.17,25.398,127.554,62.031,181.149,109.926
					c0,0-70.176-82.299-176.001-115.478l-3.398,5.552H62.976z"/>
				<path opacity="0.63" fill="#EDE6D6" d="M45.993,50.54c53.465,19.257,121.914,50.128,168.003,84.476
					c0,0-77.391-61.202-162.526-91.525l-4.887,7.05H45.993z"/>
			</g>
		</g>
	</g>
</g>
<g id="圖層_2">
</g>
</svg>
