<?xml version="1.0" encoding="utf-8"?>
<!-- Generator: Adobe Illustrator 16.0.0, SVG Export Plug-In . SVG Version: 6.00 Build 0)  -->
<!DOCTYPE svg PUBLIC "-//W3C//DTD SVG 1.1//EN" "http://www.w3.org/Graphics/SVG/1.1/DTD/svg11.dtd">
<svg version="1.1" xmlns="http://www.w3.org/2000/svg" xmlns:xlink="http://www.w3.org/1999/xlink" x="0px" y="0px" width="145px"
	 height="158.119px" viewBox="0 0 145 158.119" enable-background="new 0 0 145 158.119" xml:space="preserve">
<g id="BACKGROUND">
</g>
<g id="OBJECTS">
	<g id="XMLID_600_">
		<path id="XMLID_693_" fill="#D9F0FF" d="M43.261,11.801c-1.416,0.701-2.775,1.488-4.062,2.358
			C19.925,27.203,9.81,51.944,8.108,74.455c-0.175,2.314-0.246,4.638-0.209,6.959c0.429,27.061,16.58,53.899,41.365,64.771
			c24.785,10.871,56.944,3.588,72.842-18.316c7.602-10.474,11.282-24.795,5.878-36.555c-7.556-16.443-27.6-21.478-36.941-36.442
			c-8.139-13.036-1.316-31.645-14.621-41.947C67.094,5.702,53.356,6.804,43.261,11.801z"/>
		<g id="XMLID_601_">
			<ellipse id="XMLID_692_" fill="#549EC6" cx="78.371" cy="142.045" rx="56.974" ry="4.825"/>
			<g id="XMLID_602_">
				<g id="XMLID_680_">
					<g id="XMLID_684_">
						<polygon id="XMLID_691_" fill="#5F505E" points="43.983,139.644 41.846,139.644 41.846,100.292 37.003,79.426 39.141,79.426 
							43.983,100.184 						"/>
						<polygon id="XMLID_690_" fill="#5F505E" points="65.258,138.604 63.12,138.604 63.12,99.932 58.278,79.426 60.415,79.426 
							65.258,99.825 						"/>
						<rect id="XMLID_689_" x="58.278" y="102.806" fill="#5F505E" width="2.137" height="36.838"/>
						<rect id="XMLID_688_" x="83.771" y="102.806" fill="#5F505E" width="2.137" height="36.838"/>
						<g id="XMLID_685_">
							<path id="XMLID_687_" fill="#466CA3" d="M55.084,85.059H36.005c-3.392,0-6.807-2.847-7.623-6.332l-4.576-19.543
								c-0.772-3.298,1.252-5.953,4.516-5.953h18.365c3.265,0,6.63,2.655,7.523,5.953l5.298,19.543
								C60.452,82.212,58.476,85.059,55.084,85.059z"/>
							<path id="XMLID_686_" fill="#35598E" d="M55.395,85.059h-17.81c-3.164,0-6.354-2.847-7.115-6.332l-4.271-19.543
								c-0.721-3.298,1.169-5.953,4.216-5.953h17.141c3.047,0,6.189,2.655,7.023,5.953l4.944,19.543
								C60.405,82.212,58.56,85.059,55.395,85.059z"/>
						</g>
					</g>
					<g id="XMLID_681_">
						<path id="XMLID_683_" fill="#466CA3" d="M88.954,104.184H42.367c-1.507,0-2.729-1.222-2.729-2.729l0,0
							c0-1.508,1.222-2.729,2.729-2.729h46.587c1.507,0,2.729,1.222,2.729,2.729l0,0C91.683,102.962,90.461,104.184,88.954,104.184z
							"/>
						<path id="XMLID_682_" fill="#35598E" d="M88.954,104.184H46.188c-1.506,0-2.729-1.222-2.729-2.729l0,0
							c0-1.508,1.223-2.729,2.729-2.729h42.766c1.507,0,2.729,1.222,2.729,2.729l0,0C91.683,102.962,90.461,104.184,88.954,104.184z
							"/>
					</g>
				</g>
				<g id="XMLID_677_">
					<path id="XMLID_679_" fill="#5F505E" d="M45.491,40.935c0,0-8.712-4.271-9.715,4.515c-0.693,6.082,2.02,29.352,5.988,30.481
						c3.969,1.13,5.952-9.767,5.952-9.767L45.491,40.935z"/>
					<path id="XMLID_678_" fill="#776774" d="M48.554,63.53c0,0-7.999-4.075-11.551,2.785c-0.278,2.61,0.891,6.128,2.791,7.395
						c0,0,5.98-3.314,8.331-3.314L48.554,63.53z"/>
				</g>
				<g id="XMLID_622_">
					<g id="XMLID_653_">
						<g id="XMLID_674_">
							<path id="XMLID_676_" fill="#4C404B" d="M64.282,48.492l0.792-6.822c0,0,3.255-1.232,5.631,0.704
								c2.375,1.936,9.414,19.955,9.414,19.955l-8.357,8.288L64.282,48.492z"/>
							<path id="XMLID_675_" fill="#776774" d="M68.644,68.02c-0.05-0.308,3.733-10.689,12.883-8.841s5.719,6.396,5.719,6.396
								L72.2,73.71L68.644,68.02z"/>
						</g>
						<g id="XMLID_671_">
							<path id="XMLID_673_" fill="#5F505E" d="M49.378,41.449c0,0-6.699-1.538-9.994,0.549c-1.483,0.939,2.5,9.151,4.645,18.369
								c2.621,11.266,3.701,23.826,3.701,23.826L75.516,80c0,0-6.138-22.756-6.362-31.021c-0.225-8.264-2.15-7.843-7.438-6.592
								C56.43,43.638,49.378,41.449,49.378,41.449z"/>
							<path id="XMLID_672_" fill="#F47567" d="M48.87,40.903c0,0,4.344,11.583,9.181,10.393s5.372-11.778,5.372-11.778
								L48.87,40.903z"/>
						</g>
						<g id="XMLID_657_">
							
								<ellipse id="XMLID_670_" transform="matrix(0.8858 -0.464 0.464 0.8858 -8.9682 34.9233)" fill="#F47567" cx="66.481" cy="35.685" rx="4.129" ry="2.7"/>
							<path id="XMLID_669_" fill="#FF917B" d="M66.642,34.388c0.468,7.482-3.315,13.723-9.146,14.087s-11.502-5.286-11.969-12.769
								c-0.468-7.483,3.939-13.301,9.711-14.209C66.681,19.697,66.175,26.904,66.642,34.388z"/>
							<g id="XMLID_666_">
								<path id="XMLID_668_" fill="#29150F" d="M68.993,27.858c-0.822,0.715-1.466,1.216-1.466,1.216l-0.85,6.41
									c-0.286-2.95-0.572-5.847-1.261-7.196c0,0-14.285,0.831-15.5,0.938c0,0-0.617,5.051-2.289,7.438h-2.78
									c0,0-2.593-7.59-2.003-11.443s2.87-8.028,3.979-7.572c1.117,0.456,0.59,3.066,0.59,3.066s1.484-1.243,3.531-2.798
									c0.009,0,0.018-0.009,0.018-0.009c3.781-2.861,9.459-6.785,11.175-5.936c2.557,1.261-0.17,5.149-0.349,5.409
									c0.367-0.134,8.055-3.022,9.271-1.037c1.233,2.021-4.05,7.053-4.05,7.053s4.827-1.108,5.417,0.125
									C72.811,24.336,70.575,26.481,68.993,27.858z"/>
								<path id="XMLID_667_" fill="#593A2E" d="M68.993,27.858c0.536-1.055,1.037-2.297,0.876-2.995
									c-0.304-1.386-5.578,0.304-5.578,0.304s5.274-5.945,4.452-7.375c-0.813-1.439-9.324,1.743-9.324,1.743
									s2.002-3.996,0.465-4.926c-0.992-0.599-5.721,1.654-8.922,3.299c3.781-2.861,9.459-6.785,11.175-5.936
									c2.557,1.261-0.17,5.149-0.349,5.409c0.367-0.134,8.055-3.022,9.271-1.037c1.233,2.021-4.05,7.053-4.05,7.053
									s4.827-1.108,5.417,0.125C72.811,24.336,70.575,26.481,68.993,27.858z"/>
							</g>
							
								<ellipse id="XMLID_665_" transform="matrix(0.9538 0.3004 -0.3004 0.9538 13.1765 -11.7641)" fill="#FF917B" cx="44.849" cy="36.972" rx="4.128" ry="2.699"/>
							<g id="XMLID_658_">
								<ellipse id="XMLID_664_" fill="#333333" cx="54.174" cy="39.518" rx="0.423" ry="0.996"/>
								<ellipse id="XMLID_663_" fill="#333333" cx="63.422" cy="38.75" rx="0.422" ry="0.996"/>
								<path id="XMLID_662_" fill="#FFFFFF" d="M60.651,43.384c0,0-3.877,0.868-6.055-1.078c0,0-0.385,2.351,2.222,2.81
									C59.431,45.575,60.651,43.384,60.651,43.384z"/>
								
									<path id="XMLID_661_" fill="none" stroke="#29150F" stroke-width="0.75" stroke-linecap="round" stroke-linejoin="round" stroke-miterlimit="10" d="
									M62.46,33.506c0.852-0.51,2.048-0.345,2.73,0.375"/>
								
									<path id="XMLID_660_" fill="none" stroke="#29150F" stroke-width="0.75" stroke-linecap="round" stroke-linejoin="round" stroke-miterlimit="10" d="
									M55.017,34.026c-1.06-0.493-2.427-0.21-3.204,0.662"/>
								
									<path id="XMLID_659_" fill="none" stroke="#DB4242" stroke-width="0.75" stroke-linecap="round" stroke-linejoin="round" stroke-miterlimit="10" d="
									M60.727,38.917c0.243,1.138,0.271,1.648,0.11,2.801"/>
							</g>
						</g>
						<g id="XMLID_654_">
							<path id="XMLID_656_" fill="#FCA590" d="M47.917,50.186c-0.113-0.275-2.479-4.214-2.725-7.893s0.966-6.985,1.908-6.573
								s-0.021,5.752-0.021,5.752s0.922-5.803,2.152-5.427S48.964,43,48.964,43s1.326-4.84,2.229-4.659
								c0.901,0.18-0.495,6.771-0.495,6.771s0.583-4.076,1.722-3.993c1.138,0.083-0.377,5.157-0.377,5.157s2.864,2.854,1.178,6.324
								L47.917,50.186z"/>
							<path id="XMLID_655_" fill="#FCA590" d="M47.917,50.186c0,0-8.883,19.138-8.246,23.02c0.354,2.152,2.572,3.283,4.408,3.368
								c1.838,0.085,4.385-0.791,5.521-6.005c1.397-6.408,3.619-17.97,3.619-17.97L47.917,50.186z"/>
						</g>
					</g>
					<g id="XMLID_623_">
						<polygon id="XMLID_652_" fill="#D8C5BF" points="88.938,97.14 63.943,98.726 84.188,86.085 						"/>
						<g id="XMLID_638_">
							<g id="XMLID_640_">
								<path id="XMLID_651_" fill="#FF917B" d="M113.299,107.458c0.064,0.565,5.358,7.603,5.358,7.603l-5.784,4.57l-5.358-6.504
									L113.299,107.458z"/>
								<g id="XMLID_641_">
									<path id="XMLID_650_" fill="#5F505E" d="M115.495,125.573c-0.287-0.097-0.56-0.308-0.808-0.601
										c-1.413-1.638-2.154-5.756-2.154-5.756l5.604-4.859c0,0,7.24-2.755,10.305-2.552c0.423,0.021,0.764,0.111,1.003,0.268
										C131.346,113.362,117.433,126.229,115.495,125.573z"/>
									<path id="XMLID_649_" fill="#837984" d="M115.495,125.573c-0.287-0.097-0.56-0.308-0.808-0.601
										c2.423-1.66,9.745-6.98,13.755-13.167c0.423,0.021,0.764,0.111,1.003,0.268
										C131.346,113.362,117.433,126.229,115.495,125.573z"/>
									<g id="XMLID_642_">
										<g id="XMLID_647_">
											<path id="XMLID_648_" fill="#837984" d="M118.97,117.25c-0.004,0.001-0.008,0.002-0.012,0.003
												c-0.232,0.059-0.47-0.077-0.538-0.308l-0.052-0.179c-0.019-0.061-0.022-0.121-0.016-0.18
												c-0.137-0.879-0.1-1.79,0.112-2.654c0.059-0.241,0.304-0.388,0.54-0.328c0.24,0.059,0.387,0.302,0.328,0.541
												c-0.206,0.842-0.222,1.734-0.046,2.582C119.335,116.959,119.195,117.187,118.97,117.25z"/>
										</g>
										<g id="XMLID_645_">
											<path id="XMLID_646_" fill="#837984" d="M120.788,116.544c-0.234,0.065-0.479-0.069-0.549-0.304
												c0-0.001-0.001-0.004-0.002-0.006c-0.269-0.938-0.253-1.969,0.047-2.9c0.075-0.235,0.326-0.365,0.563-0.288
												c0.235,0.075,0.364,0.327,0.288,0.562c-0.246,0.766-0.259,1.611-0.037,2.382c0.067,0.237-0.068,0.483-0.305,0.553
												C120.791,116.543,120.79,116.543,120.788,116.544z"/>
										</g>
										<g id="XMLID_643_">
											<path id="XMLID_644_" fill="#837984" d="M122.408,115.804c-0.025,0.007-0.052,0.013-0.078,0.015
												c-0.245,0.024-0.464-0.155-0.488-0.401c-0.082-0.83-0.036-1.666,0.136-2.485c0.051-0.242,0.29-0.398,0.529-0.345
												c0.242,0.05,0.396,0.287,0.346,0.529c-0.153,0.729-0.193,1.474-0.121,2.214
												C122.754,115.549,122.613,115.747,122.408,115.804z"/>
										</g>
									</g>
								</g>
							</g>
							<path id="XMLID_639_" fill="#CCB3AC" d="M47.729,84.192c0,0,2.836,18.099,15.402,14.755
								C75.7,95.604,93.134,87.306,93.134,87.306l16.212,32.534l8.559-8.118c0,0-14.865-35.142-20.133-36.631
								C90.193,72.948,75.516,80,75.516,80L47.729,84.192z"/>
						</g>
						<g id="XMLID_624_">
							<g id="XMLID_626_">
								<path id="XMLID_637_" fill="#FF917B" d="M107.542,121.225c-0.09,0.562,3.117,8.763,3.117,8.763l-6.8,2.847l-3.413-7.704
									L107.542,121.225z"/>
								<g id="XMLID_627_">
									<path id="XMLID_636_" fill="#5F505E" d="M104.787,139.263c-0.25-0.169-0.456-0.446-0.616-0.795
										c-0.921-1.958-0.528-6.124-0.528-6.124l6.705-3.174c0,0,7.715-0.706,10.611,0.313c0.402,0.134,0.706,0.313,0.894,0.527
										C123.337,131.763,106.477,140.416,104.787,139.263z"/>
									<path id="XMLID_635_" fill="#837984" d="M104.787,139.263c-0.25-0.169-0.456-0.446-0.616-0.795
										c2.78-0.948,11.264-4.104,16.788-8.984c0.402,0.134,0.706,0.313,0.894,0.527
										C123.337,131.763,106.477,140.416,104.787,139.263z"/>
									<g id="XMLID_628_">
										<g id="XMLID_633_">
											<path id="XMLID_634_" fill="#837984" d="M110.371,132.18c-0.003,0-0.008,0-0.012,0c-0.239-0.006-0.432-0.2-0.435-0.44
												l-0.003-0.187c-0.001-0.063,0.012-0.122,0.034-0.177c0.104-0.884,0.385-1.751,0.821-2.526
												c0.121-0.217,0.396-0.292,0.608-0.171c0.216,0.121,0.292,0.395,0.17,0.609c-0.425,0.756-0.68,1.611-0.738,2.475
												C110.802,131.998,110.606,132.18,110.371,132.18z"/>
										</g>
										<g id="XMLID_631_">
											<path id="XMLID_632_" fill="#837984" d="M112.313,131.989c-0.243,0-0.442-0.195-0.446-0.439c0-0.002,0-0.005,0-0.006
												c-0.007-0.978,0.285-1.966,0.824-2.782c0.136-0.206,0.412-0.264,0.619-0.126c0.206,0.136,0.263,0.413,0.127,0.619
												c-0.442,0.67-0.683,1.481-0.677,2.283c0.002,0.246-0.195,0.447-0.441,0.451
												C112.316,131.989,112.314,131.989,112.313,131.989z"/>
										</g>
										<g id="XMLID_629_">
											<path id="XMLID_630_" fill="#837984" d="M114.072,131.712c-0.026,0-0.053-0.002-0.079-0.007
												c-0.242-0.043-0.405-0.274-0.362-0.518c0.145-0.821,0.413-1.614,0.799-2.357c0.113-0.22,0.386-0.307,0.603-0.19
												c0.219,0.113,0.305,0.384,0.19,0.603c-0.343,0.662-0.582,1.368-0.712,2.101
												C114.474,131.56,114.285,131.712,114.072,131.712z"/>
										</g>
									</g>
								</g>
							</g>
							<path id="XMLID_625_" fill="#D8C5BF" d="M80.438,92.871l4.325,4.296l16.447,34.602l9.448-4.456
								c0,0-11.346-42.616-18.267-41.191C85.473,87.546,80.438,92.871,80.438,92.871z"/>
						</g>
					</g>
				</g>
				<g id="XMLID_603_">
					<g id="XMLID_609_">
						<g id="XMLID_613_">
							<rect id="XMLID_621_" x="52.407" y="75.146" fill="#8EA0BA" width="47.299" height="1.434"/>
							<g id="XMLID_614_">
								<rect id="XMLID_620_" x="52.407" y="75.146" fill="#A6B8D1" width="18.216" height="1.434"/>
								<g id="XMLID_615_">
									<circle id="XMLID_619_" fill="#8EA0BA" cx="69.014" cy="75.877" r="0.37"/>
									<rect id="XMLID_618_" x="65.122" y="75.674" fill="#8EA0BA" width="2.729" height="0.465"/>
									<rect id="XMLID_617_" x="60.403" y="75.631" fill="#8EA0BA" width="2.729" height="0.465"/>
									<rect id="XMLID_616_" x="53.618" y="75.631" fill="#8EA0BA" width="2.729" height="0.465"/>
								</g>
							</g>
						</g>
						<g id="XMLID_610_">
							<polygon id="XMLID_612_" fill="#BCCCE2" points="102.312,75.378 70.308,75.34 77.314,52.588 109.381,52.571 							"/>
							<polygon id="XMLID_611_" fill="#A6BDD1" points="102.312,75.378 71.171,75.341 77.951,53.33 109.15,53.314 							"/>
						</g>
					</g>
					<g id="XMLID_604_">
						<path id="XMLID_608_" fill="#4C404B" d="M70.308,141.935L70.308,141.935c-0.638,0-1.154-0.517-1.154-1.153v-61.1
							c0-0.637,0.517-1.153,1.154-1.153l0,0c0.637,0,1.153,0.517,1.153,1.153v61.1C71.461,141.418,70.944,141.935,70.308,141.935z"
							/>
						<path id="XMLID_607_" fill="#4C404B" d="M35.85,141.935L35.85,141.935c-0.638,0-1.153-0.517-1.153-1.153v-61.1
							c0-0.637,0.516-1.153,1.153-1.153l0,0c0.638,0,1.153,0.517,1.153,1.153v61.1C37.003,141.418,36.487,141.935,35.85,141.935z"/>
						<path id="XMLID_606_" fill="#4C404B" d="M115.033,141.935L115.033,141.935c-0.637,0-1.153-0.517-1.153-1.153v-61.1
							c0-0.637,0.517-1.153,1.153-1.153l0,0c0.638,0,1.154,0.517,1.154,1.153v61.1C116.188,141.418,115.671,141.935,115.033,141.935
							z"/>
						<rect id="XMLID_605_" x="29.634" y="76.574" fill="#D28148" width="89.175" height="3.907"/>
					</g>
				</g>
			</g>
		</g>
	</g>
</g>
</svg>
