<?xml version="1.0" encoding="utf-8"?>
<!-- Generator: Adobe Illustrator 16.0.0, SVG Export Plug-In . SVG Version: 6.00 Build 0)  -->
<!DOCTYPE svg PUBLIC "-//W3C//DTD SVG 1.1//EN" "http://www.w3.org/Graphics/SVG/1.1/DTD/svg11.dtd">
<svg version="1.1" xmlns="http://www.w3.org/2000/svg" xmlns:xlink="http://www.w3.org/1999/xlink" x="0px" y="0px"
	 width="218.61px" height="162.818px" viewBox="0 0 218.61 162.818" enable-background="new 0 0 218.61 162.818"
	 xml:space="preserve">
<g id="BACKGROUND">
</g>
<g id="OBJECTS">
	<g id="XMLID_332_">
		<g id="XMLID_336_">
			<path id="XMLID_450_" fill="#D9F0FF" d="M136.236,5.963c-8.311,0.199-16.584,2.039-24.188,5.402
				c-11.332,5.013-17.732,16.465-24.874,26.031c-6.038,8.09-13.196,16.014-22.751,19.274c-9.061,3.092-19.182,1.594-28.277,4.586
				c-16.834,5.538-25.503,26.105-21.574,43.386c3.929,17.281,17.761,30.928,33.43,39.209c32.601,17.229,74.173,13.833,105.578-5.491
				c17.396-10.704,32.198-26.303,39.641-45.324c14.327-36.611-4.35-79.186-44.974-86.198C144.282,6.155,140.255,5.868,136.236,5.963
				z"/>
			<g id="XMLID_337_">
				<g id="XMLID_435_">
					<g id="XMLID_443_">
						<rect id="XMLID_449_" x="24.227" y="34.7" fill="#C7EEFF" width="168.058" height="107.292"/>
						<rect id="XMLID_448_" x="24.227" y="34.7" fill="#549EC6" width="168.058" height="9.092"/>
						<g id="XMLID_444_">
							<circle id="XMLID_447_" fill="#F0FCF7" cx="164.245" cy="39.247" r="2.005"/>
							<circle id="XMLID_446_" fill="#F0FCF7" cx="174.021" cy="39.247" r="2.005"/>
							<circle id="XMLID_445_" fill="#F0FCF7" cx="183.752" cy="39.247" r="2.005"/>
						</g>
					</g>
					<g id="XMLID_436_">
						<rect id="XMLID_442_" x="174.188" y="59.635" fill="#77C0E0" width="6.967" height="82.208"/>
						<rect id="XMLID_441_" x="153.286" y="82.734" fill="#77C0E0" width="6.966" height="59.108"/>
						<rect id="XMLID_440_" x="80.285" y="71.721" fill="#77C0E0" width="6.967" height="70.121"/>
						<rect id="XMLID_438_" x="33.679" y="72.19" fill="#77C0E0" width="6.966" height="70.121"/>
						<rect id="XMLID_437_" x="57.72" y="52.014" fill="#77C0E0" width="6.967" height="89.829"/>
					</g>
				</g>
				<g id="XMLID_338_">
					<defs>
						<rect id="XMLID_339_" x="14.604" y="20.532" width="204.006" height="121.46"/>
					</defs>
					<clipPath id="XMLID_348_">
						<use xlink:href="#XMLID_339_"  overflow="visible"/>
					</clipPath>
					<g id="XMLID_343_" clip-path="url(#XMLID_348_)">
						<path id="XMLID_434_" fill="#2D1B0F" d="M149.304,82.871c-0.423,2.638-4.592,3.403-7.913,7.197
							c-3.331,3.786,4.192,4.583,4.656,7.547c0.465,2.956-0.089,7.026-5.178,8.875c-5.081,1.848-48.981,8.606-53.492,1.311
							c-4.511-7.295,1.042-12.433,3.013-14.061c1.97-1.637-7.523-2.614-7.491-7.946c0.033-4.315,8.989-5.04,7.67-7.45
							c-1.311-2.41-8.223-1.758-7.67-5.153c0.546-3.396,11.383-4.975,11.57-7.1c0.09-1.083-0.61-4.804-0.978-9.371
							c0-0.008,0-0.008,0-0.016c-0.35-4.389,0.765-11.11,2.06-15.417c0-0.008,4.771-4.49,9.795-5.752
							c6.538-1.645,13.524-1.702,13.524-1.702l15.103,9.958l1.588-4.396c0.008,0.024,0.017,0.049,0.017,0.073
							c0.016,0.032,0.032,0.065,0.024,0.098c0.098,0.456,0.366,1.718,0.659,3.403c0.732,4.339,1.62,11.537,0.139,15.16
							c-2.215,5.398,6.204,6.351,8.54,8.272c2.346,1.921,0.334,5.268-3.761,7.857C137.083,76.854,150.199,77.358,149.304,82.871z"/>
						<polygon id="XMLID_433_" fill="#5F5260" points="137.222,104.56 126.513,91.523 99.784,89.596 90.367,141.992 
							133.336,142.331 						"/>
						<g id="XMLID_393_">
							<g id="XMLID_419_">
								<path id="XMLID_432_" fill="#FF917B" d="M128.131,92.747c0,0-16.52,20.558-19.491,20.558s-8.858-23.709-8.858-23.709
									s3.167-0.236,5.227-2.679c0.709-0.839,1.205-2.223,1.556-3.843c1.099-5.113,0.7-12.587,0.7-12.587l16.895-2.964
									c-0.31,0-2.744,7.214-2.427,14.044C121.943,86.355,123.515,90.963,128.131,92.747z"/>
								<path id="XMLID_431_" fill="#F47567" d="M121.731,81.567c-4.56,1.295-10.544,2.475-15.168,1.506
									c1.099-5.113,0.7-12.587,0.7-12.587l16.895-2.964C123.849,67.523,121.414,74.737,121.731,81.567z"/>
							</g>
							<g id="XMLID_394_">
								
									<ellipse id="XMLID_416_" transform="matrix(0.9827 -0.1853 0.1853 0.9827 -8.7659 26.0566)" fill="#F47567" cx="135.019" cy="59.926" rx="5.692" ry="3.564"/>
								
									<ellipse id="XMLID_415_" transform="matrix(0.986 0.1666 -0.1666 0.986 11.325 -15.1539)" fill="#F47567" cx="96.012" cy="59.944" rx="5.692" ry="3.564"/>
								<g id="XMLID_412_">
									<path id="XMLID_414_" fill="#FF917B" d="M134.753,56.523c-0.746,12.14-9.21,22.682-20.362,22.682
										c-10.603,0-17.67-12.834-16.924-24.974c0.746-12.14,9.698-21.467,19.994-20.834
										C127.758,34.03,135.499,44.384,134.753,56.523z"/>
									<path id="XMLID_413_" fill="#F47567" d="M134.014,55.362l-4.628-4.814c0,0-13,1.274-19.159-7.646
										c0,0-1.589,6.049-10.445,10.513l-2.298,3.292c0,0-3.609-18.545,9.08-21.272c12.689-2.727,26.595,2.442,28.455,10.636
										C136.88,54.264,134.014,55.362,134.014,55.362z"/>
								</g>
								<g id="XMLID_409_">
									<path id="XMLID_411_" fill="#2D1B0F" d="M134.506,59.072l-2.833-9.909c0,0-15.282,0.244-21.397-10.764
										c0,0-5.626,11.497-11.252,14.191l-1.628,7.336c-0.358-0.139-1.653-3.485-2.247-7.963c-0.366-2.768-0.473-5.976,0.073-9.127
										c0-0.008,0-0.024,0.008-0.033c1.018-5.821,4.283-11.431,12.237-13.67c9.063-2.557,18.49-1.93,24.238,2.979
										c2.142,1.808,3.77,4.218,4.682,7.279c0.008,0.024,0.017,0.049,0.017,0.073c0.016,0.032,0.032,0.065,0.024,0.098
										c0.317,1.058,0.537,2.19,0.659,3.403C137.543,47.299,136.811,52.631,134.506,59.072z"/>
									<path id="XMLID_410_" fill="#44331C" d="M131.705,32.114c-6.399-1.099-17.139-1.791-25.533,3.42
										c-4.941,3.061-9.069,8.166-11.023,16.43c-0.351,1.482-0.627,3.053-0.831,4.739c-0.35-4.389-0.391-9.559,0.904-13.866
										c0-0.008,0-0.024,0.008-0.033c1.018-5.821,4.283-11.431,12.237-13.67C116.529,26.578,125.957,27.205,131.705,32.114z"/>
								</g>
								<g id="XMLID_395_">
									<ellipse id="XMLID_408_" fill="#333333" cx="123.215" cy="59.321" rx="0.943" ry="1.885"/>
									<ellipse id="XMLID_404_" fill="#333333" cx="106.956" cy="58.152" rx="0.942" ry="1.885"/>
									<path id="XMLID_401_" fill="#FFFFFF" d="M121,66.756c-0.258,0.103-9.344,1.299-9.344,1.299s1.214,4.823,5,4.391
										C120.443,72.014,121,66.756,121,66.756z"/>
									<g id="XMLID_396_">
										
											<path id="XMLID_400_" fill="none" stroke="#DB4242" stroke-width="0.75" stroke-linecap="round" stroke-linejoin="round" stroke-miterlimit="10" d="
											M113.929,58.104c-0.122,2.067-0.081,4.144,0.123,6.205"/>
										
											<path id="XMLID_398_" fill="none" stroke="#2D1B0F" stroke-linecap="round" stroke-linejoin="round" stroke-miterlimit="10" d="
											M122.167,51.486c1.327-0.55,2.974-0.216,3.981,0.809"/>
										
											<path id="XMLID_397_" fill="none" stroke="#2D1B0F" stroke-linecap="round" stroke-linejoin="round" stroke-miterlimit="10" d="
											M103.065,51.788c1.257-1.2,3.299-1.481,4.833-0.665"/>
									</g>
								</g>
							</g>
						</g>
						<g id="XMLID_390_">
							<path id="XMLID_392_" fill="#F3DFC3" d="M101.653,88.758c0,0-5.568,32.208-7.441,53.231l-16.642,0.317l-16.39,0.317
								c0,0,16.886-43.738,22.252-48.143c0.513-0.423,1.099-0.806,1.733-1.172C91.143,89.929,101.653,88.758,101.653,88.758z"/>
							<path id="XMLID_391_" fill="#E5CDB7" d="M83.433,94.48c0.513-0.423,1.099-0.806,1.733-1.172
								c-1.498,3.762-3.143,9.062-3.753,13.915c-0.822,6.595-2.874,25.932-3.843,35.083l-16.39,0.317
								C61.181,142.624,78.066,98.885,83.433,94.48z"/>
						</g>
						<g id="XMLID_368_">
							<g id="XMLID_378_">
								<g id="XMLID_383_">
									<g id="XMLID_387_">
										<path id="XMLID_389_" fill="#969696" d="M52.647,92.928c0,0-7.65-13.5-16.285-16.673l2.032,8.816L52.647,92.928z"/>
										<path id="XMLID_388_" fill="#D1D1D1" d="M52.647,92.928c0,0-8.336-13.113-18.312-14.056l-4.32,5.181l18.93,15.006
											l2.635-1.701L52.647,92.928z"/>
									</g>
									<g id="XMLID_384_">
										<polygon id="XMLID_386_" fill="#DBD8CC" points="76.287,79.205 79.022,87.912 77.654,91.077 76.788,85.988 										"/>
										<path id="XMLID_385_" fill="#F4F4F4" d="M51.58,97.358l1.067-4.431c0,0,9.613-11.866,23.64-13.723l0.77,7.6L51.58,97.358z
											"/>
									</g>
								</g>
								<path id="XMLID_382_" fill="#35598E" d="M51.58,97.358c0,0-10.693-14.161-23.062-13.914L42,119.931
									c0,0,8.229,0.5,18.895,11.072L51.58,97.358z"/>
								<g id="XMLID_379_">
									<path id="XMLID_381_" fill="#4877AF" d="M60.895,131.003c-0.741,0.706-9.314-33.645-9.314-33.645
										s9.004-9.916,27.442-12.767l7.413,37.066C86.436,121.658,69.068,123.21,60.895,131.003z"/>
									<path id="XMLID_380_" fill="#FFD47D" d="M58.459,99.059c4.746-4.449,10.052-7.253,16.217-7.536l2.173,9.842
										c-5.973,0.713-10.877,4.011-15.301,7.688L58.459,99.059z"/>
								</g>
							</g>
							<g id="XMLID_369_">
								<path id="XMLID_377_" fill="#D1AD93" d="M54.98,144.01c0,0-2.445-14.358,11.902-11.436l0.651,5.286L54.98,144.01z"/>
								<g id="XMLID_371_">
									<path id="XMLID_376_" fill="#FF917B" d="M61.596,143.853l-4.136-6.611l-0.749-1.189
										c-2.695-3.378-14.794-19.801-13.54-22.748c1.245-2.947,8.41,8.272,8.41,8.272s-4.445-12.367-2.638-13.401
										c1.808-1.042,7.938,14.443,7.938,14.443s-1.352-12.261,0-12.677c1.352-0.415,2.182,2.28,2.182,2.28
										s0.644-1.287,1.832-1.107c1.181,0.171,3.42,12.335,3.42,12.335s2.238,2.557,2.523,7.646
										c0.032,0.472,0.041,0.969,0.032,1.481h0.009c0,0,2.328,6.204,2.613,6.481C69.77,139.342,61.596,143.853,61.596,143.853z"/>
									<path id="XMLID_374_" fill="#F47567" d="M61.596,143.853l-4.136-6.611c4.03-0.098,7.49-3.729,9.379-6.147
										c0.032,0.472,0.041,0.969,0.032,1.481h0.009c0,0,2.328,6.204,2.613,6.481C69.77,139.342,61.596,143.853,61.596,143.853z"/>
									<path id="XMLID_373_" fill="#F47567" d="M59.259,111.92c0.195,3.818,0.595,7.572,1.547,11.317
										c0.082,0.326-0.423,0.464-0.505,0.138c-0.984-3.818-1.611-7.816-1.474-11.765L59.259,111.92z"/>
								</g>
								<path id="XMLID_370_" fill="#F3DFC3" d="M66.883,132.232c0,0-3.369,7.142-11.902,11.778l5.951,5.969l15.355-7.648
									L66.883,132.232z"/>
							</g>
						</g>
						<g id="XMLID_365_">
							<path id="XMLID_367_" fill="#F3DFC3" d="M161.16,141.992h-18.325l-20.61,0.749c0,0,0.166-40.362,4.286-51.216
								c0,0,10.446,5.024,16.454,9.583c1.849,1.393,3.273,2.752,3.852,3.908C149.275,109.917,161.16,141.992,161.16,141.992z"/>
							<path id="XMLID_366_" fill="#E5CDB7" d="M161.16,141.992h-21.155c-1.563-12.278-1.33-35.779,0.648-39.198
								c0.651-1.14,1.457-1.62,2.312-1.686c1.849,1.393,3.273,2.752,3.852,3.908C149.275,109.917,161.16,141.992,161.16,141.992z"/>
						</g>
						<g id="XMLID_349_">
							<path id="XMLID_362_" fill="#D1AD93" d="M170.848,144.186c0,0,1.589-7.875-2.29-10.369c-3.88-2.494-5.473,4.572-5.473,4.572
								l3.394,4.918L170.848,144.186z"/>
							<g id="XMLID_351_">
								<path id="XMLID_357_" fill="#D84848" d="M164.912,127.735c0.123-0.211,1.482-8.122,5.48-10.978
									c3.997-2.856,9.052-9.889,10.079-9.605c1.028,0.285-4.723,18.187-4.723,18.187L164.912,127.735z"/>
								<path id="XMLID_356_" fill="#2D1B0F" d="M168.315,124.341c0,0,39.249-60.789,40.491-60.479
									c1.243,0.311-37.959,61.929-37.959,61.929L168.315,124.341z"/>
								<g id="XMLID_352_">
									<path id="XMLID_355_" fill="#FF917B" d="M188.291,121.764c-0.676,3.81-18.222,15.819-18.222,15.819l-0.334,0.375
										l-4.453,4.983l-5.194-9.665l2.923-3.639l-0.114-0.13c0.212-0.79,0.497-1.482,0.855-2.092
										c2.792-4.853,9.428-4.568,9.428-4.568s-2.23-8.85-1.05-10.177c0.781-0.887,2.027,0.261,2.141,0.367
										c-0.105-0.147-1.392-2.027,0.269-2.964c1.556-0.871,5.577,9.103,5.847,9.754c-0.155-0.676-2.654-11.895-0.945-14.436
										c1.775-2.622,4.495,11.333,4.495,11.333s0.684-14.842,2.45-15.657C188.161,100.245,188.975,117.945,188.291,121.764z"/>
									<path id="XMLID_354_" fill="#D84848" d="M169.735,137.958l-4.453,4.983l-5.194-9.665l2.923-3.639l-0.114-0.13
										c0.212-0.79,0.497-1.482,0.855-2.092C164.463,130.771,166.13,135.718,169.735,137.958z"/>
									<path id="XMLID_353_" fill="#D84848" d="M174.206,112.979l0.008,0.008c2.206,3.143,3.289,6.79,4.34,10.503
										c0.105,0.35-0.456,0.504-0.554,0.146c-1.042-3.867-2.198-7.784-4.47-11.114L174.206,112.979z"/>
								</g>
							</g>
							<path id="XMLID_350_" fill="#F3DFC3" d="M147.648,141.386c0.48-0.013,15.729-13.183,15.729-13.183s1.224,14.419,7.471,16.038
								l-6.649,5.024L147.648,141.386z"/>
						</g>
					</g>
				</g>
			</g>
		</g>
		<g id="XMLID_333_" display="none">
			<polyline id="XMLID_335_" display="inline" fill="none" stroke="#FCA338" stroke-width="2" stroke-miterlimit="10" points="
				14.418,100.198 7.82,84.939 -0.801,89.977 -6.507,72.957 -14.233,84.47 -22.129,63.738 			"/>
		</g>
	</g>
</g>
</svg>
